M48
; DRILL file {KiCad (6.0.2)} date Sat 19 Mar 2022 11:44:52
; FORMAT={-:-/ absolute / inch / decimal}
; #@! TF.CreationDate,2022-03-19T11:44:52+11:00
; #@! TF.GenerationSoftware,Kicad,Pcbnew,(6.0.2)
; #@! TF.FileFunction,Plated,1,2,PTH
FMAT,2
INCH
; #@! TA.AperFunction,Plated,PTH,ViaDrill
T1C0.0157
; #@! TA.AperFunction,Plated,PTH,ComponentDrill
T2C0.0236
; #@! TA.AperFunction,Plated,PTH,ViaDrill
T3C0.0295
; #@! TA.AperFunction,Plated,PTH,ComponentDrill
T4C0.0295
; #@! TA.AperFunction,Plated,PTH,ComponentDrill
T5C0.0300
; #@! TA.AperFunction,Plated,PTH,ComponentDrill
T6C0.0315
; #@! TA.AperFunction,Plated,PTH,ComponentDrill
T7C0.0354
; #@! TA.AperFunction,Plated,PTH,ComponentDrill
T8C0.0394
; #@! TA.AperFunction,Plated,PTH,ComponentDrill
T9C0.0433
; #@! TA.AperFunction,Plated,PTH,ViaDrill
T10C0.0492
; #@! TA.AperFunction,Plated,PTH,ComponentDrill
T11C0.0520
%
G90
G05
T1
X1.927Y-1.7541
X2.0197Y-2.2716
X2.0413Y-1.9351
X4.8425Y-2.2716
X5.5622Y-2.3906
T2
X1.2588Y-2.3819
X1.3375Y-2.3819
X1.4173Y-1.554
X1.4173Y-1.6328
T3
X1.6732Y-1.3189
T4
X2.5681Y-1.8666
X2.6181Y-1.8666
X2.6681Y-1.8666
T5
X5.8071Y-1.4764
X5.8071Y-1.5764
X5.8071Y-1.7764
X5.8071Y-1.8764
X5.8071Y-1.9764
T6
X1.0236Y-2.6378
X1.1024Y-2.6378
X1.1811Y-2.6378
X1.2598Y-2.6378
X1.3386Y-2.6378
X1.4173Y-2.6378
X1.4961Y-2.6378
X1.5748Y-2.6378
X1.6535Y-2.6378
X1.7323Y-2.6378
X1.811Y-2.6378
X1.8898Y-2.6378
X2.0947Y-0.9173
X2.1931Y-0.9173
X2.3622Y-1.4567
X2.3622Y-1.5551
T7
X1.1402Y-2.1457
X1.2402Y-2.1457
T8
X1.6732Y-0.5512
X1.7732Y-0.5512
X1.8732Y-0.5512
X5.3622Y-2.6772
X5.4622Y-2.6772
X5.5622Y-2.6772
X5.6622Y-2.6772
X5.8159Y-2.6772
X5.9159Y-2.6772
T9
X1.6711Y-2.0063
X1.6711Y-2.1063
X1.6711Y-2.2063
X5.3638Y-2.011
X5.3638Y-2.111
X5.3638Y-2.211
T10
X1.9488Y-2.0079
T11
X0.8661Y-1.8701
X0.8661Y-2.0669
X0.8661Y-2.2638
T8
G00X0.7087Y-1.4387
M15
G01X0.7087Y-1.5174
M16
G05
G00X0.7874Y-1.6631
M15
G01X0.8661Y-1.6631
M16
G05
G00X0.9449Y-1.4387
M15
G01X0.9449Y-1.5174
M16
G05
T0
M30
