%TF.GenerationSoftware,KiCad,Pcbnew,(6.0.4)*%
%TF.CreationDate,2022-04-19T19:36:52+10:00*%
%TF.ProjectId,T1200_PSU,54313230-305f-4505-9355-2e6b69636164,rev?*%
%TF.SameCoordinates,Original*%
%TF.FileFunction,Legend,Top*%
%TF.FilePolarity,Positive*%
%FSLAX46Y46*%
G04 Gerber Fmt 4.6, Leading zero omitted, Abs format (unit mm)*
G04 Created by KiCad (PCBNEW (6.0.4)) date 2022-04-19 19:36:52*
%MOMM*%
%LPD*%
G01*
G04 APERTURE LIST*
%ADD10C,0.150000*%
%ADD11C,0.300000*%
%ADD12C,0.100000*%
%ADD13C,0.050000*%
%ADD14C,0.200000*%
%ADD15C,0.120000*%
%ADD16C,0.127000*%
G04 APERTURE END LIST*
D10*
X128184000Y-58740000D02*
X138000000Y-58740000D01*
X138000000Y-58740000D02*
X138000000Y-48500000D01*
X138000000Y-48500000D02*
X128184000Y-48500000D01*
X128184000Y-48500000D02*
X128184000Y-58740000D01*
X145500000Y-66000000D02*
X152000000Y-66000000D01*
X152000000Y-66000000D02*
X152000000Y-70000000D01*
X152000000Y-70000000D02*
X145500000Y-70000000D01*
X145500000Y-70000000D02*
X145500000Y-66000000D01*
X36500000Y-45500000D02*
X36500000Y-46500000D01*
X40685000Y-58620000D02*
X50500000Y-58620000D01*
X50500000Y-58620000D02*
X50500000Y-48380000D01*
X50500000Y-48380000D02*
X40685000Y-48380000D01*
X40685000Y-48380000D02*
X40685000Y-58620000D01*
X23000000Y-69500000D02*
X51000000Y-69500000D01*
X51000000Y-69500000D02*
X51000000Y-64500000D01*
X51000000Y-64500000D02*
X23000000Y-64500000D01*
X23000000Y-64500000D02*
X23000000Y-69500000D01*
X134500000Y-70000000D02*
X145500000Y-70000000D01*
X145500000Y-70000000D02*
X145500000Y-66000000D01*
X145500000Y-66000000D02*
X134500000Y-66000000D01*
X134500000Y-66000000D02*
X134500000Y-70000000D01*
X38000000Y-46000000D02*
X36000000Y-46000000D01*
X64500000Y-35500000D02*
X65500000Y-35500000D01*
X65000000Y-34000000D02*
X65000000Y-36000000D01*
G36*
X37500000Y-46500000D02*
G01*
X36500000Y-46000000D01*
X37500000Y-45460000D01*
X37500000Y-46500000D01*
G37*
X37500000Y-46500000D02*
X36500000Y-46000000D01*
X37500000Y-45460000D01*
X37500000Y-46500000D01*
G36*
X65000000Y-35500000D02*
G01*
X64460000Y-34500000D01*
X65500000Y-34500000D01*
X65000000Y-35500000D01*
G37*
X65000000Y-35500000D02*
X64460000Y-34500000D01*
X65500000Y-34500000D01*
X65000000Y-35500000D01*
D11*
X127500000Y-34178571D02*
X127500000Y-32678571D01*
X127500000Y-33392857D02*
X128357142Y-33392857D01*
X128357142Y-34178571D02*
X128357142Y-32678571D01*
X129071428Y-34178571D02*
X129071428Y-32678571D01*
X129428571Y-32678571D01*
X129642857Y-32750000D01*
X129785714Y-32892857D01*
X129857142Y-33035714D01*
X129928571Y-33321428D01*
X129928571Y-33535714D01*
X129857142Y-33821428D01*
X129785714Y-33964285D01*
X129642857Y-34107142D01*
X129428571Y-34178571D01*
X129071428Y-34178571D01*
X130571428Y-34178571D02*
X130571428Y-32678571D01*
X130928571Y-32678571D01*
X131142857Y-32750000D01*
X131285714Y-32892857D01*
X131357142Y-33035714D01*
X131428571Y-33321428D01*
X131428571Y-33535714D01*
X131357142Y-33821428D01*
X131285714Y-33964285D01*
X131142857Y-34107142D01*
X130928571Y-34178571D01*
X130571428Y-34178571D01*
X133214285Y-33607142D02*
X134357142Y-33607142D01*
X133785714Y-34178571D02*
X133785714Y-33035714D01*
X135857142Y-34178571D02*
X135000000Y-34178571D01*
X135428571Y-34178571D02*
X135428571Y-32678571D01*
X135285714Y-32892857D01*
X135142857Y-33035714D01*
X135000000Y-33107142D01*
X136428571Y-32821428D02*
X136500000Y-32750000D01*
X136642857Y-32678571D01*
X137000000Y-32678571D01*
X137142857Y-32750000D01*
X137214285Y-32821428D01*
X137285714Y-32964285D01*
X137285714Y-33107142D01*
X137214285Y-33321428D01*
X136357142Y-34178571D01*
X137285714Y-34178571D01*
X137714285Y-32678571D02*
X138214285Y-34178571D01*
X138714285Y-32678571D01*
X123035714Y-47678571D02*
X123035714Y-46178571D01*
X123035714Y-46892857D02*
X123892857Y-46892857D01*
X123892857Y-47678571D02*
X123892857Y-46178571D01*
X124607142Y-47678571D02*
X124607142Y-46178571D01*
X124964285Y-46178571D01*
X125178571Y-46250000D01*
X125321428Y-46392857D01*
X125392857Y-46535714D01*
X125464285Y-46821428D01*
X125464285Y-47035714D01*
X125392857Y-47321428D01*
X125321428Y-47464285D01*
X125178571Y-47607142D01*
X124964285Y-47678571D01*
X124607142Y-47678571D01*
X126107142Y-47678571D02*
X126107142Y-46178571D01*
X126464285Y-46178571D01*
X126678571Y-46250000D01*
X126821428Y-46392857D01*
X126892857Y-46535714D01*
X126964285Y-46821428D01*
X126964285Y-47035714D01*
X126892857Y-47321428D01*
X126821428Y-47464285D01*
X126678571Y-47607142D01*
X126464285Y-47678571D01*
X126107142Y-47678571D01*
X128750000Y-47678571D02*
X128750000Y-46178571D01*
X129250000Y-47250000D01*
X129750000Y-46178571D01*
X129750000Y-47678571D01*
X130678571Y-47678571D02*
X130535714Y-47607142D01*
X130464285Y-47535714D01*
X130392857Y-47392857D01*
X130392857Y-46964285D01*
X130464285Y-46821428D01*
X130535714Y-46750000D01*
X130678571Y-46678571D01*
X130892857Y-46678571D01*
X131035714Y-46750000D01*
X131107142Y-46821428D01*
X131178571Y-46964285D01*
X131178571Y-47392857D01*
X131107142Y-47535714D01*
X131035714Y-47607142D01*
X130892857Y-47678571D01*
X130678571Y-47678571D01*
X131607142Y-46678571D02*
X132178571Y-46678571D01*
X131821428Y-46178571D02*
X131821428Y-47464285D01*
X131892857Y-47607142D01*
X132035714Y-47678571D01*
X132178571Y-47678571D01*
X132892857Y-47678571D02*
X132750000Y-47607142D01*
X132678571Y-47535714D01*
X132607142Y-47392857D01*
X132607142Y-46964285D01*
X132678571Y-46821428D01*
X132750000Y-46750000D01*
X132892857Y-46678571D01*
X133107142Y-46678571D01*
X133250000Y-46750000D01*
X133321428Y-46821428D01*
X133392857Y-46964285D01*
X133392857Y-47392857D01*
X133321428Y-47535714D01*
X133250000Y-47607142D01*
X133107142Y-47678571D01*
X132892857Y-47678571D01*
X134035714Y-47678571D02*
X134035714Y-46678571D01*
X134035714Y-46964285D02*
X134107142Y-46821428D01*
X134178571Y-46750000D01*
X134321428Y-46678571D01*
X134464285Y-46678571D01*
X136107142Y-47107142D02*
X137250000Y-47107142D01*
X136678571Y-47678571D02*
X136678571Y-46535714D01*
X138678571Y-46178571D02*
X137964285Y-46178571D01*
X137892857Y-46892857D01*
X137964285Y-46821428D01*
X138107142Y-46750000D01*
X138464285Y-46750000D01*
X138607142Y-46821428D01*
X138678571Y-46892857D01*
X138750000Y-47035714D01*
X138750000Y-47392857D01*
X138678571Y-47535714D01*
X138607142Y-47607142D01*
X138464285Y-47678571D01*
X138107142Y-47678571D01*
X137964285Y-47607142D01*
X137892857Y-47535714D01*
X139178571Y-46178571D02*
X139678571Y-47678571D01*
X140178571Y-46178571D01*
D12*
X47000000Y-17761904D02*
X46952380Y-17857142D01*
X46952380Y-18000000D01*
X47000000Y-18142857D01*
X47095238Y-18238095D01*
X47190476Y-18285714D01*
X47380952Y-18333333D01*
X47523809Y-18333333D01*
X47714285Y-18285714D01*
X47809523Y-18238095D01*
X47904761Y-18142857D01*
X47952380Y-18000000D01*
X47952380Y-17904761D01*
X47904761Y-17761904D01*
X47857142Y-17714285D01*
X47523809Y-17714285D01*
X47523809Y-17904761D01*
X47952380Y-17285714D02*
X46952380Y-17285714D01*
X47952380Y-16714285D01*
X46952380Y-16714285D01*
X47952380Y-16238095D02*
X46952380Y-16238095D01*
X46952380Y-16000000D01*
X47000000Y-15857142D01*
X47095238Y-15761904D01*
X47190476Y-15714285D01*
X47380952Y-15666666D01*
X47523809Y-15666666D01*
X47714285Y-15714285D01*
X47809523Y-15761904D01*
X47904761Y-15857142D01*
X47952380Y-16000000D01*
X47952380Y-16238095D01*
D11*
X52678571Y-58249999D02*
X52678571Y-58964285D01*
X51178571Y-58964285D01*
X52678571Y-57535714D02*
X52607142Y-57678571D01*
X52535714Y-57749999D01*
X52392857Y-57821428D01*
X51964285Y-57821428D01*
X51821428Y-57749999D01*
X51750000Y-57678571D01*
X51678571Y-57535714D01*
X51678571Y-57321428D01*
X51750000Y-57178571D01*
X51821428Y-57107142D01*
X51964285Y-57035714D01*
X52392857Y-57035714D01*
X52535714Y-57107142D01*
X52607142Y-57178571D01*
X52678571Y-57321428D01*
X52678571Y-57535714D01*
X51678571Y-55749999D02*
X52892857Y-55749999D01*
X53035714Y-55821428D01*
X53107142Y-55892857D01*
X53178571Y-56035714D01*
X53178571Y-56249999D01*
X53107142Y-56392857D01*
X52607142Y-55749999D02*
X52678571Y-55892857D01*
X52678571Y-56178571D01*
X52607142Y-56321428D01*
X52535714Y-56392857D01*
X52392857Y-56464285D01*
X51964285Y-56464285D01*
X51821428Y-56392857D01*
X51750000Y-56321428D01*
X51678571Y-56178571D01*
X51678571Y-55892857D01*
X51750000Y-55749999D01*
X52678571Y-55035714D02*
X51678571Y-55035714D01*
X51178571Y-55035714D02*
X51250000Y-55107142D01*
X51321428Y-55035714D01*
X51250000Y-54964285D01*
X51178571Y-55035714D01*
X51321428Y-55035714D01*
X52607142Y-53678571D02*
X52678571Y-53821428D01*
X52678571Y-54107142D01*
X52607142Y-54250000D01*
X52535714Y-54321428D01*
X52392857Y-54392857D01*
X51964285Y-54392857D01*
X51821428Y-54321428D01*
X51750000Y-54250000D01*
X51678571Y-54107142D01*
X51678571Y-53821428D01*
X51750000Y-53678571D01*
X52107142Y-51892857D02*
X52107142Y-50750000D01*
X52678571Y-51321428D02*
X51535714Y-51321428D01*
X51178571Y-49321428D02*
X51178571Y-50035714D01*
X51892857Y-50107142D01*
X51821428Y-50035714D01*
X51750000Y-49892857D01*
X51750000Y-49535714D01*
X51821428Y-49392857D01*
X51892857Y-49321428D01*
X52035714Y-49250000D01*
X52392857Y-49250000D01*
X52535714Y-49321428D01*
X52607142Y-49392857D01*
X52678571Y-49535714D01*
X52678571Y-49892857D01*
X52607142Y-50035714D01*
X52535714Y-50107142D01*
X51178571Y-48821428D02*
X52678571Y-48321428D01*
X51178571Y-47821428D01*
D12*
X42952380Y-23000000D02*
X41952380Y-23000000D01*
X41952380Y-22619047D01*
X42000000Y-22523809D01*
X42047619Y-22476190D01*
X42142857Y-22428571D01*
X42285714Y-22428571D01*
X42380952Y-22476190D01*
X42428571Y-22523809D01*
X42476190Y-22619047D01*
X42476190Y-23000000D01*
X42904761Y-22047619D02*
X42952380Y-21904761D01*
X42952380Y-21666666D01*
X42904761Y-21571428D01*
X42857142Y-21523809D01*
X42761904Y-21476190D01*
X42666666Y-21476190D01*
X42571428Y-21523809D01*
X42523809Y-21571428D01*
X42476190Y-21666666D01*
X42428571Y-21857142D01*
X42380952Y-21952380D01*
X42333333Y-22000000D01*
X42238095Y-22047619D01*
X42142857Y-22047619D01*
X42047619Y-22000000D01*
X42000000Y-21952380D01*
X41952380Y-21857142D01*
X41952380Y-21619047D01*
X42000000Y-21476190D01*
X41952380Y-21047619D02*
X42761904Y-21047619D01*
X42857142Y-21000000D01*
X42904761Y-20952380D01*
X42952380Y-20857142D01*
X42952380Y-20666666D01*
X42904761Y-20571428D01*
X42857142Y-20523809D01*
X42761904Y-20476190D01*
X41952380Y-20476190D01*
X42571428Y-20000000D02*
X42571428Y-19238095D01*
X42285714Y-18761904D02*
X42571428Y-18000000D01*
X42857142Y-18761904D01*
X42952380Y-17523809D02*
X41952380Y-17523809D01*
X41952380Y-17142857D01*
X42000000Y-17047619D01*
X42047619Y-17000000D01*
X42142857Y-16952380D01*
X42285714Y-16952380D01*
X42380952Y-17000000D01*
X42428571Y-17047619D01*
X42476190Y-17142857D01*
X42476190Y-17523809D01*
X42857142Y-15952380D02*
X42904761Y-16000000D01*
X42952380Y-16142857D01*
X42952380Y-16238095D01*
X42904761Y-16380952D01*
X42809523Y-16476190D01*
X42714285Y-16523809D01*
X42523809Y-16571428D01*
X42380952Y-16571428D01*
X42190476Y-16523809D01*
X42095238Y-16476190D01*
X42000000Y-16380952D01*
X41952380Y-16238095D01*
X41952380Y-16142857D01*
X42000000Y-16000000D01*
X42047619Y-15952380D01*
D11*
X54912857Y-18178571D02*
X54198571Y-18178571D01*
X54198571Y-16678571D01*
X56270000Y-18035714D02*
X56198571Y-18107142D01*
X55984285Y-18178571D01*
X55841428Y-18178571D01*
X55627142Y-18107142D01*
X55484285Y-17964285D01*
X55412857Y-17821428D01*
X55341428Y-17535714D01*
X55341428Y-17321428D01*
X55412857Y-17035714D01*
X55484285Y-16892857D01*
X55627142Y-16750000D01*
X55841428Y-16678571D01*
X55984285Y-16678571D01*
X56198571Y-16750000D01*
X56270000Y-16821428D01*
X56912857Y-18178571D02*
X56912857Y-16678571D01*
X57270000Y-16678571D01*
X57484285Y-16750000D01*
X57627142Y-16892857D01*
X57698571Y-17035714D01*
X57770000Y-17321428D01*
X57770000Y-17535714D01*
X57698571Y-17821428D01*
X57627142Y-17964285D01*
X57484285Y-18107142D01*
X57270000Y-18178571D01*
X56912857Y-18178571D01*
X59555714Y-17607142D02*
X60698571Y-17607142D01*
X61341428Y-16821428D02*
X61412857Y-16750000D01*
X61555714Y-16678571D01*
X61912857Y-16678571D01*
X62055714Y-16750000D01*
X62127142Y-16821428D01*
X62198571Y-16964285D01*
X62198571Y-17107142D01*
X62127142Y-17321428D01*
X61270000Y-18178571D01*
X62198571Y-18178571D01*
X62770000Y-16821428D02*
X62841428Y-16750000D01*
X62984285Y-16678571D01*
X63341428Y-16678571D01*
X63484285Y-16750000D01*
X63555714Y-16821428D01*
X63627142Y-16964285D01*
X63627142Y-17107142D01*
X63555714Y-17321428D01*
X62698571Y-18178571D01*
X63627142Y-18178571D01*
X64055714Y-16678571D02*
X64555714Y-18178571D01*
X65055714Y-16678571D01*
X60142857Y-42678571D02*
X60142857Y-41178571D01*
X60642857Y-42250000D01*
X61142857Y-41178571D01*
X61142857Y-42678571D01*
X62071428Y-42678571D02*
X61928571Y-42607142D01*
X61857142Y-42535714D01*
X61785714Y-42392857D01*
X61785714Y-41964285D01*
X61857142Y-41821428D01*
X61928571Y-41750000D01*
X62071428Y-41678571D01*
X62285714Y-41678571D01*
X62428571Y-41750000D01*
X62500000Y-41821428D01*
X62571428Y-41964285D01*
X62571428Y-42392857D01*
X62500000Y-42535714D01*
X62428571Y-42607142D01*
X62285714Y-42678571D01*
X62071428Y-42678571D01*
X63857142Y-42678571D02*
X63857142Y-41178571D01*
X63857142Y-42607142D02*
X63714285Y-42678571D01*
X63428571Y-42678571D01*
X63285714Y-42607142D01*
X63214285Y-42535714D01*
X63142857Y-42392857D01*
X63142857Y-41964285D01*
X63214285Y-41821428D01*
X63285714Y-41750000D01*
X63428571Y-41678571D01*
X63714285Y-41678571D01*
X63857142Y-41750000D01*
X65142857Y-42607142D02*
X65000000Y-42678571D01*
X64714285Y-42678571D01*
X64571428Y-42607142D01*
X64500000Y-42464285D01*
X64500000Y-41892857D01*
X64571428Y-41750000D01*
X64714285Y-41678571D01*
X65000000Y-41678571D01*
X65142857Y-41750000D01*
X65214285Y-41892857D01*
X65214285Y-42035714D01*
X64500000Y-42178571D01*
X65857142Y-42678571D02*
X65857142Y-41678571D01*
X65857142Y-41821428D02*
X65928571Y-41750000D01*
X66071428Y-41678571D01*
X66285714Y-41678571D01*
X66428571Y-41750000D01*
X66500000Y-41892857D01*
X66500000Y-42678571D01*
X66500000Y-41892857D02*
X66571428Y-41750000D01*
X66714285Y-41678571D01*
X66928571Y-41678571D01*
X67071428Y-41750000D01*
X67142857Y-41892857D01*
X67142857Y-42678571D01*
X69000000Y-42107142D02*
X70142857Y-42107142D01*
X70928571Y-42678571D02*
X71214285Y-42678571D01*
X71357142Y-42607142D01*
X71428571Y-42535714D01*
X71571428Y-42321428D01*
X71642857Y-42035714D01*
X71642857Y-41464285D01*
X71571428Y-41321428D01*
X71500000Y-41250000D01*
X71357142Y-41178571D01*
X71071428Y-41178571D01*
X70928571Y-41250000D01*
X70857142Y-41321428D01*
X70785714Y-41464285D01*
X70785714Y-41821428D01*
X70857142Y-41964285D01*
X70928571Y-42035714D01*
X71071428Y-42107142D01*
X71357142Y-42107142D01*
X71500000Y-42035714D01*
X71571428Y-41964285D01*
X71642857Y-41821428D01*
X72071428Y-41178571D02*
X72571428Y-42678571D01*
X73071428Y-41178571D01*
D12*
X45452380Y-23000000D02*
X44452380Y-23000000D01*
X44452380Y-22619047D01*
X44500000Y-22523809D01*
X44547619Y-22476190D01*
X44642857Y-22428571D01*
X44785714Y-22428571D01*
X44880952Y-22476190D01*
X44928571Y-22523809D01*
X44976190Y-22619047D01*
X44976190Y-23000000D01*
X45357142Y-21428571D02*
X45404761Y-21476190D01*
X45452380Y-21619047D01*
X45452380Y-21714285D01*
X45404761Y-21857142D01*
X45309523Y-21952380D01*
X45214285Y-22000000D01*
X45023809Y-22047619D01*
X44880952Y-22047619D01*
X44690476Y-22000000D01*
X44595238Y-21952380D01*
X44500000Y-21857142D01*
X44452380Y-21714285D01*
X44452380Y-21619047D01*
X44500000Y-21476190D01*
X44547619Y-21428571D01*
X45071428Y-21000000D02*
X45071428Y-20238095D01*
X44785714Y-19761904D02*
X45071428Y-19000000D01*
X45357142Y-19761904D01*
X45452380Y-18523809D02*
X44452380Y-18523809D01*
X44452380Y-18142857D01*
X44500000Y-18047619D01*
X44547619Y-18000000D01*
X44642857Y-17952380D01*
X44785714Y-17952380D01*
X44880952Y-18000000D01*
X44928571Y-18047619D01*
X44976190Y-18142857D01*
X44976190Y-18523809D01*
X45404761Y-17571428D02*
X45452380Y-17428571D01*
X45452380Y-17190476D01*
X45404761Y-17095238D01*
X45357142Y-17047619D01*
X45261904Y-17000000D01*
X45166666Y-17000000D01*
X45071428Y-17047619D01*
X45023809Y-17095238D01*
X44976190Y-17190476D01*
X44928571Y-17380952D01*
X44880952Y-17476190D01*
X44833333Y-17523809D01*
X44738095Y-17571428D01*
X44642857Y-17571428D01*
X44547619Y-17523809D01*
X44500000Y-17476190D01*
X44452380Y-17380952D01*
X44452380Y-17142857D01*
X44500000Y-17000000D01*
X44452380Y-16571428D02*
X45261904Y-16571428D01*
X45357142Y-16523809D01*
X45404761Y-16476190D01*
X45452380Y-16380952D01*
X45452380Y-16190476D01*
X45404761Y-16095238D01*
X45357142Y-16047619D01*
X45261904Y-16000000D01*
X44452380Y-16000000D01*
D10*
%TO.C,C5*%
X56488333Y-40657142D02*
X56440714Y-40704761D01*
X56297857Y-40752380D01*
X56202619Y-40752380D01*
X56059761Y-40704761D01*
X55964523Y-40609523D01*
X55916904Y-40514285D01*
X55869285Y-40323809D01*
X55869285Y-40180952D01*
X55916904Y-39990476D01*
X55964523Y-39895238D01*
X56059761Y-39800000D01*
X56202619Y-39752380D01*
X56297857Y-39752380D01*
X56440714Y-39800000D01*
X56488333Y-39847619D01*
X57393095Y-39752380D02*
X56916904Y-39752380D01*
X56869285Y-40228571D01*
X56916904Y-40180952D01*
X57012142Y-40133333D01*
X57250238Y-40133333D01*
X57345476Y-40180952D01*
X57393095Y-40228571D01*
X57440714Y-40323809D01*
X57440714Y-40561904D01*
X57393095Y-40657142D01*
X57345476Y-40704761D01*
X57250238Y-40752380D01*
X57012142Y-40752380D01*
X56916904Y-40704761D01*
X56869285Y-40657142D01*
X62829523Y-39752380D02*
X63448571Y-39752380D01*
X63115238Y-40133333D01*
X63258095Y-40133333D01*
X63353333Y-40180952D01*
X63400952Y-40228571D01*
X63448571Y-40323809D01*
X63448571Y-40561904D01*
X63400952Y-40657142D01*
X63353333Y-40704761D01*
X63258095Y-40752380D01*
X62972380Y-40752380D01*
X62877142Y-40704761D01*
X62829523Y-40657142D01*
X63781904Y-39752380D02*
X64400952Y-39752380D01*
X64067619Y-40133333D01*
X64210476Y-40133333D01*
X64305714Y-40180952D01*
X64353333Y-40228571D01*
X64400952Y-40323809D01*
X64400952Y-40561904D01*
X64353333Y-40657142D01*
X64305714Y-40704761D01*
X64210476Y-40752380D01*
X63924761Y-40752380D01*
X63829523Y-40704761D01*
X63781904Y-40657142D01*
X65258095Y-40085714D02*
X65258095Y-40752380D01*
X64829523Y-40085714D02*
X64829523Y-40609523D01*
X64877142Y-40704761D01*
X64972380Y-40752380D01*
X65115238Y-40752380D01*
X65210476Y-40704761D01*
X65258095Y-40657142D01*
X66067619Y-40228571D02*
X65734285Y-40228571D01*
X65734285Y-40752380D02*
X65734285Y-39752380D01*
X66210476Y-39752380D01*
%TO.C,R3*%
X50472380Y-32331666D02*
X49996190Y-32665000D01*
X50472380Y-32903095D02*
X49472380Y-32903095D01*
X49472380Y-32522142D01*
X49520000Y-32426904D01*
X49567619Y-32379285D01*
X49662857Y-32331666D01*
X49805714Y-32331666D01*
X49900952Y-32379285D01*
X49948571Y-32426904D01*
X49996190Y-32522142D01*
X49996190Y-32903095D01*
X49472380Y-31998333D02*
X49472380Y-31379285D01*
X49853333Y-31712619D01*
X49853333Y-31569761D01*
X49900952Y-31474523D01*
X49948571Y-31426904D01*
X50043809Y-31379285D01*
X50281904Y-31379285D01*
X50377142Y-31426904D01*
X50424761Y-31474523D01*
X50472380Y-31569761D01*
X50472380Y-31855476D01*
X50424761Y-31950714D01*
X50377142Y-31998333D01*
X52472380Y-30598492D02*
X52472380Y-31169921D01*
X52472380Y-30884206D02*
X51472380Y-30884206D01*
X51615238Y-30979444D01*
X51710476Y-31074683D01*
X51758095Y-31169921D01*
X51472380Y-29979444D02*
X51472380Y-29884206D01*
X51520000Y-29788968D01*
X51567619Y-29741349D01*
X51662857Y-29693730D01*
X51853333Y-29646111D01*
X52091428Y-29646111D01*
X52281904Y-29693730D01*
X52377142Y-29741349D01*
X52424761Y-29788968D01*
X52472380Y-29884206D01*
X52472380Y-29979444D01*
X52424761Y-30074683D01*
X52377142Y-30122302D01*
X52281904Y-30169921D01*
X52091428Y-30217540D01*
X51853333Y-30217540D01*
X51662857Y-30169921D01*
X51567619Y-30122302D01*
X51520000Y-30074683D01*
X51472380Y-29979444D01*
X51472380Y-29027064D02*
X51472380Y-28931825D01*
X51520000Y-28836587D01*
X51567619Y-28788968D01*
X51662857Y-28741349D01*
X51853333Y-28693730D01*
X52091428Y-28693730D01*
X52281904Y-28741349D01*
X52377142Y-28788968D01*
X52424761Y-28836587D01*
X52472380Y-28931825D01*
X52472380Y-29027064D01*
X52424761Y-29122302D01*
X52377142Y-29169921D01*
X52281904Y-29217540D01*
X52091428Y-29265159D01*
X51853333Y-29265159D01*
X51662857Y-29217540D01*
X51567619Y-29169921D01*
X51520000Y-29122302D01*
X51472380Y-29027064D01*
X52472380Y-28265159D02*
X51472380Y-28265159D01*
X52091428Y-28169921D02*
X52472380Y-27884206D01*
X51805714Y-27884206D02*
X52186666Y-28265159D01*
%TO.C,R9*%
X36772380Y-56166666D02*
X36296190Y-56500000D01*
X36772380Y-56738095D02*
X35772380Y-56738095D01*
X35772380Y-56357142D01*
X35820000Y-56261904D01*
X35867619Y-56214285D01*
X35962857Y-56166666D01*
X36105714Y-56166666D01*
X36200952Y-56214285D01*
X36248571Y-56261904D01*
X36296190Y-56357142D01*
X36296190Y-56738095D01*
X36772380Y-55690476D02*
X36772380Y-55500000D01*
X36724761Y-55404761D01*
X36677142Y-55357142D01*
X36534285Y-55261904D01*
X36343809Y-55214285D01*
X35962857Y-55214285D01*
X35867619Y-55261904D01*
X35820000Y-55309523D01*
X35772380Y-55404761D01*
X35772380Y-55595238D01*
X35820000Y-55690476D01*
X35867619Y-55738095D01*
X35962857Y-55785714D01*
X36200952Y-55785714D01*
X36296190Y-55738095D01*
X36343809Y-55690476D01*
X36391428Y-55595238D01*
X36391428Y-55404761D01*
X36343809Y-55309523D01*
X36296190Y-55261904D01*
X36200952Y-55214285D01*
X34285714Y-53452380D02*
X33714285Y-53452380D01*
X34000000Y-53452380D02*
X34000000Y-52452380D01*
X33904761Y-52595238D01*
X33809523Y-52690476D01*
X33714285Y-52738095D01*
X34714285Y-53452380D02*
X34714285Y-52452380D01*
X35285714Y-53452380D02*
X34857142Y-52880952D01*
X35285714Y-52452380D02*
X34714285Y-53023809D01*
%TO.C,SW1*%
X16666666Y-44904761D02*
X16809523Y-44952380D01*
X17047619Y-44952380D01*
X17142857Y-44904761D01*
X17190476Y-44857142D01*
X17238095Y-44761904D01*
X17238095Y-44666666D01*
X17190476Y-44571428D01*
X17142857Y-44523809D01*
X17047619Y-44476190D01*
X16857142Y-44428571D01*
X16761904Y-44380952D01*
X16714285Y-44333333D01*
X16666666Y-44238095D01*
X16666666Y-44142857D01*
X16714285Y-44047619D01*
X16761904Y-44000000D01*
X16857142Y-43952380D01*
X17095238Y-43952380D01*
X17238095Y-44000000D01*
X17571428Y-43952380D02*
X17809523Y-44952380D01*
X18000000Y-44238095D01*
X18190476Y-44952380D01*
X18428571Y-43952380D01*
X19333333Y-44952380D02*
X18761904Y-44952380D01*
X19047619Y-44952380D02*
X19047619Y-43952380D01*
X18952380Y-44095238D01*
X18857142Y-44190476D01*
X18761904Y-44238095D01*
X25904761Y-55595238D02*
X25952380Y-55452380D01*
X25952380Y-55214285D01*
X25904761Y-55119047D01*
X25857142Y-55071428D01*
X25761904Y-55023809D01*
X25666666Y-55023809D01*
X25571428Y-55071428D01*
X25523809Y-55119047D01*
X25476190Y-55214285D01*
X25428571Y-55404761D01*
X25380952Y-55500000D01*
X25333333Y-55547619D01*
X25238095Y-55595238D01*
X25142857Y-55595238D01*
X25047619Y-55547619D01*
X25000000Y-55500000D01*
X24952380Y-55404761D01*
X24952380Y-55166666D01*
X25000000Y-55023809D01*
X24952380Y-54690476D02*
X25952380Y-54452380D01*
X25238095Y-54261904D01*
X25952380Y-54071428D01*
X24952380Y-53833333D01*
X26047619Y-53690476D02*
X26047619Y-52928571D01*
X25904761Y-52738095D02*
X25952380Y-52595238D01*
X25952380Y-52357142D01*
X25904761Y-52261904D01*
X25857142Y-52214285D01*
X25761904Y-52166666D01*
X25666666Y-52166666D01*
X25571428Y-52214285D01*
X25523809Y-52261904D01*
X25476190Y-52357142D01*
X25428571Y-52547619D01*
X25380952Y-52642857D01*
X25333333Y-52690476D01*
X25238095Y-52738095D01*
X25142857Y-52738095D01*
X25047619Y-52690476D01*
X25000000Y-52642857D01*
X24952380Y-52547619D01*
X24952380Y-52309523D01*
X25000000Y-52166666D01*
X25952380Y-51738095D02*
X24952380Y-51738095D01*
X24952380Y-51357142D01*
X25000000Y-51261904D01*
X25047619Y-51214285D01*
X25142857Y-51166666D01*
X25285714Y-51166666D01*
X25380952Y-51214285D01*
X25428571Y-51261904D01*
X25476190Y-51357142D01*
X25476190Y-51738095D01*
X25952380Y-50738095D02*
X24952380Y-50738095D01*
X24952380Y-50500000D01*
X25000000Y-50357142D01*
X25095238Y-50261904D01*
X25190476Y-50214285D01*
X25380952Y-50166666D01*
X25523809Y-50166666D01*
X25714285Y-50214285D01*
X25809523Y-50261904D01*
X25904761Y-50357142D01*
X25952380Y-50500000D01*
X25952380Y-50738095D01*
X24952380Y-49880952D02*
X24952380Y-49309523D01*
X25952380Y-49595238D02*
X24952380Y-49595238D01*
%TO.C,R6*%
X71333333Y-53952380D02*
X71000000Y-53476190D01*
X70761904Y-53952380D02*
X70761904Y-52952380D01*
X71142857Y-52952380D01*
X71238095Y-53000000D01*
X71285714Y-53047619D01*
X71333333Y-53142857D01*
X71333333Y-53285714D01*
X71285714Y-53380952D01*
X71238095Y-53428571D01*
X71142857Y-53476190D01*
X70761904Y-53476190D01*
X72190476Y-52952380D02*
X72000000Y-52952380D01*
X71904761Y-53000000D01*
X71857142Y-53047619D01*
X71761904Y-53190476D01*
X71714285Y-53380952D01*
X71714285Y-53761904D01*
X71761904Y-53857142D01*
X71809523Y-53904761D01*
X71904761Y-53952380D01*
X72095238Y-53952380D01*
X72190476Y-53904761D01*
X72238095Y-53857142D01*
X72285714Y-53761904D01*
X72285714Y-53523809D01*
X72238095Y-53428571D01*
X72190476Y-53380952D01*
X72095238Y-53333333D01*
X71904761Y-53333333D01*
X71809523Y-53380952D01*
X71761904Y-53428571D01*
X71714285Y-53523809D01*
X71238095Y-54785714D02*
X71238095Y-55452380D01*
X71000000Y-54404761D02*
X70761904Y-55119047D01*
X71380952Y-55119047D01*
X71666666Y-54452380D02*
X72333333Y-54452380D01*
X71904761Y-55452380D01*
X72904761Y-54452380D02*
X73000000Y-54452380D01*
X73095238Y-54500000D01*
X73142857Y-54547619D01*
X73190476Y-54642857D01*
X73238095Y-54833333D01*
X73238095Y-55071428D01*
X73190476Y-55261904D01*
X73142857Y-55357142D01*
X73095238Y-55404761D01*
X73000000Y-55452380D01*
X72904761Y-55452380D01*
X72809523Y-55404761D01*
X72761904Y-55357142D01*
X72714285Y-55261904D01*
X72666666Y-55071428D01*
X72666666Y-54833333D01*
X72714285Y-54642857D01*
X72761904Y-54547619D01*
X72809523Y-54500000D01*
X72904761Y-54452380D01*
X74238095Y-55452380D02*
X73904761Y-54976190D01*
X73666666Y-55452380D02*
X73666666Y-54452380D01*
X74047619Y-54452380D01*
X74142857Y-54500000D01*
X74190476Y-54547619D01*
X74238095Y-54642857D01*
X74238095Y-54785714D01*
X74190476Y-54880952D01*
X74142857Y-54928571D01*
X74047619Y-54976190D01*
X73666666Y-54976190D01*
%TO.C,D4*%
X32761904Y-51952380D02*
X32761904Y-50952380D01*
X33000000Y-50952380D01*
X33142857Y-51000000D01*
X33238095Y-51095238D01*
X33285714Y-51190476D01*
X33333333Y-51380952D01*
X33333333Y-51523809D01*
X33285714Y-51714285D01*
X33238095Y-51809523D01*
X33142857Y-51904761D01*
X33000000Y-51952380D01*
X32761904Y-51952380D01*
X34190476Y-51285714D02*
X34190476Y-51952380D01*
X33952380Y-50904761D02*
X33714285Y-51619047D01*
X34333333Y-51619047D01*
X26428571Y-58452380D02*
X26428571Y-57452380D01*
X26809523Y-57452380D01*
X26904761Y-57500000D01*
X26952380Y-57547619D01*
X27000000Y-57642857D01*
X27000000Y-57785714D01*
X26952380Y-57880952D01*
X26904761Y-57928571D01*
X26809523Y-57976190D01*
X26428571Y-57976190D01*
X27333333Y-57452380D02*
X27571428Y-58452380D01*
X27761904Y-57738095D01*
X27952380Y-58452380D01*
X28190476Y-57452380D01*
X29142857Y-58452380D02*
X28809523Y-57976190D01*
X28571428Y-58452380D02*
X28571428Y-57452380D01*
X28952380Y-57452380D01*
X29047619Y-57500000D01*
X29095238Y-57547619D01*
X29142857Y-57642857D01*
X29142857Y-57785714D01*
X29095238Y-57880952D01*
X29047619Y-57928571D01*
X28952380Y-57976190D01*
X28571428Y-57976190D01*
X29333333Y-58547619D02*
X30095238Y-58547619D01*
X30809523Y-58452380D02*
X30333333Y-58452380D01*
X30333333Y-57452380D01*
X31142857Y-57928571D02*
X31476190Y-57928571D01*
X31619047Y-58452380D02*
X31142857Y-58452380D01*
X31142857Y-57452380D01*
X31619047Y-57452380D01*
X32047619Y-58452380D02*
X32047619Y-57452380D01*
X32285714Y-57452380D01*
X32428571Y-57500000D01*
X32523809Y-57595238D01*
X32571428Y-57690476D01*
X32619047Y-57880952D01*
X32619047Y-58023809D01*
X32571428Y-58214285D01*
X32523809Y-58309523D01*
X32428571Y-58404761D01*
X32285714Y-58452380D01*
X32047619Y-58452380D01*
%TO.C,D2*%
X62761904Y-37952380D02*
X62761904Y-36952380D01*
X63000000Y-36952380D01*
X63142857Y-37000000D01*
X63238095Y-37095238D01*
X63285714Y-37190476D01*
X63333333Y-37380952D01*
X63333333Y-37523809D01*
X63285714Y-37714285D01*
X63238095Y-37809523D01*
X63142857Y-37904761D01*
X63000000Y-37952380D01*
X62761904Y-37952380D01*
X63714285Y-37047619D02*
X63761904Y-37000000D01*
X63857142Y-36952380D01*
X64095238Y-36952380D01*
X64190476Y-37000000D01*
X64238095Y-37047619D01*
X64285714Y-37142857D01*
X64285714Y-37238095D01*
X64238095Y-37380952D01*
X63666666Y-37952380D01*
X64285714Y-37952380D01*
D11*
%TO.C,T2*%
X154595238Y-12928571D02*
X154595238Y-14071428D01*
X152595238Y-13500000D02*
X154595238Y-13500000D01*
X152595238Y-15023809D02*
X152690476Y-14833333D01*
X152785714Y-14738095D01*
X152976190Y-14642857D01*
X153547619Y-14642857D01*
X153738095Y-14738095D01*
X153833333Y-14833333D01*
X153928571Y-15023809D01*
X153928571Y-15309523D01*
X153833333Y-15500000D01*
X153738095Y-15595238D01*
X153547619Y-15690476D01*
X152976190Y-15690476D01*
X152785714Y-15595238D01*
X152690476Y-15500000D01*
X152595238Y-15309523D01*
X152595238Y-15023809D01*
X152690476Y-16452380D02*
X152595238Y-16642857D01*
X152595238Y-17023809D01*
X152690476Y-17214285D01*
X152880952Y-17309523D01*
X152976190Y-17309523D01*
X153166666Y-17214285D01*
X153261904Y-17023809D01*
X153261904Y-16738095D01*
X153357142Y-16547619D01*
X153547619Y-16452380D01*
X153642857Y-16452380D01*
X153833333Y-16547619D01*
X153928571Y-16738095D01*
X153928571Y-17023809D01*
X153833333Y-17214285D01*
X152595238Y-18166666D02*
X154595238Y-18166666D01*
X152595238Y-19023809D02*
X153642857Y-19023809D01*
X153833333Y-18928571D01*
X153928571Y-18738095D01*
X153928571Y-18452380D01*
X153833333Y-18261904D01*
X153738095Y-18166666D01*
X152595238Y-19976190D02*
X153928571Y-19976190D01*
X154595238Y-19976190D02*
X154500000Y-19880952D01*
X154404761Y-19976190D01*
X154500000Y-20071428D01*
X154595238Y-19976190D01*
X154404761Y-19976190D01*
X152595238Y-20928571D02*
X154595238Y-20928571D01*
X153833333Y-20928571D02*
X153928571Y-21119047D01*
X153928571Y-21500000D01*
X153833333Y-21690476D01*
X153738095Y-21785714D01*
X153547619Y-21880952D01*
X152976190Y-21880952D01*
X152785714Y-21785714D01*
X152690476Y-21690476D01*
X152595238Y-21500000D01*
X152595238Y-21119047D01*
X152690476Y-20928571D01*
X152595238Y-23595238D02*
X153642857Y-23595238D01*
X153833333Y-23500000D01*
X153928571Y-23309523D01*
X153928571Y-22928571D01*
X153833333Y-22738095D01*
X152690476Y-23595238D02*
X152595238Y-23404761D01*
X152595238Y-22928571D01*
X152690476Y-22738095D01*
X152880952Y-22642857D01*
X153071428Y-22642857D01*
X153261904Y-22738095D01*
X153357142Y-22928571D01*
X153357142Y-23404761D01*
X153452380Y-23595238D01*
X154595238Y-25785714D02*
X154595238Y-26928571D01*
X152595238Y-26357142D02*
X154595238Y-26357142D01*
X152595238Y-28642857D02*
X152595238Y-27500000D01*
X152595238Y-28071428D02*
X154595238Y-28071428D01*
X154309523Y-27880952D01*
X154119047Y-27690476D01*
X154023809Y-27500000D01*
X154404761Y-29404761D02*
X154500000Y-29500000D01*
X154595238Y-29690476D01*
X154595238Y-30166666D01*
X154500000Y-30357142D01*
X154404761Y-30452380D01*
X154214285Y-30547619D01*
X154023809Y-30547619D01*
X153738095Y-30452380D01*
X152595238Y-29309523D01*
X152595238Y-30547619D01*
X154595238Y-31785714D02*
X154595238Y-31976190D01*
X154500000Y-32166666D01*
X154404761Y-32261904D01*
X154214285Y-32357142D01*
X153833333Y-32452380D01*
X153357142Y-32452380D01*
X152976190Y-32357142D01*
X152785714Y-32261904D01*
X152690476Y-32166666D01*
X152595238Y-31976190D01*
X152595238Y-31785714D01*
X152690476Y-31595238D01*
X152785714Y-31500000D01*
X152976190Y-31404761D01*
X153357142Y-31309523D01*
X153833333Y-31309523D01*
X154214285Y-31404761D01*
X154404761Y-31500000D01*
X154500000Y-31595238D01*
X154595238Y-31785714D01*
X154595238Y-33690476D02*
X154595238Y-33880952D01*
X154500000Y-34071428D01*
X154404761Y-34166666D01*
X154214285Y-34261904D01*
X153833333Y-34357142D01*
X153357142Y-34357142D01*
X152976190Y-34261904D01*
X152785714Y-34166666D01*
X152690476Y-34071428D01*
X152595238Y-33880952D01*
X152595238Y-33690476D01*
X152690476Y-33500000D01*
X152785714Y-33404761D01*
X152976190Y-33309523D01*
X153357142Y-33214285D01*
X153833333Y-33214285D01*
X154214285Y-33309523D01*
X154404761Y-33404761D01*
X154500000Y-33500000D01*
X154595238Y-33690476D01*
X152595238Y-36738095D02*
X154595238Y-36738095D01*
X154595238Y-37499999D01*
X154500000Y-37690476D01*
X154404761Y-37785714D01*
X154214285Y-37880952D01*
X153928571Y-37880952D01*
X153738095Y-37785714D01*
X153642857Y-37690476D01*
X153547619Y-37499999D01*
X153547619Y-36738095D01*
X152690476Y-38642857D02*
X152595238Y-38928571D01*
X152595238Y-39404761D01*
X152690476Y-39595238D01*
X152785714Y-39690476D01*
X152976190Y-39785714D01*
X153166666Y-39785714D01*
X153357142Y-39690476D01*
X153452380Y-39595238D01*
X153547619Y-39404761D01*
X153642857Y-39023809D01*
X153738095Y-38833333D01*
X153833333Y-38738095D01*
X154023809Y-38642857D01*
X154214285Y-38642857D01*
X154404761Y-38738095D01*
X154500000Y-38833333D01*
X154595238Y-39023809D01*
X154595238Y-39499999D01*
X154500000Y-39785714D01*
X154595238Y-40642857D02*
X152976190Y-40642857D01*
X152785714Y-40738095D01*
X152690476Y-40833333D01*
X152595238Y-41023809D01*
X152595238Y-41404761D01*
X152690476Y-41595238D01*
X152785714Y-41690476D01*
X152976190Y-41785714D01*
X154595238Y-41785714D01*
D10*
%TO.C,C4*%
X65707142Y-29666666D02*
X65754761Y-29714285D01*
X65802380Y-29857142D01*
X65802380Y-29952380D01*
X65754761Y-30095238D01*
X65659523Y-30190476D01*
X65564285Y-30238095D01*
X65373809Y-30285714D01*
X65230952Y-30285714D01*
X65040476Y-30238095D01*
X64945238Y-30190476D01*
X64850000Y-30095238D01*
X64802380Y-29952380D01*
X64802380Y-29857142D01*
X64850000Y-29714285D01*
X64897619Y-29666666D01*
X65135714Y-28809523D02*
X65802380Y-28809523D01*
X64754761Y-29047619D02*
X65469047Y-29285714D01*
X65469047Y-28666666D01*
X66952380Y-29595238D02*
X66952380Y-30166666D01*
X66952380Y-29880952D02*
X65952380Y-29880952D01*
X66095238Y-29976190D01*
X66190476Y-30071428D01*
X66238095Y-30166666D01*
X66285714Y-28738095D02*
X66952380Y-28738095D01*
X66285714Y-29166666D02*
X66809523Y-29166666D01*
X66904761Y-29119047D01*
X66952380Y-29023809D01*
X66952380Y-28880952D01*
X66904761Y-28785714D01*
X66857142Y-28738095D01*
X66428571Y-27928571D02*
X66428571Y-28261904D01*
X66952380Y-28261904D02*
X65952380Y-28261904D01*
X65952380Y-27785714D01*
D13*
%TO.C,T1*%
X149547619Y-13928571D02*
X150023809Y-13595238D01*
X149547619Y-13357142D02*
X150547619Y-13357142D01*
X150547619Y-13738095D01*
X150500000Y-13833333D01*
X150452380Y-13880952D01*
X150357142Y-13928571D01*
X150214285Y-13928571D01*
X150119047Y-13880952D01*
X150071428Y-13833333D01*
X150023809Y-13738095D01*
X150023809Y-13357142D01*
X149595238Y-14738095D02*
X149547619Y-14642857D01*
X149547619Y-14452380D01*
X149595238Y-14357142D01*
X149690476Y-14309523D01*
X150071428Y-14309523D01*
X150166666Y-14357142D01*
X150214285Y-14452380D01*
X150214285Y-14642857D01*
X150166666Y-14738095D01*
X150071428Y-14785714D01*
X149976190Y-14785714D01*
X149880952Y-14309523D01*
X150214285Y-15119047D02*
X149547619Y-15357142D01*
X150214285Y-15595238D01*
X149547619Y-17261904D02*
X149547619Y-16690476D01*
X149547619Y-16976190D02*
X150547619Y-16976190D01*
X150404761Y-16880952D01*
X150309523Y-16785714D01*
X150261904Y-16690476D01*
X149642857Y-17690476D02*
X149595238Y-17738095D01*
X149547619Y-17690476D01*
X149595238Y-17642857D01*
X149642857Y-17690476D01*
X149547619Y-17690476D01*
X150547619Y-18357142D02*
X150547619Y-18452380D01*
X150500000Y-18547619D01*
X150452380Y-18595238D01*
X150357142Y-18642857D01*
X150166666Y-18690476D01*
X149928571Y-18690476D01*
X149738095Y-18642857D01*
X149642857Y-18595238D01*
X149595238Y-18547619D01*
X149547619Y-18452380D01*
X149547619Y-18357142D01*
X149595238Y-18261904D01*
X149642857Y-18214285D01*
X149738095Y-18166666D01*
X149928571Y-18119047D01*
X150166666Y-18119047D01*
X150357142Y-18166666D01*
X150452380Y-18214285D01*
X150500000Y-18261904D01*
X150547619Y-18357142D01*
D10*
%TO.C,C1*%
X36829742Y-60666666D02*
X36877361Y-60714285D01*
X36924980Y-60857142D01*
X36924980Y-60952380D01*
X36877361Y-61095238D01*
X36782123Y-61190476D01*
X36686885Y-61238095D01*
X36496409Y-61285714D01*
X36353552Y-61285714D01*
X36163076Y-61238095D01*
X36067838Y-61190476D01*
X35972600Y-61095238D01*
X35924980Y-60952380D01*
X35924980Y-60857142D01*
X35972600Y-60714285D01*
X36020219Y-60666666D01*
X36924980Y-59714285D02*
X36924980Y-60285714D01*
X36924980Y-60000000D02*
X35924980Y-60000000D01*
X36067838Y-60095238D01*
X36163076Y-60190476D01*
X36210695Y-60285714D01*
X29785714Y-61904761D02*
X30452380Y-61904761D01*
X29404761Y-62142857D02*
X30119047Y-62380952D01*
X30119047Y-61761904D01*
X30357142Y-61380952D02*
X30404761Y-61333333D01*
X30452380Y-61380952D01*
X30404761Y-61428571D01*
X30357142Y-61380952D01*
X30452380Y-61380952D01*
X29452380Y-61000000D02*
X29452380Y-60333333D01*
X30452380Y-60761904D01*
X29785714Y-59523809D02*
X30452380Y-59523809D01*
X29785714Y-59952380D02*
X30309523Y-59952380D01*
X30404761Y-59904761D01*
X30452380Y-59809523D01*
X30452380Y-59666666D01*
X30404761Y-59571428D01*
X30357142Y-59523809D01*
X29928571Y-58714285D02*
X29928571Y-59047619D01*
X30452380Y-59047619D02*
X29452380Y-59047619D01*
X29452380Y-58571428D01*
%TO.C,PJ4*%
X50452380Y-68119047D02*
X49452380Y-68119047D01*
X49452380Y-67738095D01*
X49500000Y-67642857D01*
X49547619Y-67595238D01*
X49642857Y-67547619D01*
X49785714Y-67547619D01*
X49880952Y-67595238D01*
X49928571Y-67642857D01*
X49976190Y-67738095D01*
X49976190Y-68119047D01*
X49452380Y-66833333D02*
X50166666Y-66833333D01*
X50309523Y-66880952D01*
X50404761Y-66976190D01*
X50452380Y-67119047D01*
X50452380Y-67214285D01*
X49785714Y-65928571D02*
X50452380Y-65928571D01*
X49404761Y-66166666D02*
X50119047Y-66404761D01*
X50119047Y-65785714D01*
X29238095Y-63952380D02*
X28666666Y-63952380D01*
X28952380Y-63952380D02*
X28952380Y-62952380D01*
X28857142Y-63095238D01*
X28761904Y-63190476D01*
X28666666Y-63238095D01*
X29619047Y-63047619D02*
X29666666Y-63000000D01*
X29761904Y-62952380D01*
X29999999Y-62952380D01*
X30095238Y-63000000D01*
X30142857Y-63047619D01*
X30190476Y-63142857D01*
X30190476Y-63238095D01*
X30142857Y-63380952D01*
X29571428Y-63952380D01*
X30190476Y-63952380D01*
X30619047Y-63571428D02*
X31380952Y-63571428D01*
X31857142Y-63285714D02*
X31857142Y-64285714D01*
X31857142Y-63333333D02*
X31952380Y-63285714D01*
X32142857Y-63285714D01*
X32238095Y-63333333D01*
X32285714Y-63380952D01*
X32333333Y-63476190D01*
X32333333Y-63761904D01*
X32285714Y-63857142D01*
X32238095Y-63904761D01*
X32142857Y-63952380D01*
X31952380Y-63952380D01*
X31857142Y-63904761D01*
X32761904Y-63952380D02*
X32761904Y-63285714D01*
X32761904Y-62952380D02*
X32714285Y-63000000D01*
X32761904Y-63047619D01*
X32809523Y-63000000D01*
X32761904Y-62952380D01*
X32761904Y-63047619D01*
X33238095Y-63285714D02*
X33238095Y-63952380D01*
X33238095Y-63380952D02*
X33285714Y-63333333D01*
X33380952Y-63285714D01*
X33523809Y-63285714D01*
X33619047Y-63333333D01*
X33666666Y-63428571D01*
X33666666Y-63952380D01*
X35095238Y-62952380D02*
X35285714Y-62952380D01*
X35380952Y-63000000D01*
X35476190Y-63095238D01*
X35523809Y-63285714D01*
X35523809Y-63619047D01*
X35476190Y-63809523D01*
X35380952Y-63904761D01*
X35285714Y-63952380D01*
X35095238Y-63952380D01*
X35000000Y-63904761D01*
X34904761Y-63809523D01*
X34857142Y-63619047D01*
X34857142Y-63285714D01*
X34904761Y-63095238D01*
X35000000Y-63000000D01*
X35095238Y-62952380D01*
X36380952Y-63285714D02*
X36380952Y-63952380D01*
X35952380Y-63285714D02*
X35952380Y-63809523D01*
X36000000Y-63904761D01*
X36095238Y-63952380D01*
X36238095Y-63952380D01*
X36333333Y-63904761D01*
X36380952Y-63857142D01*
X36714285Y-63285714D02*
X37095238Y-63285714D01*
X36857142Y-62952380D02*
X36857142Y-63809523D01*
X36904761Y-63904761D01*
X37000000Y-63952380D01*
X37095238Y-63952380D01*
X37428571Y-63285714D02*
X37428571Y-64285714D01*
X37428571Y-63333333D02*
X37523809Y-63285714D01*
X37714285Y-63285714D01*
X37809523Y-63333333D01*
X37857142Y-63380952D01*
X37904761Y-63476190D01*
X37904761Y-63761904D01*
X37857142Y-63857142D01*
X37809523Y-63904761D01*
X37714285Y-63952380D01*
X37523809Y-63952380D01*
X37428571Y-63904761D01*
X38761904Y-63285714D02*
X38761904Y-63952380D01*
X38333333Y-63285714D02*
X38333333Y-63809523D01*
X38380952Y-63904761D01*
X38476190Y-63952380D01*
X38619047Y-63952380D01*
X38714285Y-63904761D01*
X38761904Y-63857142D01*
X39095238Y-63285714D02*
X39476190Y-63285714D01*
X39238095Y-62952380D02*
X39238095Y-63809523D01*
X39285714Y-63904761D01*
X39380952Y-63952380D01*
X39476190Y-63952380D01*
X40571428Y-63952380D02*
X40571428Y-62952380D01*
X40571428Y-63428571D02*
X41142857Y-63428571D01*
X41142857Y-63952380D02*
X41142857Y-62952380D01*
X42000000Y-63904761D02*
X41904761Y-63952380D01*
X41714285Y-63952380D01*
X41619047Y-63904761D01*
X41571428Y-63809523D01*
X41571428Y-63428571D01*
X41619047Y-63333333D01*
X41714285Y-63285714D01*
X41904761Y-63285714D01*
X42000000Y-63333333D01*
X42047619Y-63428571D01*
X42047619Y-63523809D01*
X41571428Y-63619047D01*
X42904761Y-63952380D02*
X42904761Y-63428571D01*
X42857142Y-63333333D01*
X42761904Y-63285714D01*
X42571428Y-63285714D01*
X42476190Y-63333333D01*
X42904761Y-63904761D02*
X42809523Y-63952380D01*
X42571428Y-63952380D01*
X42476190Y-63904761D01*
X42428571Y-63809523D01*
X42428571Y-63714285D01*
X42476190Y-63619047D01*
X42571428Y-63571428D01*
X42809523Y-63571428D01*
X42904761Y-63523809D01*
X43809523Y-63952380D02*
X43809523Y-62952380D01*
X43809523Y-63904761D02*
X43714285Y-63952380D01*
X43523809Y-63952380D01*
X43428571Y-63904761D01*
X43380952Y-63857142D01*
X43333333Y-63761904D01*
X43333333Y-63476190D01*
X43380952Y-63380952D01*
X43428571Y-63333333D01*
X43523809Y-63285714D01*
X43714285Y-63285714D01*
X43809523Y-63333333D01*
X44666666Y-63904761D02*
X44571428Y-63952380D01*
X44380952Y-63952380D01*
X44285714Y-63904761D01*
X44238095Y-63809523D01*
X44238095Y-63428571D01*
X44285714Y-63333333D01*
X44380952Y-63285714D01*
X44571428Y-63285714D01*
X44666666Y-63333333D01*
X44714285Y-63428571D01*
X44714285Y-63523809D01*
X44238095Y-63619047D01*
X45142857Y-63952380D02*
X45142857Y-63285714D01*
X45142857Y-63476190D02*
X45190476Y-63380952D01*
X45238095Y-63333333D01*
X45333333Y-63285714D01*
X45428571Y-63285714D01*
%TO.C,TP1*%
X28452380Y-17619047D02*
X28452380Y-18190476D01*
X28452380Y-17904761D02*
X27452380Y-17904761D01*
X27595238Y-18000000D01*
X27690476Y-18095238D01*
X27738095Y-18190476D01*
X27547619Y-17238095D02*
X27500000Y-17190476D01*
X27452380Y-17095238D01*
X27452380Y-16857142D01*
X27500000Y-16761904D01*
X27547619Y-16714285D01*
X27642857Y-16666666D01*
X27738095Y-16666666D01*
X27880952Y-16714285D01*
X28452380Y-17285714D01*
X28452380Y-16666666D01*
X27452380Y-16380952D02*
X28452380Y-16047619D01*
X27452380Y-15714285D01*
%TO.C,TP4*%
X33071428Y-19261904D02*
X33071428Y-18500000D01*
X32547619Y-18071428D02*
X32500000Y-18023809D01*
X32452380Y-17928571D01*
X32452380Y-17690476D01*
X32500000Y-17595238D01*
X32547619Y-17547619D01*
X32642857Y-17500000D01*
X32738095Y-17500000D01*
X32880952Y-17547619D01*
X33452380Y-18119047D01*
X33452380Y-17500000D01*
X32547619Y-17119047D02*
X32500000Y-17071428D01*
X32452380Y-16976190D01*
X32452380Y-16738095D01*
X32500000Y-16642857D01*
X32547619Y-16595238D01*
X32642857Y-16547619D01*
X32738095Y-16547619D01*
X32880952Y-16595238D01*
X33452380Y-17166666D01*
X33452380Y-16547619D01*
X32452380Y-16261904D02*
X33452380Y-15928571D01*
X32452380Y-15595238D01*
%TO.C,PS1*%
X121531714Y-36548380D02*
X121531714Y-35548380D01*
X121912666Y-35548380D01*
X122007904Y-35596000D01*
X122055523Y-35643619D01*
X122103142Y-35738857D01*
X122103142Y-35881714D01*
X122055523Y-35976952D01*
X122007904Y-36024571D01*
X121912666Y-36072190D01*
X121531714Y-36072190D01*
X122484095Y-36500761D02*
X122626952Y-36548380D01*
X122865047Y-36548380D01*
X122960285Y-36500761D01*
X123007904Y-36453142D01*
X123055523Y-36357904D01*
X123055523Y-36262666D01*
X123007904Y-36167428D01*
X122960285Y-36119809D01*
X122865047Y-36072190D01*
X122674571Y-36024571D01*
X122579333Y-35976952D01*
X122531714Y-35929333D01*
X122484095Y-35834095D01*
X122484095Y-35738857D01*
X122531714Y-35643619D01*
X122579333Y-35596000D01*
X122674571Y-35548380D01*
X122912666Y-35548380D01*
X123055523Y-35596000D01*
X124007904Y-36548380D02*
X123436476Y-36548380D01*
X123722190Y-36548380D02*
X123722190Y-35548380D01*
X123626952Y-35691238D01*
X123531714Y-35786476D01*
X123436476Y-35834095D01*
%TO.C,TP2*%
X35521428Y-22190476D02*
X35521428Y-21428571D01*
X35902380Y-21809523D02*
X35140476Y-21809523D01*
X34902380Y-20476190D02*
X34902380Y-20952380D01*
X35378571Y-21000000D01*
X35330952Y-20952380D01*
X35283333Y-20857142D01*
X35283333Y-20619047D01*
X35330952Y-20523809D01*
X35378571Y-20476190D01*
X35473809Y-20428571D01*
X35711904Y-20428571D01*
X35807142Y-20476190D01*
X35854761Y-20523809D01*
X35902380Y-20619047D01*
X35902380Y-20857142D01*
X35854761Y-20952380D01*
X35807142Y-21000000D01*
X34902380Y-20142857D02*
X35902380Y-19809523D01*
X34902380Y-19476190D01*
X35902380Y-18380952D02*
X34902380Y-18380952D01*
X35378571Y-18380952D02*
X35378571Y-17809523D01*
X35902380Y-17809523D02*
X34902380Y-17809523D01*
X35902380Y-17333333D02*
X34902380Y-17333333D01*
X34902380Y-17095238D01*
X34950000Y-16952380D01*
X35045238Y-16857142D01*
X35140476Y-16809523D01*
X35330952Y-16761904D01*
X35473809Y-16761904D01*
X35664285Y-16809523D01*
X35759523Y-16857142D01*
X35854761Y-16952380D01*
X35902380Y-17095238D01*
X35902380Y-17333333D01*
X35902380Y-16333333D02*
X34902380Y-16333333D01*
X34902380Y-16095238D01*
X34950000Y-15952380D01*
X35045238Y-15857142D01*
X35140476Y-15809523D01*
X35330952Y-15761904D01*
X35473809Y-15761904D01*
X35664285Y-15809523D01*
X35759523Y-15857142D01*
X35854761Y-15952380D01*
X35902380Y-16095238D01*
X35902380Y-16333333D01*
%TO.C,PJ1*%
X16880952Y-32452380D02*
X16880952Y-31452380D01*
X17261904Y-31452380D01*
X17357142Y-31500000D01*
X17404761Y-31547619D01*
X17452380Y-31642857D01*
X17452380Y-31785714D01*
X17404761Y-31880952D01*
X17357142Y-31928571D01*
X17261904Y-31976190D01*
X16880952Y-31976190D01*
X18166666Y-31452380D02*
X18166666Y-32166666D01*
X18119047Y-32309523D01*
X18023809Y-32404761D01*
X17880952Y-32452380D01*
X17785714Y-32452380D01*
X19166666Y-32452380D02*
X18595238Y-32452380D01*
X18880952Y-32452380D02*
X18880952Y-31452380D01*
X18785714Y-31595238D01*
X18690476Y-31690476D01*
X18595238Y-31738095D01*
X28071428Y-42023809D02*
X28071428Y-41261904D01*
X28452380Y-41642857D02*
X27690476Y-41642857D01*
X28452380Y-40261904D02*
X28452380Y-40833333D01*
X28452380Y-40547619D02*
X27452380Y-40547619D01*
X27595238Y-40642857D01*
X27690476Y-40738095D01*
X27738095Y-40833333D01*
X27547619Y-39880952D02*
X27500000Y-39833333D01*
X27452380Y-39738095D01*
X27452380Y-39500000D01*
X27500000Y-39404761D01*
X27547619Y-39357142D01*
X27642857Y-39309523D01*
X27738095Y-39309523D01*
X27880952Y-39357142D01*
X28452380Y-39928571D01*
X28452380Y-39309523D01*
X27452380Y-39023809D02*
X28452380Y-38690476D01*
X27452380Y-38357142D01*
X28452380Y-37261904D02*
X27452380Y-37261904D01*
X27785714Y-36785714D02*
X28452380Y-36785714D01*
X27880952Y-36785714D02*
X27833333Y-36738095D01*
X27785714Y-36642857D01*
X27785714Y-36500000D01*
X27833333Y-36404761D01*
X27928571Y-36357142D01*
X28452380Y-36357142D01*
X27785714Y-35880952D02*
X28785714Y-35880952D01*
X27833333Y-35880952D02*
X27785714Y-35785714D01*
X27785714Y-35595238D01*
X27833333Y-35500000D01*
X27880952Y-35452380D01*
X27976190Y-35404761D01*
X28261904Y-35404761D01*
X28357142Y-35452380D01*
X28404761Y-35500000D01*
X28452380Y-35595238D01*
X28452380Y-35785714D01*
X28404761Y-35880952D01*
X27785714Y-34547619D02*
X28452380Y-34547619D01*
X27785714Y-34976190D02*
X28309523Y-34976190D01*
X28404761Y-34928571D01*
X28452380Y-34833333D01*
X28452380Y-34690476D01*
X28404761Y-34595238D01*
X28357142Y-34547619D01*
X27785714Y-34214285D02*
X27785714Y-33833333D01*
X27452380Y-34071428D02*
X28309523Y-34071428D01*
X28404761Y-34023809D01*
X28452380Y-33928571D01*
X28452380Y-33833333D01*
D14*
%TO.C,T3*%
X151047619Y-13119613D02*
X152047619Y-13244613D01*
X151047619Y-13655327D02*
X151571428Y-13720803D01*
X151666666Y-13673184D01*
X151714285Y-13560089D01*
X151714285Y-13381517D01*
X151666666Y-13256517D01*
X151619047Y-13191041D01*
X151714285Y-14155327D02*
X151714285Y-14631517D01*
X152047619Y-14375565D02*
X151190476Y-14268422D01*
X151095238Y-14316041D01*
X151047619Y-14429136D01*
X151047619Y-14548184D01*
X151714285Y-14869613D02*
X151714285Y-15345803D01*
X152047619Y-15089851D02*
X151190476Y-14982708D01*
X151095238Y-15030327D01*
X151047619Y-15143422D01*
X151047619Y-15262470D01*
X151714285Y-15762470D02*
X150714285Y-15637470D01*
X151666666Y-15756517D02*
X151714285Y-15881517D01*
X151714285Y-16119613D01*
X151666666Y-16232708D01*
X151619047Y-16286279D01*
X151523809Y-16333898D01*
X151238095Y-16298184D01*
X151142857Y-16226755D01*
X151095238Y-16161279D01*
X151047619Y-16036279D01*
X151047619Y-15798184D01*
X151095238Y-15685089D01*
X151095238Y-16756517D02*
X151047619Y-16869613D01*
X151047619Y-17107708D01*
X151095238Y-17232708D01*
X151190476Y-17304136D01*
X151238095Y-17310089D01*
X151333333Y-17262470D01*
X151380952Y-17149375D01*
X151380952Y-16970803D01*
X151428571Y-16857708D01*
X151523809Y-16810089D01*
X151571428Y-16816041D01*
X151666666Y-16887470D01*
X151714285Y-17012470D01*
X151714285Y-17191041D01*
X151666666Y-17304136D01*
X151142857Y-17833898D02*
X151095238Y-17887470D01*
X151047619Y-17821994D01*
X151095238Y-17768422D01*
X151142857Y-17833898D01*
X151047619Y-17821994D01*
X151666666Y-17899375D02*
X151619047Y-17952946D01*
X151571428Y-17887470D01*
X151619047Y-17833898D01*
X151666666Y-17899375D01*
X151571428Y-17887470D01*
X152095238Y-19441041D02*
X150809523Y-18208898D01*
X152095238Y-20750565D02*
X150809523Y-19518422D01*
X151714285Y-21655327D02*
X150904761Y-21554136D01*
X150809523Y-21482708D01*
X150761904Y-21417232D01*
X150714285Y-21292232D01*
X150714285Y-21113660D01*
X150761904Y-21000565D01*
X151095238Y-21577946D02*
X151047619Y-21452946D01*
X151047619Y-21214851D01*
X151095238Y-21101755D01*
X151142857Y-21048184D01*
X151238095Y-21000565D01*
X151523809Y-21036279D01*
X151619047Y-21107708D01*
X151666666Y-21173184D01*
X151714285Y-21298184D01*
X151714285Y-21536279D01*
X151666666Y-21649375D01*
X151047619Y-22167232D02*
X151714285Y-22250565D01*
X152047619Y-22292232D02*
X152000000Y-22226755D01*
X151952380Y-22280327D01*
X152000000Y-22345803D01*
X152047619Y-22292232D01*
X151952380Y-22280327D01*
X151714285Y-22667232D02*
X151714285Y-23143422D01*
X152047619Y-22887470D02*
X151190476Y-22780327D01*
X151095238Y-22827946D01*
X151047619Y-22941041D01*
X151047619Y-23060089D01*
X151047619Y-23476755D02*
X152047619Y-23601755D01*
X151047619Y-24012470D02*
X151571428Y-24077946D01*
X151666666Y-24030327D01*
X151714285Y-23917232D01*
X151714285Y-23738660D01*
X151666666Y-23613660D01*
X151619047Y-23548184D01*
X151714285Y-25226755D02*
X151047619Y-25143422D01*
X151714285Y-24691041D02*
X151190476Y-24625565D01*
X151095238Y-24673184D01*
X151047619Y-24786279D01*
X151047619Y-24964851D01*
X151095238Y-25089851D01*
X151142857Y-25155327D01*
X151047619Y-25738660D02*
X152047619Y-25863660D01*
X151666666Y-25816041D02*
X151714285Y-25941041D01*
X151714285Y-26179136D01*
X151666666Y-26292232D01*
X151619047Y-26345803D01*
X151523809Y-26393422D01*
X151238095Y-26357708D01*
X151142857Y-26286279D01*
X151095238Y-26220803D01*
X151047619Y-26095803D01*
X151047619Y-25857708D01*
X151095238Y-25744613D01*
X151142857Y-26881517D02*
X151095238Y-26935089D01*
X151047619Y-26869613D01*
X151095238Y-26816041D01*
X151142857Y-26881517D01*
X151047619Y-26869613D01*
X151095238Y-28006517D02*
X151047619Y-27881517D01*
X151047619Y-27643422D01*
X151095238Y-27530327D01*
X151142857Y-27476755D01*
X151238095Y-27429136D01*
X151523809Y-27464851D01*
X151619047Y-27536279D01*
X151666666Y-27601755D01*
X151714285Y-27726755D01*
X151714285Y-27964851D01*
X151666666Y-28077946D01*
X151047619Y-28714851D02*
X151095238Y-28601755D01*
X151142857Y-28548184D01*
X151238095Y-28500565D01*
X151523809Y-28536279D01*
X151619047Y-28607708D01*
X151666666Y-28673184D01*
X151714285Y-28798184D01*
X151714285Y-28976755D01*
X151666666Y-29089851D01*
X151619047Y-29143422D01*
X151523809Y-29191041D01*
X151238095Y-29155327D01*
X151142857Y-29083898D01*
X151095238Y-29018422D01*
X151047619Y-28893422D01*
X151047619Y-28714851D01*
X151047619Y-29667232D02*
X151714285Y-29750565D01*
X151619047Y-29738660D02*
X151666666Y-29804136D01*
X151714285Y-29929136D01*
X151714285Y-30107708D01*
X151666666Y-30220803D01*
X151571428Y-30268422D01*
X151047619Y-30202946D01*
X151571428Y-30268422D02*
X151666666Y-30339851D01*
X151714285Y-30464851D01*
X151714285Y-30643422D01*
X151666666Y-30756517D01*
X151571428Y-30804136D01*
X151047619Y-30738660D01*
X152095238Y-32357708D02*
X150809523Y-31125565D01*
X151571428Y-33125565D02*
X151523809Y-33298184D01*
X151476190Y-33351755D01*
X151380952Y-33399375D01*
X151238095Y-33381517D01*
X151142857Y-33310089D01*
X151095238Y-33244613D01*
X151047619Y-33119613D01*
X151047619Y-32643422D01*
X152047619Y-32768422D01*
X152047619Y-33185089D01*
X152000000Y-33298184D01*
X151952380Y-33351755D01*
X151857142Y-33399375D01*
X151761904Y-33387470D01*
X151666666Y-33316041D01*
X151619047Y-33250565D01*
X151571428Y-33125565D01*
X151571428Y-32708898D01*
X151047619Y-34429136D02*
X151571428Y-34494613D01*
X151666666Y-34446994D01*
X151714285Y-34333898D01*
X151714285Y-34095803D01*
X151666666Y-33970803D01*
X151095238Y-34435089D02*
X151047619Y-34310089D01*
X151047619Y-34012470D01*
X151095238Y-33899375D01*
X151190476Y-33851755D01*
X151285714Y-33863660D01*
X151380952Y-33935089D01*
X151428571Y-34060089D01*
X151428571Y-34357708D01*
X151476190Y-34482708D01*
X151095238Y-34970803D02*
X151047619Y-35083898D01*
X151047619Y-35321994D01*
X151095238Y-35446994D01*
X151190476Y-35518422D01*
X151238095Y-35524375D01*
X151333333Y-35476755D01*
X151380952Y-35363660D01*
X151380952Y-35185089D01*
X151428571Y-35071994D01*
X151523809Y-35024375D01*
X151571428Y-35030327D01*
X151666666Y-35101755D01*
X151714285Y-35226755D01*
X151714285Y-35405327D01*
X151666666Y-35518422D01*
X151047619Y-36036279D02*
X151714285Y-36119613D01*
X152047619Y-36161279D02*
X152000000Y-36095803D01*
X151952380Y-36149375D01*
X152000000Y-36214851D01*
X152047619Y-36161279D01*
X151952380Y-36149375D01*
X151095238Y-37173184D02*
X151047619Y-37048184D01*
X151047619Y-36810089D01*
X151095238Y-36696994D01*
X151142857Y-36643422D01*
X151238095Y-36595803D01*
X151523809Y-36631517D01*
X151619047Y-36702946D01*
X151666666Y-36768422D01*
X151714285Y-36893422D01*
X151714285Y-37131517D01*
X151666666Y-37244613D01*
X151142857Y-38429136D02*
X151095238Y-38363660D01*
X151047619Y-38179136D01*
X151047619Y-38060089D01*
X151095238Y-37887470D01*
X151190476Y-37780327D01*
X151285714Y-37732708D01*
X151476190Y-37696994D01*
X151619047Y-37714851D01*
X151809523Y-37798184D01*
X151904761Y-37869613D01*
X152000000Y-38000565D01*
X152047619Y-38185089D01*
X152047619Y-38304136D01*
X152000000Y-38476755D01*
X151952380Y-38530327D01*
X151047619Y-39131517D02*
X151095238Y-39018422D01*
X151142857Y-38964851D01*
X151238095Y-38917232D01*
X151523809Y-38952946D01*
X151619047Y-39024375D01*
X151666666Y-39089851D01*
X151714285Y-39214851D01*
X151714285Y-39393422D01*
X151666666Y-39506517D01*
X151619047Y-39560089D01*
X151523809Y-39607708D01*
X151238095Y-39571994D01*
X151142857Y-39500565D01*
X151095238Y-39435089D01*
X151047619Y-39310089D01*
X151047619Y-39131517D01*
X151047619Y-40619613D02*
X152047619Y-40744613D01*
X151095238Y-40625565D02*
X151047619Y-40500565D01*
X151047619Y-40262470D01*
X151095238Y-40149375D01*
X151142857Y-40095803D01*
X151238095Y-40048184D01*
X151523809Y-40083898D01*
X151619047Y-40155327D01*
X151666666Y-40220803D01*
X151714285Y-40345803D01*
X151714285Y-40583898D01*
X151666666Y-40696994D01*
X151095238Y-41696994D02*
X151047619Y-41571994D01*
X151047619Y-41333898D01*
X151095238Y-41220803D01*
X151190476Y-41173184D01*
X151571428Y-41220803D01*
X151666666Y-41292232D01*
X151714285Y-41417232D01*
X151714285Y-41655327D01*
X151666666Y-41768422D01*
X151571428Y-41816041D01*
X151476190Y-41804136D01*
X151380952Y-41196994D01*
D10*
%TO.C,PJ6*%
X147880952Y-65452380D02*
X147880952Y-64452380D01*
X148261904Y-64452380D01*
X148357142Y-64500000D01*
X148404761Y-64547619D01*
X148452380Y-64642857D01*
X148452380Y-64785714D01*
X148404761Y-64880952D01*
X148357142Y-64928571D01*
X148261904Y-64976190D01*
X147880952Y-64976190D01*
X149166666Y-64452380D02*
X149166666Y-65166666D01*
X149119047Y-65309523D01*
X149023809Y-65404761D01*
X148880952Y-65452380D01*
X148785714Y-65452380D01*
X150071428Y-64452380D02*
X149880952Y-64452380D01*
X149785714Y-64500000D01*
X149738095Y-64547619D01*
X149642857Y-64690476D01*
X149595238Y-64880952D01*
X149595238Y-65261904D01*
X149642857Y-65357142D01*
X149690476Y-65404761D01*
X149785714Y-65452380D01*
X149976190Y-65452380D01*
X150071428Y-65404761D01*
X150119047Y-65357142D01*
X150166666Y-65261904D01*
X150166666Y-65023809D01*
X150119047Y-64928571D01*
X150071428Y-64880952D01*
X149976190Y-64833333D01*
X149785714Y-64833333D01*
X149690476Y-64880952D01*
X149642857Y-64928571D01*
X149595238Y-65023809D01*
X138785714Y-63904761D02*
X138928571Y-63952380D01*
X139166666Y-63952380D01*
X139261904Y-63904761D01*
X139309523Y-63857142D01*
X139357142Y-63761904D01*
X139357142Y-63666666D01*
X139309523Y-63571428D01*
X139261904Y-63523809D01*
X139166666Y-63476190D01*
X138976190Y-63428571D01*
X138880952Y-63380952D01*
X138833333Y-63333333D01*
X138785714Y-63238095D01*
X138785714Y-63142857D01*
X138833333Y-63047619D01*
X138880952Y-63000000D01*
X138976190Y-62952380D01*
X139214285Y-62952380D01*
X139357142Y-63000000D01*
X139690476Y-63285714D02*
X139928571Y-63952380D01*
X140166666Y-63285714D02*
X139928571Y-63952380D01*
X139833333Y-64190476D01*
X139785714Y-64238095D01*
X139690476Y-64285714D01*
X140500000Y-63904761D02*
X140595238Y-63952380D01*
X140785714Y-63952380D01*
X140880952Y-63904761D01*
X140928571Y-63809523D01*
X140928571Y-63761904D01*
X140880952Y-63666666D01*
X140785714Y-63619047D01*
X140642857Y-63619047D01*
X140547619Y-63571428D01*
X140500000Y-63476190D01*
X140500000Y-63428571D01*
X140547619Y-63333333D01*
X140642857Y-63285714D01*
X140785714Y-63285714D01*
X140880952Y-63333333D01*
X141214285Y-63285714D02*
X141595238Y-63285714D01*
X141357142Y-62952380D02*
X141357142Y-63809523D01*
X141404761Y-63904761D01*
X141500000Y-63952380D01*
X141595238Y-63952380D01*
X142309523Y-63904761D02*
X142214285Y-63952380D01*
X142023809Y-63952380D01*
X141928571Y-63904761D01*
X141880952Y-63809523D01*
X141880952Y-63428571D01*
X141928571Y-63333333D01*
X142023809Y-63285714D01*
X142214285Y-63285714D01*
X142309523Y-63333333D01*
X142357142Y-63428571D01*
X142357142Y-63523809D01*
X141880952Y-63619047D01*
X142785714Y-63952380D02*
X142785714Y-63285714D01*
X142785714Y-63380952D02*
X142833333Y-63333333D01*
X142928571Y-63285714D01*
X143071428Y-63285714D01*
X143166666Y-63333333D01*
X143214285Y-63428571D01*
X143214285Y-63952380D01*
X143214285Y-63428571D02*
X143261904Y-63333333D01*
X143357142Y-63285714D01*
X143500000Y-63285714D01*
X143595238Y-63333333D01*
X143642857Y-63428571D01*
X143642857Y-63952380D01*
X145357142Y-63952380D02*
X144880952Y-63952380D01*
X144880952Y-62952380D01*
X145833333Y-63952380D02*
X145738095Y-63904761D01*
X145690476Y-63857142D01*
X145642857Y-63761904D01*
X145642857Y-63476190D01*
X145690476Y-63380952D01*
X145738095Y-63333333D01*
X145833333Y-63285714D01*
X145976190Y-63285714D01*
X146071428Y-63333333D01*
X146119047Y-63380952D01*
X146166666Y-63476190D01*
X146166666Y-63761904D01*
X146119047Y-63857142D01*
X146071428Y-63904761D01*
X145976190Y-63952380D01*
X145833333Y-63952380D01*
X147023809Y-63285714D02*
X147023809Y-64095238D01*
X146976190Y-64190476D01*
X146928571Y-64238095D01*
X146833333Y-64285714D01*
X146690476Y-64285714D01*
X146595238Y-64238095D01*
X147023809Y-63904761D02*
X146928571Y-63952380D01*
X146738095Y-63952380D01*
X146642857Y-63904761D01*
X146595238Y-63857142D01*
X146547619Y-63761904D01*
X146547619Y-63476190D01*
X146595238Y-63380952D01*
X146642857Y-63333333D01*
X146738095Y-63285714D01*
X146928571Y-63285714D01*
X147023809Y-63333333D01*
X147500000Y-63952380D02*
X147500000Y-63285714D01*
X147500000Y-62952380D02*
X147452380Y-63000000D01*
X147500000Y-63047619D01*
X147547619Y-63000000D01*
X147500000Y-62952380D01*
X147500000Y-63047619D01*
X148404761Y-63904761D02*
X148309523Y-63952380D01*
X148119047Y-63952380D01*
X148023809Y-63904761D01*
X147976190Y-63857142D01*
X147928571Y-63761904D01*
X147928571Y-63476190D01*
X147976190Y-63380952D01*
X148023809Y-63333333D01*
X148119047Y-63285714D01*
X148309523Y-63285714D01*
X148404761Y-63333333D01*
X150404761Y-63952380D02*
X150357142Y-63952380D01*
X150261904Y-63904761D01*
X150119047Y-63761904D01*
X149880952Y-63476190D01*
X149785714Y-63333333D01*
X149738095Y-63190476D01*
X149738095Y-63095238D01*
X149785714Y-63000000D01*
X149880952Y-62952380D01*
X149928571Y-62952380D01*
X150023809Y-63000000D01*
X150071428Y-63095238D01*
X150071428Y-63142857D01*
X150023809Y-63238095D01*
X149976190Y-63285714D01*
X149690476Y-63476190D01*
X149642857Y-63523809D01*
X149595238Y-63619047D01*
X149595238Y-63761904D01*
X149642857Y-63857142D01*
X149690476Y-63904761D01*
X149785714Y-63952380D01*
X149928571Y-63952380D01*
X150023809Y-63904761D01*
X150071428Y-63857142D01*
X150214285Y-63666666D01*
X150261904Y-63523809D01*
X150261904Y-63428571D01*
X151928571Y-63428571D02*
X151595238Y-63428571D01*
X151595238Y-63952380D02*
X151595238Y-62952380D01*
X152071428Y-62952380D01*
X152452380Y-63952380D02*
X152452380Y-62952380D01*
X152690476Y-62952380D01*
X152833333Y-63000000D01*
X152928571Y-63095238D01*
X152976190Y-63190476D01*
X153023809Y-63380952D01*
X153023809Y-63523809D01*
X152976190Y-63714285D01*
X152928571Y-63809523D01*
X152833333Y-63904761D01*
X152690476Y-63952380D01*
X152452380Y-63952380D01*
X153452380Y-63952380D02*
X153452380Y-62952380D01*
X153690476Y-62952380D01*
X153833333Y-63000000D01*
X153928571Y-63095238D01*
X153976190Y-63190476D01*
X154023809Y-63380952D01*
X154023809Y-63523809D01*
X153976190Y-63714285D01*
X153928571Y-63809523D01*
X153833333Y-63904761D01*
X153690476Y-63952380D01*
X153452380Y-63952380D01*
X155214285Y-63952380D02*
X155214285Y-62952380D01*
X155595238Y-62952380D01*
X155690476Y-63000000D01*
X155738095Y-63047619D01*
X155785714Y-63142857D01*
X155785714Y-63285714D01*
X155738095Y-63380952D01*
X155690476Y-63428571D01*
X155595238Y-63476190D01*
X155214285Y-63476190D01*
X156357142Y-63952380D02*
X156261904Y-63904761D01*
X156214285Y-63857142D01*
X156166666Y-63761904D01*
X156166666Y-63476190D01*
X156214285Y-63380952D01*
X156261904Y-63333333D01*
X156357142Y-63285714D01*
X156500000Y-63285714D01*
X156595238Y-63333333D01*
X156642857Y-63380952D01*
X156690476Y-63476190D01*
X156690476Y-63761904D01*
X156642857Y-63857142D01*
X156595238Y-63904761D01*
X156500000Y-63952380D01*
X156357142Y-63952380D01*
X157023809Y-63285714D02*
X157214285Y-63952380D01*
X157404761Y-63476190D01*
X157595238Y-63952380D01*
X157785714Y-63285714D01*
X158547619Y-63904761D02*
X158452380Y-63952380D01*
X158261904Y-63952380D01*
X158166666Y-63904761D01*
X158119047Y-63809523D01*
X158119047Y-63428571D01*
X158166666Y-63333333D01*
X158261904Y-63285714D01*
X158452380Y-63285714D01*
X158547619Y-63333333D01*
X158595238Y-63428571D01*
X158595238Y-63523809D01*
X158119047Y-63619047D01*
X159023809Y-63952380D02*
X159023809Y-63285714D01*
X159023809Y-63476190D02*
X159071428Y-63380952D01*
X159119047Y-63333333D01*
X159214285Y-63285714D01*
X159309523Y-63285714D01*
%TO.C,L2*%
X68333333Y-30952380D02*
X67857142Y-30952380D01*
X67857142Y-29952380D01*
X68619047Y-30047619D02*
X68666666Y-30000000D01*
X68761904Y-29952380D01*
X69000000Y-29952380D01*
X69095238Y-30000000D01*
X69142857Y-30047619D01*
X69190476Y-30142857D01*
X69190476Y-30238095D01*
X69142857Y-30380952D01*
X68571428Y-30952380D01*
X69190476Y-30952380D01*
X66761904Y-37547619D02*
X66809523Y-37500000D01*
X66904761Y-37452380D01*
X67142857Y-37452380D01*
X67238095Y-37500000D01*
X67285714Y-37547619D01*
X67333333Y-37642857D01*
X67333333Y-37738095D01*
X67285714Y-37880952D01*
X66714285Y-38452380D01*
X67333333Y-38452380D01*
X67714285Y-37547619D02*
X67761904Y-37500000D01*
X67857142Y-37452380D01*
X68095238Y-37452380D01*
X68190476Y-37500000D01*
X68238095Y-37547619D01*
X68285714Y-37642857D01*
X68285714Y-37738095D01*
X68238095Y-37880952D01*
X67666666Y-38452380D01*
X68285714Y-38452380D01*
X69142857Y-37785714D02*
X69142857Y-38452380D01*
X68714285Y-37785714D02*
X68714285Y-38309523D01*
X68761904Y-38404761D01*
X68857142Y-38452380D01*
X69000000Y-38452380D01*
X69095238Y-38404761D01*
X69142857Y-38357142D01*
X69619047Y-38452380D02*
X69619047Y-37452380D01*
X69619047Y-37928571D02*
X70190476Y-37928571D01*
X70190476Y-38452380D02*
X70190476Y-37452380D01*
%TO.C,R7*%
X59833333Y-52952380D02*
X59500000Y-52476190D01*
X59261904Y-52952380D02*
X59261904Y-51952380D01*
X59642857Y-51952380D01*
X59738095Y-52000000D01*
X59785714Y-52047619D01*
X59833333Y-52142857D01*
X59833333Y-52285714D01*
X59785714Y-52380952D01*
X59738095Y-52428571D01*
X59642857Y-52476190D01*
X59261904Y-52476190D01*
X60166666Y-51952380D02*
X60833333Y-51952380D01*
X60404761Y-52952380D01*
X62666666Y-54952380D02*
X62095238Y-54952380D01*
X62380952Y-54952380D02*
X62380952Y-53952380D01*
X62285714Y-54095238D01*
X62190476Y-54190476D01*
X62095238Y-54238095D01*
X63095238Y-54857142D02*
X63142857Y-54904761D01*
X63095238Y-54952380D01*
X63047619Y-54904761D01*
X63095238Y-54857142D01*
X63095238Y-54952380D01*
X64047619Y-53952380D02*
X63571428Y-53952380D01*
X63523809Y-54428571D01*
X63571428Y-54380952D01*
X63666666Y-54333333D01*
X63904761Y-54333333D01*
X64000000Y-54380952D01*
X64047619Y-54428571D01*
X64095238Y-54523809D01*
X64095238Y-54761904D01*
X64047619Y-54857142D01*
X64000000Y-54904761D01*
X63904761Y-54952380D01*
X63666666Y-54952380D01*
X63571428Y-54904761D01*
X63523809Y-54857142D01*
X64523809Y-54952380D02*
X64523809Y-53952380D01*
X64619047Y-54571428D02*
X64904761Y-54952380D01*
X64904761Y-54285714D02*
X64523809Y-54666666D01*
%TO.C,U1*%
X61738095Y-46952380D02*
X61738095Y-47761904D01*
X61785714Y-47857142D01*
X61833333Y-47904761D01*
X61928571Y-47952380D01*
X62119047Y-47952380D01*
X62214285Y-47904761D01*
X62261904Y-47857142D01*
X62309523Y-47761904D01*
X62309523Y-46952380D01*
X63309523Y-47952380D02*
X62738095Y-47952380D01*
X63023809Y-47952380D02*
X63023809Y-46952380D01*
X62928571Y-47095238D01*
X62833333Y-47190476D01*
X62738095Y-47238095D01*
X62166666Y-44452380D02*
X61690476Y-44452380D01*
X61690476Y-43452380D01*
X62500000Y-44452380D02*
X62500000Y-43452380D01*
X62833333Y-44166666D01*
X63166666Y-43452380D01*
X63166666Y-44452380D01*
X63547619Y-43452380D02*
X64166666Y-43452380D01*
X63833333Y-43833333D01*
X63976190Y-43833333D01*
X64071428Y-43880952D01*
X64119047Y-43928571D01*
X64166666Y-44023809D01*
X64166666Y-44261904D01*
X64119047Y-44357142D01*
X64071428Y-44404761D01*
X63976190Y-44452380D01*
X63690476Y-44452380D01*
X63595238Y-44404761D01*
X63547619Y-44357142D01*
X64500000Y-43452380D02*
X65119047Y-43452380D01*
X64785714Y-43833333D01*
X64928571Y-43833333D01*
X65023809Y-43880952D01*
X65071428Y-43928571D01*
X65119047Y-44023809D01*
X65119047Y-44261904D01*
X65071428Y-44357142D01*
X65023809Y-44404761D01*
X64928571Y-44452380D01*
X64642857Y-44452380D01*
X64547619Y-44404761D01*
X64500000Y-44357142D01*
X65452380Y-43452380D02*
X66119047Y-43452380D01*
X65690476Y-44452380D01*
X66976190Y-44452380D02*
X66500000Y-44452380D01*
X66500000Y-43452380D01*
X67071428Y-44547619D02*
X67833333Y-44547619D01*
X67928571Y-43452380D02*
X68500000Y-43452380D01*
X68214285Y-44452380D02*
X68214285Y-43452380D01*
X69023809Y-43452380D02*
X69214285Y-43452380D01*
X69309523Y-43500000D01*
X69404761Y-43595238D01*
X69452380Y-43785714D01*
X69452380Y-44119047D01*
X69404761Y-44309523D01*
X69309523Y-44404761D01*
X69214285Y-44452380D01*
X69023809Y-44452380D01*
X68928571Y-44404761D01*
X68833333Y-44309523D01*
X68785714Y-44119047D01*
X68785714Y-43785714D01*
X68833333Y-43595238D01*
X68928571Y-43500000D01*
X69023809Y-43452380D01*
X69928571Y-44452380D02*
X70119047Y-44452380D01*
X70214285Y-44404761D01*
X70261904Y-44357142D01*
X70357142Y-44214285D01*
X70404761Y-44023809D01*
X70404761Y-43642857D01*
X70357142Y-43547619D01*
X70309523Y-43500000D01*
X70214285Y-43452380D01*
X70023809Y-43452380D01*
X69928571Y-43500000D01*
X69880952Y-43547619D01*
X69833333Y-43642857D01*
X69833333Y-43880952D01*
X69880952Y-43976190D01*
X69928571Y-44023809D01*
X70023809Y-44071428D01*
X70214285Y-44071428D01*
X70309523Y-44023809D01*
X70357142Y-43976190D01*
X70404761Y-43880952D01*
X70785714Y-43547619D02*
X70833333Y-43500000D01*
X70928571Y-43452380D01*
X71166666Y-43452380D01*
X71261904Y-43500000D01*
X71309523Y-43547619D01*
X71357142Y-43642857D01*
X71357142Y-43738095D01*
X71309523Y-43880952D01*
X70738095Y-44452380D01*
X71357142Y-44452380D01*
%TO.C,R8*%
X71333333Y-50952380D02*
X71000000Y-50476190D01*
X70761904Y-50952380D02*
X70761904Y-49952380D01*
X71142857Y-49952380D01*
X71238095Y-50000000D01*
X71285714Y-50047619D01*
X71333333Y-50142857D01*
X71333333Y-50285714D01*
X71285714Y-50380952D01*
X71238095Y-50428571D01*
X71142857Y-50476190D01*
X70761904Y-50476190D01*
X71904761Y-50380952D02*
X71809523Y-50333333D01*
X71761904Y-50285714D01*
X71714285Y-50190476D01*
X71714285Y-50142857D01*
X71761904Y-50047619D01*
X71809523Y-50000000D01*
X71904761Y-49952380D01*
X72095238Y-49952380D01*
X72190476Y-50000000D01*
X72238095Y-50047619D01*
X72285714Y-50142857D01*
X72285714Y-50190476D01*
X72238095Y-50285714D01*
X72190476Y-50333333D01*
X72095238Y-50380952D01*
X71904761Y-50380952D01*
X71809523Y-50428571D01*
X71761904Y-50476190D01*
X71714285Y-50571428D01*
X71714285Y-50761904D01*
X71761904Y-50857142D01*
X71809523Y-50904761D01*
X71904761Y-50952380D01*
X72095238Y-50952380D01*
X72190476Y-50904761D01*
X72238095Y-50857142D01*
X72285714Y-50761904D01*
X72285714Y-50571428D01*
X72238095Y-50476190D01*
X72190476Y-50428571D01*
X72095238Y-50380952D01*
X71238095Y-51785714D02*
X71238095Y-52452380D01*
X71000000Y-51404761D02*
X70761904Y-52119047D01*
X71380952Y-52119047D01*
X71666666Y-51452380D02*
X72333333Y-51452380D01*
X71904761Y-52452380D01*
X72904761Y-51452380D02*
X73000000Y-51452380D01*
X73095238Y-51500000D01*
X73142857Y-51547619D01*
X73190476Y-51642857D01*
X73238095Y-51833333D01*
X73238095Y-52071428D01*
X73190476Y-52261904D01*
X73142857Y-52357142D01*
X73095238Y-52404761D01*
X73000000Y-52452380D01*
X72904761Y-52452380D01*
X72809523Y-52404761D01*
X72761904Y-52357142D01*
X72714285Y-52261904D01*
X72666666Y-52071428D01*
X72666666Y-51833333D01*
X72714285Y-51642857D01*
X72761904Y-51547619D01*
X72809523Y-51500000D01*
X72904761Y-51452380D01*
X74238095Y-52452380D02*
X73904761Y-51976190D01*
X73666666Y-52452380D02*
X73666666Y-51452380D01*
X74047619Y-51452380D01*
X74142857Y-51500000D01*
X74190476Y-51547619D01*
X74238095Y-51642857D01*
X74238095Y-51785714D01*
X74190476Y-51880952D01*
X74142857Y-51928571D01*
X74047619Y-51976190D01*
X73666666Y-51976190D01*
%TO.C,R1*%
X52452380Y-34166666D02*
X51976190Y-34500000D01*
X52452380Y-34738095D02*
X51452380Y-34738095D01*
X51452380Y-34357142D01*
X51500000Y-34261904D01*
X51547619Y-34214285D01*
X51642857Y-34166666D01*
X51785714Y-34166666D01*
X51880952Y-34214285D01*
X51928571Y-34261904D01*
X51976190Y-34357142D01*
X51976190Y-34738095D01*
X52452380Y-33214285D02*
X52452380Y-33785714D01*
X52452380Y-33500000D02*
X51452380Y-33500000D01*
X51595238Y-33595238D01*
X51690476Y-33690476D01*
X51738095Y-33785714D01*
X52952380Y-39285714D02*
X52952380Y-38666666D01*
X53333333Y-39000000D01*
X53333333Y-38857142D01*
X53380952Y-38761904D01*
X53428571Y-38714285D01*
X53523809Y-38666666D01*
X53761904Y-38666666D01*
X53857142Y-38714285D01*
X53904761Y-38761904D01*
X53952380Y-38857142D01*
X53952380Y-39142857D01*
X53904761Y-39238095D01*
X53857142Y-39285714D01*
X52952380Y-38333333D02*
X52952380Y-37714285D01*
X53333333Y-38047619D01*
X53333333Y-37904761D01*
X53380952Y-37809523D01*
X53428571Y-37761904D01*
X53523809Y-37714285D01*
X53761904Y-37714285D01*
X53857142Y-37761904D01*
X53904761Y-37809523D01*
X53952380Y-37904761D01*
X53952380Y-38190476D01*
X53904761Y-38285714D01*
X53857142Y-38333333D01*
X52952380Y-37095238D02*
X52952380Y-37000000D01*
X53000000Y-36904761D01*
X53047619Y-36857142D01*
X53142857Y-36809523D01*
X53333333Y-36761904D01*
X53571428Y-36761904D01*
X53761904Y-36809523D01*
X53857142Y-36857142D01*
X53904761Y-36904761D01*
X53952380Y-37000000D01*
X53952380Y-37095238D01*
X53904761Y-37190476D01*
X53857142Y-37238095D01*
X53761904Y-37285714D01*
X53571428Y-37333333D01*
X53333333Y-37333333D01*
X53142857Y-37285714D01*
X53047619Y-37238095D01*
X53000000Y-37190476D01*
X52952380Y-37095238D01*
X53952380Y-36333333D02*
X52952380Y-36333333D01*
X53952380Y-35761904D02*
X53380952Y-36190476D01*
X52952380Y-35761904D02*
X53523809Y-36333333D01*
%TO.C,D1*%
X29761904Y-46452380D02*
X29761904Y-45452380D01*
X30000000Y-45452380D01*
X30142857Y-45500000D01*
X30238095Y-45595238D01*
X30285714Y-45690476D01*
X30333333Y-45880952D01*
X30333333Y-46023809D01*
X30285714Y-46214285D01*
X30238095Y-46309523D01*
X30142857Y-46404761D01*
X30000000Y-46452380D01*
X29761904Y-46452380D01*
X31285714Y-46452380D02*
X30714285Y-46452380D01*
X31000000Y-46452380D02*
X31000000Y-45452380D01*
X30904761Y-45595238D01*
X30809523Y-45690476D01*
X30714285Y-45738095D01*
%TO.C,C6*%
X50397142Y-21966666D02*
X50444761Y-22014285D01*
X50492380Y-22157142D01*
X50492380Y-22252380D01*
X50444761Y-22395238D01*
X50349523Y-22490476D01*
X50254285Y-22538095D01*
X50063809Y-22585714D01*
X49920952Y-22585714D01*
X49730476Y-22538095D01*
X49635238Y-22490476D01*
X49540000Y-22395238D01*
X49492380Y-22252380D01*
X49492380Y-22157142D01*
X49540000Y-22014285D01*
X49587619Y-21966666D01*
X49492380Y-21109523D02*
X49492380Y-21300000D01*
X49540000Y-21395238D01*
X49587619Y-21442857D01*
X49730476Y-21538095D01*
X49920952Y-21585714D01*
X50301904Y-21585714D01*
X50397142Y-21538095D01*
X50444761Y-21490476D01*
X50492380Y-21395238D01*
X50492380Y-21204761D01*
X50444761Y-21109523D01*
X50397142Y-21061904D01*
X50301904Y-21014285D01*
X50063809Y-21014285D01*
X49968571Y-21061904D01*
X49920952Y-21109523D01*
X49873333Y-21204761D01*
X49873333Y-21395238D01*
X49920952Y-21490476D01*
X49968571Y-21538095D01*
X50063809Y-21585714D01*
X48472380Y-25586367D02*
X48472380Y-26157795D01*
X48472380Y-25872081D02*
X47472380Y-25872081D01*
X47615238Y-25967319D01*
X47710476Y-26062557D01*
X47758095Y-26157795D01*
X47472380Y-24967319D02*
X47472380Y-24872081D01*
X47520000Y-24776843D01*
X47567619Y-24729224D01*
X47662857Y-24681605D01*
X47853333Y-24633986D01*
X48091428Y-24633986D01*
X48281904Y-24681605D01*
X48377142Y-24729224D01*
X48424761Y-24776843D01*
X48472380Y-24872081D01*
X48472380Y-24967319D01*
X48424761Y-25062557D01*
X48377142Y-25110176D01*
X48281904Y-25157795D01*
X48091428Y-25205414D01*
X47853333Y-25205414D01*
X47662857Y-25157795D01*
X47567619Y-25110176D01*
X47520000Y-25062557D01*
X47472380Y-24967319D01*
X47472380Y-24014938D02*
X47472380Y-23919700D01*
X47520000Y-23824462D01*
X47567619Y-23776843D01*
X47662857Y-23729224D01*
X47853333Y-23681605D01*
X48091428Y-23681605D01*
X48281904Y-23729224D01*
X48377142Y-23776843D01*
X48424761Y-23824462D01*
X48472380Y-23919700D01*
X48472380Y-24014938D01*
X48424761Y-24110176D01*
X48377142Y-24157795D01*
X48281904Y-24205414D01*
X48091428Y-24253033D01*
X47853333Y-24253033D01*
X47662857Y-24205414D01*
X47567619Y-24157795D01*
X47520000Y-24110176D01*
X47472380Y-24014938D01*
X47805714Y-23253033D02*
X48472380Y-23253033D01*
X47900952Y-23253033D02*
X47853333Y-23205414D01*
X47805714Y-23110176D01*
X47805714Y-22967319D01*
X47853333Y-22872081D01*
X47948571Y-22824462D01*
X48472380Y-22824462D01*
X47948571Y-22014938D02*
X47948571Y-22348271D01*
X48472380Y-22348271D02*
X47472380Y-22348271D01*
X47472380Y-21872081D01*
%TO.C,C2*%
X30677142Y-41166666D02*
X30724761Y-41214285D01*
X30772380Y-41357142D01*
X30772380Y-41452380D01*
X30724761Y-41595238D01*
X30629523Y-41690476D01*
X30534285Y-41738095D01*
X30343809Y-41785714D01*
X30200952Y-41785714D01*
X30010476Y-41738095D01*
X29915238Y-41690476D01*
X29820000Y-41595238D01*
X29772380Y-41452380D01*
X29772380Y-41357142D01*
X29820000Y-41214285D01*
X29867619Y-41166666D01*
X29867619Y-40785714D02*
X29820000Y-40738095D01*
X29772380Y-40642857D01*
X29772380Y-40404761D01*
X29820000Y-40309523D01*
X29867619Y-40261904D01*
X29962857Y-40214285D01*
X30058095Y-40214285D01*
X30200952Y-40261904D01*
X30772380Y-40833333D01*
X30772380Y-40214285D01*
X29952380Y-43952380D02*
X29380952Y-43952380D01*
X29666666Y-43952380D02*
X29666666Y-42952380D01*
X29571428Y-43095238D01*
X29476190Y-43190476D01*
X29380952Y-43238095D01*
X30571428Y-42952380D02*
X30666666Y-42952380D01*
X30761904Y-43000000D01*
X30809523Y-43047619D01*
X30857142Y-43142857D01*
X30904761Y-43333333D01*
X30904761Y-43571428D01*
X30857142Y-43761904D01*
X30809523Y-43857142D01*
X30761904Y-43904761D01*
X30666666Y-43952380D01*
X30571428Y-43952380D01*
X30476190Y-43904761D01*
X30428571Y-43857142D01*
X30380952Y-43761904D01*
X30333333Y-43571428D01*
X30333333Y-43333333D01*
X30380952Y-43142857D01*
X30428571Y-43047619D01*
X30476190Y-43000000D01*
X30571428Y-42952380D01*
X31523809Y-42952380D02*
X31619047Y-42952380D01*
X31714285Y-43000000D01*
X31761904Y-43047619D01*
X31809523Y-43142857D01*
X31857142Y-43333333D01*
X31857142Y-43571428D01*
X31809523Y-43761904D01*
X31761904Y-43857142D01*
X31714285Y-43904761D01*
X31619047Y-43952380D01*
X31523809Y-43952380D01*
X31428571Y-43904761D01*
X31380952Y-43857142D01*
X31333333Y-43761904D01*
X31285714Y-43571428D01*
X31285714Y-43333333D01*
X31333333Y-43142857D01*
X31380952Y-43047619D01*
X31428571Y-43000000D01*
X31523809Y-42952380D01*
X32285714Y-43285714D02*
X32285714Y-43952380D01*
X32285714Y-43380952D02*
X32333333Y-43333333D01*
X32428571Y-43285714D01*
X32571428Y-43285714D01*
X32666666Y-43333333D01*
X32714285Y-43428571D01*
X32714285Y-43952380D01*
X33523809Y-43428571D02*
X33190476Y-43428571D01*
X33190476Y-43952380D02*
X33190476Y-42952380D01*
X33666666Y-42952380D01*
%TO.C,U3*%
X41738095Y-58952380D02*
X41738095Y-59761904D01*
X41785714Y-59857142D01*
X41833333Y-59904761D01*
X41928571Y-59952380D01*
X42119047Y-59952380D01*
X42214285Y-59904761D01*
X42261904Y-59857142D01*
X42309523Y-59761904D01*
X42309523Y-58952380D01*
X42690476Y-58952380D02*
X43309523Y-58952380D01*
X42976190Y-59333333D01*
X43119047Y-59333333D01*
X43214285Y-59380952D01*
X43261904Y-59428571D01*
X43309523Y-59523809D01*
X43309523Y-59761904D01*
X43261904Y-59857142D01*
X43214285Y-59904761D01*
X43119047Y-59952380D01*
X42833333Y-59952380D01*
X42738095Y-59904761D01*
X42690476Y-59857142D01*
X38452380Y-59166666D02*
X37452380Y-59166666D01*
X38452380Y-58595238D02*
X37880952Y-59023809D01*
X37452380Y-58595238D02*
X38023809Y-59166666D01*
X37452380Y-58261904D02*
X37452380Y-57595238D01*
X38452380Y-58023809D01*
X37880952Y-57071428D02*
X37833333Y-57166666D01*
X37785714Y-57214285D01*
X37690476Y-57261904D01*
X37642857Y-57261904D01*
X37547619Y-57214285D01*
X37500000Y-57166666D01*
X37452380Y-57071428D01*
X37452380Y-56880952D01*
X37500000Y-56785714D01*
X37547619Y-56738095D01*
X37642857Y-56690476D01*
X37690476Y-56690476D01*
X37785714Y-56738095D01*
X37833333Y-56785714D01*
X37880952Y-56880952D01*
X37880952Y-57071428D01*
X37928571Y-57166666D01*
X37976190Y-57214285D01*
X38071428Y-57261904D01*
X38261904Y-57261904D01*
X38357142Y-57214285D01*
X38404761Y-57166666D01*
X38452380Y-57071428D01*
X38452380Y-56880952D01*
X38404761Y-56785714D01*
X38357142Y-56738095D01*
X38261904Y-56690476D01*
X38071428Y-56690476D01*
X37976190Y-56738095D01*
X37928571Y-56785714D01*
X37880952Y-56880952D01*
X37452380Y-56071428D02*
X37452380Y-55976190D01*
X37500000Y-55880952D01*
X37547619Y-55833333D01*
X37642857Y-55785714D01*
X37833333Y-55738095D01*
X38071428Y-55738095D01*
X38261904Y-55785714D01*
X38357142Y-55833333D01*
X38404761Y-55880952D01*
X38452380Y-55976190D01*
X38452380Y-56071428D01*
X38404761Y-56166666D01*
X38357142Y-56214285D01*
X38261904Y-56261904D01*
X38071428Y-56309523D01*
X37833333Y-56309523D01*
X37642857Y-56261904D01*
X37547619Y-56214285D01*
X37500000Y-56166666D01*
X37452380Y-56071428D01*
X37452380Y-54833333D02*
X37452380Y-55309523D01*
X37928571Y-55357142D01*
X37880952Y-55309523D01*
X37833333Y-55214285D01*
X37833333Y-54976190D01*
X37880952Y-54880952D01*
X37928571Y-54833333D01*
X38023809Y-54785714D01*
X38261904Y-54785714D01*
X38357142Y-54833333D01*
X38404761Y-54880952D01*
X38452380Y-54976190D01*
X38452380Y-55214285D01*
X38404761Y-55309523D01*
X38357142Y-55357142D01*
X38071428Y-54357142D02*
X38071428Y-53595238D01*
X37547619Y-53166666D02*
X37500000Y-53119047D01*
X37452380Y-53023809D01*
X37452380Y-52785714D01*
X37500000Y-52690476D01*
X37547619Y-52642857D01*
X37642857Y-52595238D01*
X37738095Y-52595238D01*
X37880952Y-52642857D01*
X38452380Y-53214285D01*
X38452380Y-52595238D01*
X37452380Y-51976190D02*
X37452380Y-51880952D01*
X37500000Y-51785714D01*
X37547619Y-51738095D01*
X37642857Y-51690476D01*
X37833333Y-51642857D01*
X38071428Y-51642857D01*
X38261904Y-51690476D01*
X38357142Y-51738095D01*
X38404761Y-51785714D01*
X38452380Y-51880952D01*
X38452380Y-51976190D01*
X38404761Y-52071428D01*
X38357142Y-52119047D01*
X38261904Y-52166666D01*
X38071428Y-52214285D01*
X37833333Y-52214285D01*
X37642857Y-52166666D01*
X37547619Y-52119047D01*
X37500000Y-52071428D01*
X37452380Y-51976190D01*
X37452380Y-51023809D02*
X37452380Y-50928571D01*
X37500000Y-50833333D01*
X37547619Y-50785714D01*
X37642857Y-50738095D01*
X37833333Y-50690476D01*
X38071428Y-50690476D01*
X38261904Y-50738095D01*
X38357142Y-50785714D01*
X38404761Y-50833333D01*
X38452380Y-50928571D01*
X38452380Y-51023809D01*
X38404761Y-51119047D01*
X38357142Y-51166666D01*
X38261904Y-51214285D01*
X38071428Y-51261904D01*
X37833333Y-51261904D01*
X37642857Y-51214285D01*
X37547619Y-51166666D01*
X37500000Y-51119047D01*
X37452380Y-51023809D01*
X37452380Y-50071428D02*
X37452380Y-49976190D01*
X37500000Y-49880952D01*
X37547619Y-49833333D01*
X37642857Y-49785714D01*
X37833333Y-49738095D01*
X38071428Y-49738095D01*
X38261904Y-49785714D01*
X38357142Y-49833333D01*
X38404761Y-49880952D01*
X38452380Y-49976190D01*
X38452380Y-50071428D01*
X38404761Y-50166666D01*
X38357142Y-50214285D01*
X38261904Y-50261904D01*
X38071428Y-50309523D01*
X37833333Y-50309523D01*
X37642857Y-50261904D01*
X37547619Y-50214285D01*
X37500000Y-50166666D01*
X37452380Y-50071428D01*
X38452380Y-48738095D02*
X37976190Y-49071428D01*
X38452380Y-49309523D02*
X37452380Y-49309523D01*
X37452380Y-48928571D01*
X37500000Y-48833333D01*
X37547619Y-48785714D01*
X37642857Y-48738095D01*
X37785714Y-48738095D01*
X37880952Y-48785714D01*
X37928571Y-48833333D01*
X37976190Y-48928571D01*
X37976190Y-49309523D01*
X37452380Y-48404761D02*
X37452380Y-47785714D01*
X37833333Y-48119047D01*
X37833333Y-47976190D01*
X37880952Y-47880952D01*
X37928571Y-47833333D01*
X38023809Y-47785714D01*
X38261904Y-47785714D01*
X38357142Y-47833333D01*
X38404761Y-47880952D01*
X38452380Y-47976190D01*
X38452380Y-48261904D01*
X38404761Y-48357142D01*
X38357142Y-48404761D01*
%TO.C,PJ5*%
X138880952Y-65452380D02*
X138880952Y-64452380D01*
X139261904Y-64452380D01*
X139357142Y-64500000D01*
X139404761Y-64547619D01*
X139452380Y-64642857D01*
X139452380Y-64785714D01*
X139404761Y-64880952D01*
X139357142Y-64928571D01*
X139261904Y-64976190D01*
X138880952Y-64976190D01*
X140166666Y-64452380D02*
X140166666Y-65166666D01*
X140119047Y-65309523D01*
X140023809Y-65404761D01*
X139880952Y-65452380D01*
X139785714Y-65452380D01*
X141119047Y-64452380D02*
X140642857Y-64452380D01*
X140595238Y-64928571D01*
X140642857Y-64880952D01*
X140738095Y-64833333D01*
X140976190Y-64833333D01*
X141071428Y-64880952D01*
X141119047Y-64928571D01*
X141166666Y-65023809D01*
X141166666Y-65261904D01*
X141119047Y-65357142D01*
X141071428Y-65404761D01*
X140976190Y-65452380D01*
X140738095Y-65452380D01*
X140642857Y-65404761D01*
X140595238Y-65357142D01*
X136119047Y-63952380D02*
X136119047Y-62952380D01*
X136119047Y-63428571D02*
X136690476Y-63428571D01*
X136690476Y-63952380D02*
X136690476Y-62952380D01*
X137166666Y-63952380D02*
X137166666Y-62952380D01*
X137404761Y-62952380D01*
X137547619Y-63000000D01*
X137642857Y-63095238D01*
X137690476Y-63190476D01*
X137738095Y-63380952D01*
X137738095Y-63523809D01*
X137690476Y-63714285D01*
X137642857Y-63809523D01*
X137547619Y-63904761D01*
X137404761Y-63952380D01*
X137166666Y-63952380D01*
X138166666Y-63952380D02*
X138166666Y-62952380D01*
X138404761Y-62952380D01*
X138547619Y-63000000D01*
X138642857Y-63095238D01*
X138690476Y-63190476D01*
X138738095Y-63380952D01*
X138738095Y-63523809D01*
X138690476Y-63714285D01*
X138642857Y-63809523D01*
X138547619Y-63904761D01*
X138404761Y-63952380D01*
X138166666Y-63952380D01*
X139928571Y-63952380D02*
X139928571Y-62952380D01*
X140309523Y-62952380D01*
X140404761Y-63000000D01*
X140452380Y-63047619D01*
X140500000Y-63142857D01*
X140500000Y-63285714D01*
X140452380Y-63380952D01*
X140404761Y-63428571D01*
X140309523Y-63476190D01*
X139928571Y-63476190D01*
X141071428Y-63952380D02*
X140976190Y-63904761D01*
X140928571Y-63857142D01*
X140880952Y-63761904D01*
X140880952Y-63476190D01*
X140928571Y-63380952D01*
X140976190Y-63333333D01*
X141071428Y-63285714D01*
X141214285Y-63285714D01*
X141309523Y-63333333D01*
X141357142Y-63380952D01*
X141404761Y-63476190D01*
X141404761Y-63761904D01*
X141357142Y-63857142D01*
X141309523Y-63904761D01*
X141214285Y-63952380D01*
X141071428Y-63952380D01*
X141738095Y-63285714D02*
X141928571Y-63952380D01*
X142119047Y-63476190D01*
X142309523Y-63952380D01*
X142500000Y-63285714D01*
X143261904Y-63904761D02*
X143166666Y-63952380D01*
X142976190Y-63952380D01*
X142880952Y-63904761D01*
X142833333Y-63809523D01*
X142833333Y-63428571D01*
X142880952Y-63333333D01*
X142976190Y-63285714D01*
X143166666Y-63285714D01*
X143261904Y-63333333D01*
X143309523Y-63428571D01*
X143309523Y-63523809D01*
X142833333Y-63619047D01*
X143738095Y-63952380D02*
X143738095Y-63285714D01*
X143738095Y-63476190D02*
X143785714Y-63380952D01*
X143833333Y-63333333D01*
X143928571Y-63285714D01*
X144023809Y-63285714D01*
%TO.C,J1*%
X39622380Y-14333333D02*
X40336666Y-14333333D01*
X40479523Y-14380952D01*
X40574761Y-14476190D01*
X40622380Y-14619047D01*
X40622380Y-14714285D01*
X40622380Y-13333333D02*
X40622380Y-13904761D01*
X40622380Y-13619047D02*
X39622380Y-13619047D01*
X39765238Y-13714285D01*
X39860476Y-13809523D01*
X39908095Y-13904761D01*
X50452380Y-15452380D02*
X49452380Y-15452380D01*
X49452380Y-15214285D01*
X49500000Y-15071428D01*
X49595238Y-14976190D01*
X49690476Y-14928571D01*
X49880952Y-14880952D01*
X50023809Y-14880952D01*
X50214285Y-14928571D01*
X50309523Y-14976190D01*
X50404761Y-15071428D01*
X50452380Y-15214285D01*
X50452380Y-15452380D01*
X50452380Y-14023809D02*
X49928571Y-14023809D01*
X49833333Y-14071428D01*
X49785714Y-14166666D01*
X49785714Y-14357142D01*
X49833333Y-14452380D01*
X50404761Y-14023809D02*
X50452380Y-14119047D01*
X50452380Y-14357142D01*
X50404761Y-14452380D01*
X50309523Y-14500000D01*
X50214285Y-14500000D01*
X50119047Y-14452380D01*
X50071428Y-14357142D01*
X50071428Y-14119047D01*
X50023809Y-14023809D01*
X49785714Y-13690476D02*
X49785714Y-13309523D01*
X49452380Y-13547619D02*
X50309523Y-13547619D01*
X50404761Y-13500000D01*
X50452380Y-13404761D01*
X50452380Y-13309523D01*
X50452380Y-12547619D02*
X49928571Y-12547619D01*
X49833333Y-12595238D01*
X49785714Y-12690476D01*
X49785714Y-12880952D01*
X49833333Y-12976190D01*
X50404761Y-12547619D02*
X50452380Y-12642857D01*
X50452380Y-12880952D01*
X50404761Y-12976190D01*
X50309523Y-13023809D01*
X50214285Y-13023809D01*
X50119047Y-12976190D01*
X50071428Y-12880952D01*
X50071428Y-12642857D01*
X50023809Y-12547619D01*
%TO.C,TP5*%
X30521428Y-18285714D02*
X30521428Y-17523809D01*
X30902380Y-17000000D02*
X30902380Y-16809523D01*
X30854761Y-16714285D01*
X30807142Y-16666666D01*
X30664285Y-16571428D01*
X30473809Y-16523809D01*
X30092857Y-16523809D01*
X29997619Y-16571428D01*
X29950000Y-16619047D01*
X29902380Y-16714285D01*
X29902380Y-16904761D01*
X29950000Y-17000000D01*
X29997619Y-17047619D01*
X30092857Y-17095238D01*
X30330952Y-17095238D01*
X30426190Y-17047619D01*
X30473809Y-17000000D01*
X30521428Y-16904761D01*
X30521428Y-16714285D01*
X30473809Y-16619047D01*
X30426190Y-16571428D01*
X30330952Y-16523809D01*
X29902380Y-16238095D02*
X30902380Y-15904761D01*
X29902380Y-15571428D01*
%TO.C,C3*%
X39357142Y-40359266D02*
X39404761Y-40406885D01*
X39452380Y-40549742D01*
X39452380Y-40644980D01*
X39404761Y-40787838D01*
X39309523Y-40883076D01*
X39214285Y-40930695D01*
X39023809Y-40978314D01*
X38880952Y-40978314D01*
X38690476Y-40930695D01*
X38595238Y-40883076D01*
X38500000Y-40787838D01*
X38452380Y-40644980D01*
X38452380Y-40549742D01*
X38500000Y-40406885D01*
X38547619Y-40359266D01*
X38452380Y-40025933D02*
X38452380Y-39406885D01*
X38833333Y-39740219D01*
X38833333Y-39597361D01*
X38880952Y-39502123D01*
X38928571Y-39454504D01*
X39023809Y-39406885D01*
X39261904Y-39406885D01*
X39357142Y-39454504D01*
X39404761Y-39502123D01*
X39452380Y-39597361D01*
X39452380Y-39883076D01*
X39404761Y-39978314D01*
X39357142Y-40025933D01*
X34928571Y-43952380D02*
X34357142Y-43952380D01*
X34642857Y-43952380D02*
X34642857Y-42952380D01*
X34547619Y-43095238D01*
X34452380Y-43190476D01*
X34357142Y-43238095D01*
X35547619Y-42952380D02*
X35642857Y-42952380D01*
X35738095Y-43000000D01*
X35785714Y-43047619D01*
X35833333Y-43142857D01*
X35880952Y-43333333D01*
X35880952Y-43571428D01*
X35833333Y-43761904D01*
X35785714Y-43857142D01*
X35738095Y-43904761D01*
X35642857Y-43952380D01*
X35547619Y-43952380D01*
X35452380Y-43904761D01*
X35404761Y-43857142D01*
X35357142Y-43761904D01*
X35309523Y-43571428D01*
X35309523Y-43333333D01*
X35357142Y-43142857D01*
X35404761Y-43047619D01*
X35452380Y-43000000D01*
X35547619Y-42952380D01*
X36738095Y-43285714D02*
X36738095Y-43952380D01*
X36309523Y-43285714D02*
X36309523Y-43809523D01*
X36357142Y-43904761D01*
X36452380Y-43952380D01*
X36595238Y-43952380D01*
X36690476Y-43904761D01*
X36738095Y-43857142D01*
X37547619Y-43428571D02*
X37214285Y-43428571D01*
X37214285Y-43952380D02*
X37214285Y-42952380D01*
X37690476Y-42952380D01*
%TO.C,F1*%
X27166666Y-46428571D02*
X26833333Y-46428571D01*
X26833333Y-46952380D02*
X26833333Y-45952380D01*
X27309523Y-45952380D01*
X28214285Y-46952380D02*
X27642857Y-46952380D01*
X27928571Y-46952380D02*
X27928571Y-45952380D01*
X27833333Y-46095238D01*
X27738095Y-46190476D01*
X27642857Y-46238095D01*
X31547619Y-50428571D02*
X31500000Y-50380952D01*
X31452380Y-50285714D01*
X31452380Y-50047619D01*
X31500000Y-49952380D01*
X31547619Y-49904761D01*
X31642857Y-49857142D01*
X31738095Y-49857142D01*
X31880952Y-49904761D01*
X32452380Y-50476190D01*
X32452380Y-49857142D01*
X32357142Y-49428571D02*
X32404761Y-49380952D01*
X32452380Y-49428571D01*
X32404761Y-49476190D01*
X32357142Y-49428571D01*
X32452380Y-49428571D01*
X31547619Y-49000000D02*
X31500000Y-48952380D01*
X31452380Y-48857142D01*
X31452380Y-48619047D01*
X31500000Y-48523809D01*
X31547619Y-48476190D01*
X31642857Y-48428571D01*
X31738095Y-48428571D01*
X31880952Y-48476190D01*
X32452380Y-49047619D01*
X32452380Y-48428571D01*
X32166666Y-48047619D02*
X32166666Y-47571428D01*
X32452380Y-48142857D02*
X31452380Y-47809523D01*
X32452380Y-47476190D01*
%TO.C,R2*%
X54932380Y-34166666D02*
X54456190Y-34500000D01*
X54932380Y-34738095D02*
X53932380Y-34738095D01*
X53932380Y-34357142D01*
X53980000Y-34261904D01*
X54027619Y-34214285D01*
X54122857Y-34166666D01*
X54265714Y-34166666D01*
X54360952Y-34214285D01*
X54408571Y-34261904D01*
X54456190Y-34357142D01*
X54456190Y-34738095D01*
X54027619Y-33785714D02*
X53980000Y-33738095D01*
X53932380Y-33642857D01*
X53932380Y-33404761D01*
X53980000Y-33309523D01*
X54027619Y-33261904D01*
X54122857Y-33214285D01*
X54218095Y-33214285D01*
X54360952Y-33261904D01*
X54932380Y-33833333D01*
X54932380Y-33214285D01*
X48932380Y-39285714D02*
X48932380Y-38666666D01*
X49313333Y-39000000D01*
X49313333Y-38857142D01*
X49360952Y-38761904D01*
X49408571Y-38714285D01*
X49503809Y-38666666D01*
X49741904Y-38666666D01*
X49837142Y-38714285D01*
X49884761Y-38761904D01*
X49932380Y-38857142D01*
X49932380Y-39142857D01*
X49884761Y-39238095D01*
X49837142Y-39285714D01*
X48932380Y-38333333D02*
X48932380Y-37714285D01*
X49313333Y-38047619D01*
X49313333Y-37904761D01*
X49360952Y-37809523D01*
X49408571Y-37761904D01*
X49503809Y-37714285D01*
X49741904Y-37714285D01*
X49837142Y-37761904D01*
X49884761Y-37809523D01*
X49932380Y-37904761D01*
X49932380Y-38190476D01*
X49884761Y-38285714D01*
X49837142Y-38333333D01*
X48932380Y-37095238D02*
X48932380Y-37000000D01*
X48980000Y-36904761D01*
X49027619Y-36857142D01*
X49122857Y-36809523D01*
X49313333Y-36761904D01*
X49551428Y-36761904D01*
X49741904Y-36809523D01*
X49837142Y-36857142D01*
X49884761Y-36904761D01*
X49932380Y-37000000D01*
X49932380Y-37095238D01*
X49884761Y-37190476D01*
X49837142Y-37238095D01*
X49741904Y-37285714D01*
X49551428Y-37333333D01*
X49313333Y-37333333D01*
X49122857Y-37285714D01*
X49027619Y-37238095D01*
X48980000Y-37190476D01*
X48932380Y-37095238D01*
X49932380Y-36333333D02*
X48932380Y-36333333D01*
X49932380Y-35761904D02*
X49360952Y-36190476D01*
X48932380Y-35761904D02*
X49503809Y-36333333D01*
%TO.C,U4*%
X135423095Y-59072380D02*
X135423095Y-59881904D01*
X135470714Y-59977142D01*
X135518333Y-60024761D01*
X135613571Y-60072380D01*
X135804047Y-60072380D01*
X135899285Y-60024761D01*
X135946904Y-59977142D01*
X135994523Y-59881904D01*
X135994523Y-59072380D01*
X136899285Y-59405714D02*
X136899285Y-60072380D01*
X136661190Y-59024761D02*
X136423095Y-59739047D01*
X137042142Y-59739047D01*
X140952380Y-59166666D02*
X139952380Y-59166666D01*
X140952380Y-58595238D02*
X140380952Y-59023809D01*
X139952380Y-58595238D02*
X140523809Y-59166666D01*
X139952380Y-58261904D02*
X139952380Y-57595238D01*
X140952380Y-58023809D01*
X140380952Y-57071428D02*
X140333333Y-57166666D01*
X140285714Y-57214285D01*
X140190476Y-57261904D01*
X140142857Y-57261904D01*
X140047619Y-57214285D01*
X140000000Y-57166666D01*
X139952380Y-57071428D01*
X139952380Y-56880952D01*
X140000000Y-56785714D01*
X140047619Y-56738095D01*
X140142857Y-56690476D01*
X140190476Y-56690476D01*
X140285714Y-56738095D01*
X140333333Y-56785714D01*
X140380952Y-56880952D01*
X140380952Y-57071428D01*
X140428571Y-57166666D01*
X140476190Y-57214285D01*
X140571428Y-57261904D01*
X140761904Y-57261904D01*
X140857142Y-57214285D01*
X140904761Y-57166666D01*
X140952380Y-57071428D01*
X140952380Y-56880952D01*
X140904761Y-56785714D01*
X140857142Y-56738095D01*
X140761904Y-56690476D01*
X140571428Y-56690476D01*
X140476190Y-56738095D01*
X140428571Y-56785714D01*
X140380952Y-56880952D01*
X139952380Y-56071428D02*
X139952380Y-55976190D01*
X140000000Y-55880952D01*
X140047619Y-55833333D01*
X140142857Y-55785714D01*
X140333333Y-55738095D01*
X140571428Y-55738095D01*
X140761904Y-55785714D01*
X140857142Y-55833333D01*
X140904761Y-55880952D01*
X140952380Y-55976190D01*
X140952380Y-56071428D01*
X140904761Y-56166666D01*
X140857142Y-56214285D01*
X140761904Y-56261904D01*
X140571428Y-56309523D01*
X140333333Y-56309523D01*
X140142857Y-56261904D01*
X140047619Y-56214285D01*
X140000000Y-56166666D01*
X139952380Y-56071428D01*
X139952380Y-54833333D02*
X139952380Y-55309523D01*
X140428571Y-55357142D01*
X140380952Y-55309523D01*
X140333333Y-55214285D01*
X140333333Y-54976190D01*
X140380952Y-54880952D01*
X140428571Y-54833333D01*
X140523809Y-54785714D01*
X140761904Y-54785714D01*
X140857142Y-54833333D01*
X140904761Y-54880952D01*
X140952380Y-54976190D01*
X140952380Y-55214285D01*
X140904761Y-55309523D01*
X140857142Y-55357142D01*
X140571428Y-54357142D02*
X140571428Y-53595238D01*
X140047619Y-53166666D02*
X140000000Y-53119047D01*
X139952380Y-53023809D01*
X139952380Y-52785714D01*
X140000000Y-52690476D01*
X140047619Y-52642857D01*
X140142857Y-52595238D01*
X140238095Y-52595238D01*
X140380952Y-52642857D01*
X140952380Y-53214285D01*
X140952380Y-52595238D01*
X139952380Y-51976190D02*
X139952380Y-51880952D01*
X140000000Y-51785714D01*
X140047619Y-51738095D01*
X140142857Y-51690476D01*
X140333333Y-51642857D01*
X140571428Y-51642857D01*
X140761904Y-51690476D01*
X140857142Y-51738095D01*
X140904761Y-51785714D01*
X140952380Y-51880952D01*
X140952380Y-51976190D01*
X140904761Y-52071428D01*
X140857142Y-52119047D01*
X140761904Y-52166666D01*
X140571428Y-52214285D01*
X140333333Y-52214285D01*
X140142857Y-52166666D01*
X140047619Y-52119047D01*
X140000000Y-52071428D01*
X139952380Y-51976190D01*
X139952380Y-51023809D02*
X139952380Y-50928571D01*
X140000000Y-50833333D01*
X140047619Y-50785714D01*
X140142857Y-50738095D01*
X140333333Y-50690476D01*
X140571428Y-50690476D01*
X140761904Y-50738095D01*
X140857142Y-50785714D01*
X140904761Y-50833333D01*
X140952380Y-50928571D01*
X140952380Y-51023809D01*
X140904761Y-51119047D01*
X140857142Y-51166666D01*
X140761904Y-51214285D01*
X140571428Y-51261904D01*
X140333333Y-51261904D01*
X140142857Y-51214285D01*
X140047619Y-51166666D01*
X140000000Y-51119047D01*
X139952380Y-51023809D01*
X139952380Y-50071428D02*
X139952380Y-49976190D01*
X140000000Y-49880952D01*
X140047619Y-49833333D01*
X140142857Y-49785714D01*
X140333333Y-49738095D01*
X140571428Y-49738095D01*
X140761904Y-49785714D01*
X140857142Y-49833333D01*
X140904761Y-49880952D01*
X140952380Y-49976190D01*
X140952380Y-50071428D01*
X140904761Y-50166666D01*
X140857142Y-50214285D01*
X140761904Y-50261904D01*
X140571428Y-50309523D01*
X140333333Y-50309523D01*
X140142857Y-50261904D01*
X140047619Y-50214285D01*
X140000000Y-50166666D01*
X139952380Y-50071428D01*
X140952380Y-48738095D02*
X140476190Y-49071428D01*
X140952380Y-49309523D02*
X139952380Y-49309523D01*
X139952380Y-48928571D01*
X140000000Y-48833333D01*
X140047619Y-48785714D01*
X140142857Y-48738095D01*
X140285714Y-48738095D01*
X140380952Y-48785714D01*
X140428571Y-48833333D01*
X140476190Y-48928571D01*
X140476190Y-49309523D01*
X139952380Y-48404761D02*
X139952380Y-47785714D01*
X140333333Y-48119047D01*
X140333333Y-47976190D01*
X140380952Y-47880952D01*
X140428571Y-47833333D01*
X140523809Y-47785714D01*
X140761904Y-47785714D01*
X140857142Y-47833333D01*
X140904761Y-47880952D01*
X140952380Y-47976190D01*
X140952380Y-48261904D01*
X140904761Y-48357142D01*
X140857142Y-48404761D01*
%TO.C,R5*%
X47952380Y-34166666D02*
X47476190Y-34500000D01*
X47952380Y-34738095D02*
X46952380Y-34738095D01*
X46952380Y-34357142D01*
X47000000Y-34261904D01*
X47047619Y-34214285D01*
X47142857Y-34166666D01*
X47285714Y-34166666D01*
X47380952Y-34214285D01*
X47428571Y-34261904D01*
X47476190Y-34357142D01*
X47476190Y-34738095D01*
X46952380Y-33261904D02*
X46952380Y-33738095D01*
X47428571Y-33785714D01*
X47380952Y-33738095D01*
X47333333Y-33642857D01*
X47333333Y-33404761D01*
X47380952Y-33309523D01*
X47428571Y-33261904D01*
X47523809Y-33214285D01*
X47761904Y-33214285D01*
X47857142Y-33261904D01*
X47904761Y-33309523D01*
X47952380Y-33404761D01*
X47952380Y-33642857D01*
X47904761Y-33738095D01*
X47857142Y-33785714D01*
X45952380Y-37690476D02*
X45952380Y-38261904D01*
X45952380Y-37976190D02*
X44952380Y-37976190D01*
X45095238Y-38071428D01*
X45190476Y-38166666D01*
X45238095Y-38261904D01*
X44952380Y-37071428D02*
X44952380Y-36976190D01*
X45000000Y-36880952D01*
X45047619Y-36833333D01*
X45142857Y-36785714D01*
X45333333Y-36738095D01*
X45571428Y-36738095D01*
X45761904Y-36785714D01*
X45857142Y-36833333D01*
X45904761Y-36880952D01*
X45952380Y-36976190D01*
X45952380Y-37071428D01*
X45904761Y-37166666D01*
X45857142Y-37214285D01*
X45761904Y-37261904D01*
X45571428Y-37309523D01*
X45333333Y-37309523D01*
X45142857Y-37261904D01*
X45047619Y-37214285D01*
X45000000Y-37166666D01*
X44952380Y-37071428D01*
X45952380Y-36309523D02*
X44952380Y-36309523D01*
X45952380Y-35738095D02*
X45380952Y-36166666D01*
X44952380Y-35738095D02*
X45523809Y-36309523D01*
%TO.C,TP3*%
X38121428Y-23142857D02*
X38121428Y-22380952D01*
X38502380Y-22761904D02*
X37740476Y-22761904D01*
X37502380Y-21428571D02*
X37502380Y-21904761D01*
X37978571Y-21952380D01*
X37930952Y-21904761D01*
X37883333Y-21809523D01*
X37883333Y-21571428D01*
X37930952Y-21476190D01*
X37978571Y-21428571D01*
X38073809Y-21380952D01*
X38311904Y-21380952D01*
X38407142Y-21428571D01*
X38454761Y-21476190D01*
X38502380Y-21571428D01*
X38502380Y-21809523D01*
X38454761Y-21904761D01*
X38407142Y-21952380D01*
X37502380Y-21095238D02*
X38502380Y-20761904D01*
X37502380Y-20428571D01*
X38502380Y-18857142D02*
X38502380Y-19333333D01*
X37502380Y-19333333D01*
X38502380Y-18380952D02*
X38454761Y-18476190D01*
X38407142Y-18523809D01*
X38311904Y-18571428D01*
X38026190Y-18571428D01*
X37930952Y-18523809D01*
X37883333Y-18476190D01*
X37835714Y-18380952D01*
X37835714Y-18238095D01*
X37883333Y-18142857D01*
X37930952Y-18095238D01*
X38026190Y-18047619D01*
X38311904Y-18047619D01*
X38407142Y-18095238D01*
X38454761Y-18142857D01*
X38502380Y-18238095D01*
X38502380Y-18380952D01*
X37835714Y-17190476D02*
X38645238Y-17190476D01*
X38740476Y-17238095D01*
X38788095Y-17285714D01*
X38835714Y-17380952D01*
X38835714Y-17523809D01*
X38788095Y-17619047D01*
X38454761Y-17190476D02*
X38502380Y-17285714D01*
X38502380Y-17476190D01*
X38454761Y-17571428D01*
X38407142Y-17619047D01*
X38311904Y-17666666D01*
X38026190Y-17666666D01*
X37930952Y-17619047D01*
X37883333Y-17571428D01*
X37835714Y-17476190D01*
X37835714Y-17285714D01*
X37883333Y-17190476D01*
X38502380Y-16714285D02*
X37835714Y-16714285D01*
X37502380Y-16714285D02*
X37550000Y-16761904D01*
X37597619Y-16714285D01*
X37550000Y-16666666D01*
X37502380Y-16714285D01*
X37597619Y-16714285D01*
X38454761Y-15809523D02*
X38502380Y-15904761D01*
X38502380Y-16095238D01*
X38454761Y-16190476D01*
X38407142Y-16238095D01*
X38311904Y-16285714D01*
X38026190Y-16285714D01*
X37930952Y-16238095D01*
X37883333Y-16190476D01*
X37835714Y-16095238D01*
X37835714Y-15904761D01*
X37883333Y-15809523D01*
%TO.C,C7*%
X53353333Y-27657142D02*
X53305714Y-27704761D01*
X53162857Y-27752380D01*
X53067619Y-27752380D01*
X52924761Y-27704761D01*
X52829523Y-27609523D01*
X52781904Y-27514285D01*
X52734285Y-27323809D01*
X52734285Y-27180952D01*
X52781904Y-26990476D01*
X52829523Y-26895238D01*
X52924761Y-26800000D01*
X53067619Y-26752380D01*
X53162857Y-26752380D01*
X53305714Y-26800000D01*
X53353333Y-26847619D01*
X53686666Y-26752380D02*
X54353333Y-26752380D01*
X53924761Y-27752380D01*
X52764636Y-19252380D02*
X53383684Y-19252380D01*
X53050351Y-19633333D01*
X53193208Y-19633333D01*
X53288446Y-19680952D01*
X53336065Y-19728571D01*
X53383684Y-19823809D01*
X53383684Y-20061904D01*
X53336065Y-20157142D01*
X53288446Y-20204761D01*
X53193208Y-20252380D01*
X52907493Y-20252380D01*
X52812255Y-20204761D01*
X52764636Y-20157142D01*
X53717017Y-19252380D02*
X54336065Y-19252380D01*
X54002732Y-19633333D01*
X54145589Y-19633333D01*
X54240827Y-19680952D01*
X54288446Y-19728571D01*
X54336065Y-19823809D01*
X54336065Y-20061904D01*
X54288446Y-20157142D01*
X54240827Y-20204761D01*
X54145589Y-20252380D01*
X53859874Y-20252380D01*
X53764636Y-20204761D01*
X53717017Y-20157142D01*
X55193208Y-19585714D02*
X55193208Y-20252380D01*
X54764636Y-19585714D02*
X54764636Y-20109523D01*
X54812255Y-20204761D01*
X54907493Y-20252380D01*
X55050351Y-20252380D01*
X55145589Y-20204761D01*
X55193208Y-20157142D01*
X56002732Y-19728571D02*
X55669398Y-19728571D01*
X55669398Y-20252380D02*
X55669398Y-19252380D01*
X56145589Y-19252380D01*
%TO.C,TP6*%
X25000000Y-17761904D02*
X24952380Y-17857142D01*
X24952380Y-18000000D01*
X25000000Y-18142857D01*
X25095238Y-18238095D01*
X25190476Y-18285714D01*
X25380952Y-18333333D01*
X25523809Y-18333333D01*
X25714285Y-18285714D01*
X25809523Y-18238095D01*
X25904761Y-18142857D01*
X25952380Y-18000000D01*
X25952380Y-17904761D01*
X25904761Y-17761904D01*
X25857142Y-17714285D01*
X25523809Y-17714285D01*
X25523809Y-17904761D01*
X25952380Y-17285714D02*
X24952380Y-17285714D01*
X25952380Y-16714285D01*
X24952380Y-16714285D01*
X25952380Y-16238095D02*
X24952380Y-16238095D01*
X24952380Y-16000000D01*
X25000000Y-15857142D01*
X25095238Y-15761904D01*
X25190476Y-15714285D01*
X25380952Y-15666666D01*
X25523809Y-15666666D01*
X25714285Y-15714285D01*
X25809523Y-15761904D01*
X25904761Y-15857142D01*
X25952380Y-16000000D01*
X25952380Y-16238095D01*
%TO.C,R4*%
X141452380Y-44166666D02*
X140976190Y-44500000D01*
X141452380Y-44738095D02*
X140452380Y-44738095D01*
X140452380Y-44357142D01*
X140500000Y-44261904D01*
X140547619Y-44214285D01*
X140642857Y-44166666D01*
X140785714Y-44166666D01*
X140880952Y-44214285D01*
X140928571Y-44261904D01*
X140976190Y-44357142D01*
X140976190Y-44738095D01*
X140785714Y-43309523D02*
X141452380Y-43309523D01*
X140404761Y-43547619D02*
X141119047Y-43785714D01*
X141119047Y-43166666D01*
X143452380Y-41190476D02*
X143452380Y-41761904D01*
X143452380Y-41476190D02*
X142452380Y-41476190D01*
X142595238Y-41571428D01*
X142690476Y-41666666D01*
X142738095Y-41761904D01*
X142452380Y-40571428D02*
X142452380Y-40476190D01*
X142500000Y-40380952D01*
X142547619Y-40333333D01*
X142642857Y-40285714D01*
X142833333Y-40238095D01*
X143071428Y-40238095D01*
X143261904Y-40285714D01*
X143357142Y-40333333D01*
X143404761Y-40380952D01*
X143452380Y-40476190D01*
X143452380Y-40571428D01*
X143404761Y-40666666D01*
X143357142Y-40714285D01*
X143261904Y-40761904D01*
X143071428Y-40809523D01*
X142833333Y-40809523D01*
X142642857Y-40761904D01*
X142547619Y-40714285D01*
X142500000Y-40666666D01*
X142452380Y-40571428D01*
X143452380Y-39809523D02*
X142452380Y-39809523D01*
X143452380Y-39238095D02*
X142880952Y-39666666D01*
X142452380Y-39238095D02*
X143023809Y-39809523D01*
%TO.C,U2*%
X58452380Y-32061904D02*
X59261904Y-32061904D01*
X59357142Y-32014285D01*
X59404761Y-31966666D01*
X59452380Y-31871428D01*
X59452380Y-31680952D01*
X59404761Y-31585714D01*
X59357142Y-31538095D01*
X59261904Y-31490476D01*
X58452380Y-31490476D01*
X58547619Y-31061904D02*
X58500000Y-31014285D01*
X58452380Y-30919047D01*
X58452380Y-30680952D01*
X58500000Y-30585714D01*
X58547619Y-30538095D01*
X58642857Y-30490476D01*
X58738095Y-30490476D01*
X58880952Y-30538095D01*
X59452380Y-31109523D01*
X59452380Y-30490476D01*
X55952380Y-38847619D02*
X55952380Y-39323809D01*
X54952380Y-39323809D01*
X54952380Y-38657142D02*
X54952380Y-38085714D01*
X55952380Y-38371428D02*
X54952380Y-38371428D01*
X55952380Y-37228571D02*
X55952380Y-37800000D01*
X55952380Y-37514285D02*
X54952380Y-37514285D01*
X55095238Y-37609523D01*
X55190476Y-37704761D01*
X55238095Y-37800000D01*
X54952380Y-36371428D02*
X54952380Y-36561904D01*
X55000000Y-36657142D01*
X55047619Y-36704761D01*
X55190476Y-36800000D01*
X55380952Y-36847619D01*
X55761904Y-36847619D01*
X55857142Y-36800000D01*
X55904761Y-36752380D01*
X55952380Y-36657142D01*
X55952380Y-36466666D01*
X55904761Y-36371428D01*
X55857142Y-36323809D01*
X55761904Y-36276190D01*
X55523809Y-36276190D01*
X55428571Y-36323809D01*
X55380952Y-36371428D01*
X55333333Y-36466666D01*
X55333333Y-36657142D01*
X55380952Y-36752380D01*
X55428571Y-36800000D01*
X55523809Y-36847619D01*
X55952380Y-35323809D02*
X55952380Y-35895238D01*
X55952380Y-35609523D02*
X54952380Y-35609523D01*
X55095238Y-35704761D01*
X55190476Y-35800000D01*
X55238095Y-35895238D01*
X55285714Y-34466666D02*
X55952380Y-34466666D01*
X54904761Y-34704761D02*
X55619047Y-34942857D01*
X55619047Y-34323809D01*
X55857142Y-33371428D02*
X55904761Y-33419047D01*
X55952380Y-33561904D01*
X55952380Y-33657142D01*
X55904761Y-33800000D01*
X55809523Y-33895238D01*
X55714285Y-33942857D01*
X55523809Y-33990476D01*
X55380952Y-33990476D01*
X55190476Y-33942857D01*
X55095238Y-33895238D01*
X55000000Y-33800000D01*
X54952380Y-33657142D01*
X54952380Y-33561904D01*
X55000000Y-33419047D01*
X55047619Y-33371428D01*
X55952380Y-32942857D02*
X54952380Y-32942857D01*
X55666666Y-32609523D01*
X54952380Y-32276190D01*
X55952380Y-32276190D01*
X55904761Y-31847619D02*
X55952380Y-31704761D01*
X55952380Y-31466666D01*
X55904761Y-31371428D01*
X55857142Y-31323809D01*
X55761904Y-31276190D01*
X55666666Y-31276190D01*
X55571428Y-31323809D01*
X55523809Y-31371428D01*
X55476190Y-31466666D01*
X55428571Y-31657142D01*
X55380952Y-31752380D01*
X55333333Y-31800000D01*
X55238095Y-31847619D01*
X55142857Y-31847619D01*
X55047619Y-31800000D01*
X55000000Y-31752380D01*
X54952380Y-31657142D01*
X54952380Y-31419047D01*
X55000000Y-31276190D01*
X55380952Y-30704761D02*
X55333333Y-30800000D01*
X55285714Y-30847619D01*
X55190476Y-30895238D01*
X55142857Y-30895238D01*
X55047619Y-30847619D01*
X55000000Y-30800000D01*
X54952380Y-30704761D01*
X54952380Y-30514285D01*
X55000000Y-30419047D01*
X55047619Y-30371428D01*
X55142857Y-30323809D01*
X55190476Y-30323809D01*
X55285714Y-30371428D01*
X55333333Y-30419047D01*
X55380952Y-30514285D01*
X55380952Y-30704761D01*
X55428571Y-30800000D01*
X55476190Y-30847619D01*
X55571428Y-30895238D01*
X55761904Y-30895238D01*
X55857142Y-30847619D01*
X55904761Y-30800000D01*
X55952380Y-30704761D01*
X55952380Y-30514285D01*
X55904761Y-30419047D01*
X55857142Y-30371428D01*
X55761904Y-30323809D01*
X55571428Y-30323809D01*
X55476190Y-30371428D01*
X55428571Y-30419047D01*
X55380952Y-30514285D01*
X55571428Y-29895238D02*
X55571428Y-29133333D01*
X55952380Y-28657142D02*
X54952380Y-28657142D01*
X54952380Y-28276190D01*
X55000000Y-28180952D01*
X55047619Y-28133333D01*
X55142857Y-28085714D01*
X55285714Y-28085714D01*
X55380952Y-28133333D01*
X55428571Y-28180952D01*
X55476190Y-28276190D01*
X55476190Y-28657142D01*
X55428571Y-27323809D02*
X55476190Y-27180952D01*
X55523809Y-27133333D01*
X55619047Y-27085714D01*
X55761904Y-27085714D01*
X55857142Y-27133333D01*
X55904761Y-27180952D01*
X55952380Y-27276190D01*
X55952380Y-27657142D01*
X54952380Y-27657142D01*
X54952380Y-27323809D01*
X55000000Y-27228571D01*
X55047619Y-27180952D01*
X55142857Y-27133333D01*
X55238095Y-27133333D01*
X55333333Y-27180952D01*
X55380952Y-27228571D01*
X55428571Y-27323809D01*
X55428571Y-27657142D01*
X55428571Y-26323809D02*
X55428571Y-26657142D01*
X55952380Y-26657142D02*
X54952380Y-26657142D01*
X54952380Y-26180952D01*
%TO.C,L1*%
X61333333Y-20452380D02*
X60857142Y-20452380D01*
X60857142Y-19452380D01*
X62190476Y-20452380D02*
X61619047Y-20452380D01*
X61904761Y-20452380D02*
X61904761Y-19452380D01*
X61809523Y-19595238D01*
X61714285Y-19690476D01*
X61619047Y-19738095D01*
X59761904Y-26547619D02*
X59809523Y-26500000D01*
X59904761Y-26452380D01*
X60142857Y-26452380D01*
X60238095Y-26500000D01*
X60285714Y-26547619D01*
X60333333Y-26642857D01*
X60333333Y-26738095D01*
X60285714Y-26880952D01*
X59714285Y-27452380D01*
X60333333Y-27452380D01*
X60714285Y-26547619D02*
X60761904Y-26500000D01*
X60857142Y-26452380D01*
X61095238Y-26452380D01*
X61190476Y-26500000D01*
X61238095Y-26547619D01*
X61285714Y-26642857D01*
X61285714Y-26738095D01*
X61238095Y-26880952D01*
X60666666Y-27452380D01*
X61285714Y-27452380D01*
X62142857Y-26785714D02*
X62142857Y-27452380D01*
X61714285Y-26785714D02*
X61714285Y-27309523D01*
X61761904Y-27404761D01*
X61857142Y-27452380D01*
X62000000Y-27452380D01*
X62095238Y-27404761D01*
X62142857Y-27357142D01*
X62619047Y-27452380D02*
X62619047Y-26452380D01*
X62619047Y-26928571D02*
X63190476Y-26928571D01*
X63190476Y-27452380D02*
X63190476Y-26452380D01*
D15*
%TO.C,C5*%
X58960000Y-39891000D02*
X57996000Y-39891000D01*
X62580000Y-38250000D02*
X57420000Y-38250000D01*
X61864000Y-40051000D02*
X61040000Y-40051000D01*
X61937000Y-39971000D02*
X61040000Y-39971000D01*
X62200000Y-39611000D02*
X61040000Y-39611000D01*
X58960000Y-39211000D02*
X57602000Y-39211000D01*
X58960000Y-39811000D02*
X57935000Y-39811000D01*
X58960000Y-39011000D02*
X57532000Y-39011000D01*
X62290000Y-39451000D02*
X61040000Y-39451000D01*
X62224000Y-39571000D02*
X61040000Y-39571000D01*
X58960000Y-39171000D02*
X57586000Y-39171000D01*
X61605000Y-40291000D02*
X61040000Y-40291000D01*
X61475000Y-35445225D02*
X61475000Y-35945225D01*
X62580000Y-38290000D02*
X57420000Y-38290000D01*
X58960000Y-40051000D02*
X58136000Y-40051000D01*
X61653000Y-40251000D02*
X61040000Y-40251000D01*
X58960000Y-39931000D02*
X58029000Y-39931000D01*
X58960000Y-40211000D02*
X58301000Y-40211000D01*
X61971000Y-39931000D02*
X61040000Y-39931000D01*
X58960000Y-39251000D02*
X57618000Y-39251000D01*
X62382000Y-39251000D02*
X61040000Y-39251000D01*
X58960000Y-40371000D02*
X58500000Y-40371000D01*
X62149000Y-39691000D02*
X61040000Y-39691000D01*
X58960000Y-39051000D02*
X57545000Y-39051000D01*
X58960000Y-39331000D02*
X57652000Y-39331000D01*
X61743000Y-40171000D02*
X61040000Y-40171000D01*
X62520000Y-38810000D02*
X61040000Y-38810000D01*
X62310000Y-39411000D02*
X61040000Y-39411000D01*
X58960000Y-40451000D02*
X58617000Y-40451000D01*
X62556000Y-38610000D02*
X61040000Y-38610000D01*
X62468000Y-39011000D02*
X61040000Y-39011000D01*
X58960000Y-39651000D02*
X57825000Y-39651000D01*
X58960000Y-39371000D02*
X57671000Y-39371000D01*
X62561000Y-38570000D02*
X61040000Y-38570000D01*
X58960000Y-39731000D02*
X57878000Y-39731000D01*
X61443000Y-40411000D02*
X61040000Y-40411000D01*
X60518000Y-40811000D02*
X59482000Y-40811000D01*
X58960000Y-39131000D02*
X57572000Y-39131000D01*
X60805000Y-40731000D02*
X59195000Y-40731000D01*
X58960000Y-40131000D02*
X58215000Y-40131000D01*
X58960000Y-38971000D02*
X57520000Y-38971000D01*
X62329000Y-39371000D02*
X61040000Y-39371000D01*
X62268000Y-39491000D02*
X61040000Y-39491000D01*
X58960000Y-38770000D02*
X57472000Y-38770000D01*
X58960000Y-38810000D02*
X57480000Y-38810000D01*
X61699000Y-40211000D02*
X61040000Y-40211000D01*
X62550000Y-38650000D02*
X61040000Y-38650000D01*
X62428000Y-39131000D02*
X61040000Y-39131000D01*
X62511000Y-38850000D02*
X61040000Y-38850000D01*
X61554000Y-40331000D02*
X61040000Y-40331000D01*
X62579000Y-38330000D02*
X57421000Y-38330000D01*
X58960000Y-38570000D02*
X57439000Y-38570000D01*
X62569000Y-38490000D02*
X61040000Y-38490000D01*
X62501000Y-38890000D02*
X61040000Y-38890000D01*
X62442000Y-39091000D02*
X61040000Y-39091000D01*
X58960000Y-38650000D02*
X57450000Y-38650000D01*
X62004000Y-39891000D02*
X61040000Y-39891000D01*
X60284000Y-40851000D02*
X59716000Y-40851000D01*
X61725000Y-35695225D02*
X61225000Y-35695225D01*
X61826000Y-40091000D02*
X61040000Y-40091000D01*
X62095000Y-39771000D02*
X61040000Y-39771000D01*
X62065000Y-39811000D02*
X61040000Y-39811000D01*
X58960000Y-40491000D02*
X58681000Y-40491000D01*
X62365000Y-39291000D02*
X61040000Y-39291000D01*
X58960000Y-40011000D02*
X58099000Y-40011000D01*
X62543000Y-38690000D02*
X61040000Y-38690000D01*
X62122000Y-39731000D02*
X61040000Y-39731000D01*
X61383000Y-40451000D02*
X61040000Y-40451000D01*
X60915000Y-40691000D02*
X59085000Y-40691000D01*
X58960000Y-40251000D02*
X58347000Y-40251000D01*
X61098000Y-40611000D02*
X58902000Y-40611000D01*
X58960000Y-39531000D02*
X57753000Y-39531000D01*
X58960000Y-39851000D02*
X57965000Y-39851000D01*
X58960000Y-40091000D02*
X58174000Y-40091000D01*
X58960000Y-39691000D02*
X57851000Y-39691000D01*
X62528000Y-38770000D02*
X61040000Y-38770000D01*
X58960000Y-38690000D02*
X57457000Y-38690000D01*
X58960000Y-40531000D02*
X58749000Y-40531000D01*
X58960000Y-40411000D02*
X58557000Y-40411000D01*
X58960000Y-38730000D02*
X57464000Y-38730000D01*
X62035000Y-39851000D02*
X61040000Y-39851000D01*
X62247000Y-39531000D02*
X61040000Y-39531000D01*
X62573000Y-38450000D02*
X57427000Y-38450000D01*
X58960000Y-39611000D02*
X57800000Y-39611000D01*
X58960000Y-39491000D02*
X57732000Y-39491000D01*
X62455000Y-39051000D02*
X61040000Y-39051000D01*
X58960000Y-40331000D02*
X58446000Y-40331000D01*
X58960000Y-38930000D02*
X57509000Y-38930000D01*
X58960000Y-38890000D02*
X57499000Y-38890000D01*
X58960000Y-38610000D02*
X57444000Y-38610000D01*
X62480000Y-38971000D02*
X61040000Y-38971000D01*
X58960000Y-39971000D02*
X58063000Y-39971000D01*
X61319000Y-40491000D02*
X61040000Y-40491000D01*
X58960000Y-39451000D02*
X57710000Y-39451000D01*
X62414000Y-39171000D02*
X61040000Y-39171000D01*
X58960000Y-39291000D02*
X57635000Y-39291000D01*
X58960000Y-39771000D02*
X57905000Y-39771000D01*
X60677000Y-40771000D02*
X59323000Y-40771000D01*
X62491000Y-38930000D02*
X61040000Y-38930000D01*
X62398000Y-39211000D02*
X61040000Y-39211000D01*
X62175000Y-39651000D02*
X61040000Y-39651000D01*
X58960000Y-39411000D02*
X57690000Y-39411000D01*
X58960000Y-39571000D02*
X57776000Y-39571000D01*
X61178000Y-40571000D02*
X58822000Y-40571000D01*
X62565000Y-38530000D02*
X61040000Y-38530000D01*
X61011000Y-40651000D02*
X58989000Y-40651000D01*
X61901000Y-40011000D02*
X61040000Y-40011000D01*
X61500000Y-40371000D02*
X61040000Y-40371000D01*
X62348000Y-39331000D02*
X61040000Y-39331000D01*
X58960000Y-39091000D02*
X57558000Y-39091000D01*
X58960000Y-38490000D02*
X57431000Y-38490000D01*
X62536000Y-38730000D02*
X61040000Y-38730000D01*
X61785000Y-40131000D02*
X61040000Y-40131000D01*
X58960000Y-40291000D02*
X58395000Y-40291000D01*
X58960000Y-38850000D02*
X57489000Y-38850000D01*
X61251000Y-40531000D02*
X61040000Y-40531000D01*
X58960000Y-38530000D02*
X57435000Y-38530000D01*
X58960000Y-40171000D02*
X58257000Y-40171000D01*
X62578000Y-38370000D02*
X57422000Y-38370000D01*
X62576000Y-38410000D02*
X57424000Y-38410000D01*
X62620000Y-38250000D02*
G75*
G03*
X62620000Y-38250000I-2620000J0D01*
G01*
%TO.C,R3*%
X50930000Y-28072936D02*
X50930000Y-29527064D01*
X49110000Y-28072936D02*
X49110000Y-29527064D01*
%TO.C,R9*%
X35410000Y-55272936D02*
X35410000Y-56727064D01*
X33590000Y-55272936D02*
X33590000Y-56727064D01*
%TO.C,SW1*%
X20000000Y-46500000D02*
X20000000Y-58500000D01*
X12000000Y-58500000D02*
X12000000Y-46500000D01*
X13000000Y-45500000D02*
X19000000Y-45500000D01*
X19000000Y-59500000D02*
X13000000Y-59500000D01*
%TO.C,R6*%
X68727064Y-53090000D02*
X67272936Y-53090000D01*
X68727064Y-54910000D02*
X67272936Y-54910000D01*
%TO.C,D4*%
X32790000Y-56045000D02*
X32790000Y-52955000D01*
X32790000Y-52955170D02*
G75*
G03*
X27240000Y-54500462I-2560000J-1544830D01*
G01*
X27240000Y-54499538D02*
G75*
G03*
X32790000Y-56044830I2990000J-462D01*
G01*
X32730000Y-54500000D02*
G75*
G03*
X32730000Y-54500000I-2500000J0D01*
G01*
%TO.C,D2*%
X64460000Y-36360000D02*
X64460000Y-33500000D01*
X62540000Y-36360000D02*
X64460000Y-36360000D01*
X62540000Y-33500000D02*
X62540000Y-36360000D01*
%TO.C,C4*%
X62590000Y-29288748D02*
X62590000Y-30711252D01*
X64410000Y-29288748D02*
X64410000Y-30711252D01*
%TO.C,C1*%
X32372600Y-59660000D02*
X32372600Y-58506000D01*
X32211600Y-59660000D02*
X32211600Y-58560000D01*
X32292600Y-59660000D02*
X32292600Y-58532000D01*
X32772600Y-59660000D02*
X32772600Y-58429000D01*
X32251600Y-59660000D02*
X32251600Y-58546000D01*
X32692600Y-62562000D02*
X32692600Y-61340000D01*
X31531600Y-59660000D02*
X31531600Y-58984000D01*
X31771600Y-62208000D02*
X31771600Y-61340000D01*
X31051600Y-61359000D02*
X31051600Y-59641000D01*
X30931600Y-61037000D02*
X30931600Y-59963000D01*
X31611600Y-59660000D02*
X31611600Y-58913000D01*
X32171600Y-62424000D02*
X32171600Y-61340000D01*
X32892600Y-62579000D02*
X32892600Y-58421000D01*
X32532600Y-59660000D02*
X32532600Y-58466000D01*
X32732600Y-59660000D02*
X32732600Y-58433000D01*
X31931600Y-62308000D02*
X31931600Y-61340000D01*
X32692600Y-59660000D02*
X32692600Y-58438000D01*
X31811600Y-59660000D02*
X31811600Y-58765000D01*
X32452600Y-62516000D02*
X32452600Y-61340000D01*
X32051600Y-62370000D02*
X32051600Y-61340000D01*
X32091600Y-59660000D02*
X32091600Y-58611000D01*
X32332600Y-59660000D02*
X32332600Y-58518000D01*
X32612600Y-59660000D02*
X32612600Y-58450000D01*
X31211600Y-61642000D02*
X31211600Y-61340000D01*
X31651600Y-62119000D02*
X31651600Y-61340000D01*
X32612600Y-62550000D02*
X32612600Y-61340000D01*
X32372600Y-62494000D02*
X32372600Y-61340000D01*
X31771600Y-59660000D02*
X31771600Y-58792000D01*
X31011600Y-61268000D02*
X31011600Y-59732000D01*
X31931600Y-59660000D02*
X31931600Y-58692000D01*
X31691600Y-59660000D02*
X31691600Y-58850000D01*
X32812600Y-62574000D02*
X32812600Y-58426000D01*
X31811600Y-62235000D02*
X31811600Y-61340000D01*
X31091600Y-61440000D02*
X31091600Y-59560000D01*
X31451600Y-59660000D02*
X31451600Y-59062000D01*
X31651600Y-59660000D02*
X31651600Y-58881000D01*
X31891600Y-59660000D02*
X31891600Y-58715000D01*
X32211600Y-62440000D02*
X32211600Y-61340000D01*
X32412600Y-62505000D02*
X32412600Y-61340000D01*
X31331600Y-61804000D02*
X31331600Y-61340000D01*
X32251600Y-62454000D02*
X32251600Y-61340000D01*
X32091600Y-62389000D02*
X32091600Y-61340000D01*
X31251600Y-59660000D02*
X31251600Y-59300000D01*
X31531600Y-62016000D02*
X31531600Y-61340000D01*
X32852600Y-62577000D02*
X32852600Y-58423000D01*
X32292600Y-62468000D02*
X32292600Y-61340000D01*
X30971600Y-61164000D02*
X30971600Y-59836000D01*
X31571600Y-59660000D02*
X31571600Y-58948000D01*
X31971600Y-59660000D02*
X31971600Y-58670000D01*
X31411600Y-59660000D02*
X31411600Y-59104000D01*
X31411600Y-61896000D02*
X31411600Y-61340000D01*
X32932600Y-62580000D02*
X32932600Y-58420000D01*
X32011600Y-62351000D02*
X32011600Y-61340000D01*
X31851600Y-62260000D02*
X31851600Y-61340000D01*
X32772600Y-62571000D02*
X32772600Y-61340000D01*
X32652600Y-59660000D02*
X32652600Y-58444000D01*
X35242401Y-61695000D02*
X34842401Y-61695000D01*
X31731600Y-59660000D02*
X31731600Y-58820000D01*
X35042401Y-61895000D02*
X35042401Y-61495000D01*
X31491600Y-59660000D02*
X31491600Y-59022000D01*
X32732600Y-62567000D02*
X32732600Y-61340000D01*
X32412600Y-59660000D02*
X32412600Y-58495000D01*
X31571600Y-62052000D02*
X31571600Y-61340000D01*
X31371600Y-61851000D02*
X31371600Y-61340000D01*
X32171600Y-59660000D02*
X32171600Y-58576000D01*
X31131600Y-61513000D02*
X31131600Y-59487000D01*
X32572600Y-62542000D02*
X32572600Y-61340000D01*
X31291600Y-61754000D02*
X31291600Y-61340000D01*
X32332600Y-62482000D02*
X32332600Y-61340000D01*
X31171600Y-61580000D02*
X31171600Y-61340000D01*
X32572600Y-59660000D02*
X32572600Y-58458000D01*
X32492600Y-62525000D02*
X32492600Y-61340000D01*
X31891600Y-62285000D02*
X31891600Y-61340000D01*
X32492600Y-59660000D02*
X32492600Y-58475000D01*
X31251600Y-61700000D02*
X31251600Y-61340000D01*
X31451600Y-61938000D02*
X31451600Y-61340000D01*
X31371600Y-59660000D02*
X31371600Y-59149000D01*
X31971600Y-62330000D02*
X31971600Y-61340000D01*
X30891600Y-60870000D02*
X30891600Y-60130000D01*
X31611600Y-62087000D02*
X31611600Y-61340000D01*
X32051600Y-59660000D02*
X32051600Y-58630000D01*
X31171600Y-59660000D02*
X31171600Y-59420000D01*
X31291600Y-59660000D02*
X31291600Y-59246000D01*
X31691600Y-62150000D02*
X31691600Y-61340000D01*
X31851600Y-59660000D02*
X31851600Y-58740000D01*
X31331600Y-59660000D02*
X31331600Y-59196000D01*
X32011600Y-59660000D02*
X32011600Y-58649000D01*
X31211600Y-59660000D02*
X31211600Y-59358000D01*
X32532600Y-62534000D02*
X32532600Y-61340000D01*
X32131600Y-59660000D02*
X32131600Y-58593000D01*
X31731600Y-62180000D02*
X31731600Y-61340000D01*
X32131600Y-62407000D02*
X32131600Y-61340000D01*
X32652600Y-62556000D02*
X32652600Y-61340000D01*
X31491600Y-61978000D02*
X31491600Y-61340000D01*
X32452600Y-59660000D02*
X32452600Y-58484000D01*
X32972600Y-62580000D02*
X32972600Y-58420000D01*
X35092600Y-60500000D02*
G75*
G03*
X35092600Y-60500000I-2120000J0D01*
G01*
%TO.C,PJ4*%
X26000000Y-68060000D02*
X24940000Y-68060000D01*
X27000000Y-68060000D02*
X49060000Y-68060000D01*
X27000000Y-68060000D02*
X27000000Y-65940000D01*
X49060000Y-68060000D02*
X49060000Y-65940000D01*
X27000000Y-65940000D02*
X49060000Y-65940000D01*
X24940000Y-68060000D02*
X24940000Y-67000000D01*
%TO.C,TP1*%
X28950000Y-14000000D02*
G75*
G03*
X28950000Y-14000000I-950000J0D01*
G01*
%TO.C,TP4*%
X33950000Y-14000000D02*
G75*
G03*
X33950000Y-14000000I-950000J0D01*
G01*
D16*
%TO.C,PS1*%
X119750000Y-43550000D02*
X119750000Y-37450000D01*
X139250000Y-43550000D02*
X139250000Y-37450000D01*
X139250000Y-43550000D02*
X119750000Y-43550000D01*
X139250000Y-37450000D02*
X119750000Y-37450000D01*
D14*
X119162000Y-38825000D02*
G75*
G03*
X119162000Y-38825000I-100000J0D01*
G01*
D15*
%TO.C,TP2*%
X36500000Y-14000000D02*
G75*
G03*
X36500000Y-14000000I-950000J0D01*
G01*
%TO.C,PJ1*%
X25900000Y-39442500D02*
X25900000Y-42142500D01*
X25050000Y-32742500D02*
X26100000Y-32742500D01*
X11200000Y-42142500D02*
X11200000Y-32942500D01*
X11200000Y-32942500D02*
X25900000Y-32942500D01*
X25900000Y-32942500D02*
X25900000Y-35542500D01*
X26100000Y-33792500D02*
X26100000Y-32742500D01*
X25900000Y-42142500D02*
X24000000Y-42142500D01*
X20000000Y-42142500D02*
X11200000Y-42142500D01*
%TO.C,PJ6*%
X147725000Y-69330000D02*
X146395000Y-69330000D01*
X148995000Y-69330000D02*
X151595000Y-69330000D01*
X146395000Y-69330000D02*
X146395000Y-68000000D01*
X151595000Y-69330000D02*
X151595000Y-66670000D01*
X148995000Y-66670000D02*
X151595000Y-66670000D01*
X148995000Y-69330000D02*
X148995000Y-66670000D01*
%TO.C,L2*%
X71100000Y-31700000D02*
X71100000Y-37300000D01*
X65900000Y-31700000D02*
X67000000Y-31700000D01*
X67000000Y-37300000D02*
X65900000Y-37300000D01*
X70000000Y-31700000D02*
X71100000Y-31700000D01*
X65900000Y-37300000D02*
X65900000Y-31700000D01*
X71100000Y-37300000D02*
X70000000Y-37300000D01*
%TO.C,R7*%
X64227064Y-51641250D02*
X62772936Y-51641250D01*
X64227064Y-53461250D02*
X62772936Y-53461250D01*
%TO.C,U1*%
X64700000Y-49261250D02*
X68300000Y-49261250D01*
X66500000Y-44811249D02*
G75*
G03*
X64661522Y-49249728I0J-2600001D01*
G01*
X68338478Y-49249728D02*
G75*
G03*
X66500000Y-44811250I-1838478J1838478D01*
G01*
%TO.C,R8*%
X68727064Y-51910000D02*
X67272936Y-51910000D01*
X68727064Y-50090000D02*
X67272936Y-50090000D01*
%TO.C,R1*%
X52410000Y-36772936D02*
X52410000Y-38227064D01*
X50590000Y-36772936D02*
X50590000Y-38227064D01*
%TO.C,D1*%
X35100000Y-44865000D02*
X31215000Y-44865000D01*
X31215000Y-47135000D02*
X35100000Y-47135000D01*
X31215000Y-44865000D02*
X31215000Y-47135000D01*
%TO.C,C6*%
X50775000Y-24561252D02*
X50775000Y-24038748D01*
X49305000Y-24561252D02*
X49305000Y-24038748D01*
%TO.C,C2*%
X32735000Y-41261252D02*
X32735000Y-40738748D01*
X31265000Y-41261252D02*
X31265000Y-40738748D01*
%TO.C,U3*%
X39175000Y-58620000D02*
X43816000Y-58620000D01*
X40685000Y-58620000D02*
X40685000Y-48380000D01*
X43816000Y-58620000D02*
X43816000Y-48380000D01*
X39175000Y-55350000D02*
X40685000Y-55350000D01*
X39175000Y-58620000D02*
X39175000Y-48380000D01*
X39175000Y-48380000D02*
X43816000Y-48380000D01*
X39175000Y-51649000D02*
X40685000Y-51649000D01*
%TO.C,PJ5*%
X137470000Y-69330000D02*
X145150000Y-69330000D01*
X136200000Y-69330000D02*
X134870000Y-69330000D01*
X137470000Y-69330000D02*
X137470000Y-66670000D01*
X145150000Y-69330000D02*
X145150000Y-66670000D01*
X134870000Y-69330000D02*
X134870000Y-68000000D01*
X137470000Y-66670000D02*
X145150000Y-66670000D01*
%TO.C,J1*%
X41170000Y-15330000D02*
X41170000Y-14000000D01*
X43770000Y-15330000D02*
X43770000Y-12670000D01*
X48910000Y-15330000D02*
X48910000Y-12670000D01*
X43770000Y-12670000D02*
X48910000Y-12670000D01*
X42500000Y-15330000D02*
X41170000Y-15330000D01*
X43770000Y-15330000D02*
X48910000Y-15330000D01*
%TO.C,TP5*%
X31450000Y-14000000D02*
G75*
G03*
X31450000Y-14000000I-950000J0D01*
G01*
%TO.C,C3*%
X34215000Y-39391600D02*
X35160000Y-39391600D01*
X36840000Y-38991600D02*
X37478000Y-38991600D01*
X36840000Y-39631600D02*
X37907000Y-39631600D01*
X34111000Y-39591600D02*
X35160000Y-39591600D01*
X36840000Y-38751600D02*
X37200000Y-38751600D01*
X36840000Y-39471600D02*
X37830000Y-39471600D01*
X33950000Y-40112600D02*
X35160000Y-40112600D01*
X34170000Y-39471600D02*
X35160000Y-39471600D01*
X36840000Y-39271600D02*
X37708000Y-39271600D01*
X35141000Y-38551600D02*
X36859000Y-38551600D01*
X36840000Y-39351600D02*
X37760000Y-39351600D01*
X34320000Y-39231600D02*
X35160000Y-39231600D01*
X34032000Y-39792600D02*
X35160000Y-39792600D01*
X34413000Y-39111600D02*
X35160000Y-39111600D01*
X33984000Y-39952600D02*
X35160000Y-39952600D01*
X36840000Y-40272600D02*
X38071000Y-40272600D01*
X36840000Y-38831600D02*
X37304000Y-38831600D01*
X34805000Y-42742401D02*
X34805000Y-42342401D01*
X36840000Y-39391600D02*
X37785000Y-39391600D01*
X34292000Y-39271600D02*
X35160000Y-39271600D01*
X34006000Y-39872600D02*
X35160000Y-39872600D01*
X33944000Y-40152600D02*
X35160000Y-40152600D01*
X36840000Y-39992600D02*
X38025000Y-39992600D01*
X34018000Y-39832600D02*
X35160000Y-39832600D01*
X34746000Y-38791600D02*
X35160000Y-38791600D01*
X36840000Y-40192600D02*
X38062000Y-40192600D01*
X36840000Y-38871600D02*
X37351000Y-38871600D01*
X36840000Y-40112600D02*
X38050000Y-40112600D01*
X33966000Y-40032600D02*
X35160000Y-40032600D01*
X34192000Y-39431600D02*
X35160000Y-39431600D01*
X34696000Y-38831600D02*
X35160000Y-38831600D01*
X33958000Y-40072600D02*
X35160000Y-40072600D01*
X34381000Y-39151600D02*
X35160000Y-39151600D01*
X34987000Y-38631600D02*
X37013000Y-38631600D01*
X33920000Y-40472600D02*
X38080000Y-40472600D01*
X36840000Y-38791600D02*
X37254000Y-38791600D01*
X33929000Y-40272600D02*
X35160000Y-40272600D01*
X34448000Y-39071600D02*
X35160000Y-39071600D01*
X34060000Y-39711600D02*
X35160000Y-39711600D01*
X36840000Y-39872600D02*
X37994000Y-39872600D01*
X36840000Y-40032600D02*
X38034000Y-40032600D01*
X34093000Y-39631600D02*
X35160000Y-39631600D01*
X36840000Y-39591600D02*
X37889000Y-39591600D01*
X36840000Y-39551600D02*
X37870000Y-39551600D01*
X36840000Y-39231600D02*
X37680000Y-39231600D01*
X36840000Y-39311600D02*
X37735000Y-39311600D01*
X34858000Y-38711600D02*
X35160000Y-38711600D01*
X36840000Y-39031600D02*
X37516000Y-39031600D01*
X33923000Y-40352600D02*
X38077000Y-40352600D01*
X34149000Y-39511600D02*
X35160000Y-39511600D01*
X34800000Y-38751600D02*
X35160000Y-38751600D01*
X34046000Y-39751600D02*
X35160000Y-39751600D01*
X34605000Y-42542401D02*
X35005000Y-42542401D01*
X33933000Y-40232600D02*
X35160000Y-40232600D01*
X33995000Y-39912600D02*
X35160000Y-39912600D01*
X36840000Y-39912600D02*
X38005000Y-39912600D01*
X36840000Y-39671600D02*
X37924000Y-39671600D01*
X35232000Y-38511600D02*
X36768000Y-38511600D01*
X36840000Y-39111600D02*
X37587000Y-39111600D01*
X36840000Y-40072600D02*
X38042000Y-40072600D01*
X33920000Y-40432600D02*
X38080000Y-40432600D01*
X36840000Y-38671600D02*
X37080000Y-38671600D01*
X34522000Y-38991600D02*
X35160000Y-38991600D01*
X35630000Y-38391600D02*
X36370000Y-38391600D01*
X36840000Y-39832600D02*
X37982000Y-39832600D01*
X36840000Y-39792600D02*
X37968000Y-39792600D01*
X34604000Y-38911600D02*
X35160000Y-38911600D01*
X34562000Y-38951600D02*
X35160000Y-38951600D01*
X36840000Y-39952600D02*
X38016000Y-39952600D01*
X36840000Y-39431600D02*
X37808000Y-39431600D01*
X34920000Y-38671600D02*
X35160000Y-38671600D01*
X36840000Y-38911600D02*
X37396000Y-38911600D01*
X34076000Y-39671600D02*
X35160000Y-39671600D01*
X34649000Y-38871600D02*
X35160000Y-38871600D01*
X36840000Y-39071600D02*
X37552000Y-39071600D01*
X36840000Y-38711600D02*
X37142000Y-38711600D01*
X34484000Y-39031600D02*
X35160000Y-39031600D01*
X36840000Y-39511600D02*
X37851000Y-39511600D01*
X34130000Y-39551600D02*
X35160000Y-39551600D01*
X34350000Y-39191600D02*
X35160000Y-39191600D01*
X33938000Y-40192600D02*
X35160000Y-40192600D01*
X36840000Y-40232600D02*
X38067000Y-40232600D01*
X35060000Y-38591600D02*
X36940000Y-38591600D01*
X33926000Y-40312600D02*
X38074000Y-40312600D01*
X36840000Y-40152600D02*
X38056000Y-40152600D01*
X35336000Y-38471600D02*
X36664000Y-38471600D01*
X36840000Y-38951600D02*
X37438000Y-38951600D01*
X36840000Y-39711600D02*
X37940000Y-39711600D01*
X33921000Y-40392600D02*
X38079000Y-40392600D01*
X36840000Y-39151600D02*
X37619000Y-39151600D01*
X34240000Y-39351600D02*
X35160000Y-39351600D01*
X36840000Y-39751600D02*
X37954000Y-39751600D01*
X35463000Y-38431600D02*
X36537000Y-38431600D01*
X34265000Y-39311600D02*
X35160000Y-39311600D01*
X33975000Y-39992600D02*
X35160000Y-39992600D01*
X36840000Y-39191600D02*
X37650000Y-39191600D01*
X38120000Y-40472600D02*
G75*
G03*
X38120000Y-40472600I-2120000J0D01*
G01*
%TO.C,F1*%
X28397936Y-47640000D02*
X29602064Y-47640000D01*
X28397936Y-50360000D02*
X29602064Y-50360000D01*
%TO.C,R2*%
X54890000Y-36772936D02*
X54890000Y-38227064D01*
X53070000Y-36772936D02*
X53070000Y-38227064D01*
%TO.C,U4*%
X139510000Y-58740000D02*
X134869000Y-58740000D01*
X134869000Y-48500000D02*
X134869000Y-58740000D01*
X139510000Y-48500000D02*
X134869000Y-48500000D01*
X138000000Y-48500000D02*
X138000000Y-58740000D01*
X139510000Y-55471000D02*
X138000000Y-55471000D01*
X139510000Y-51770000D02*
X138000000Y-51770000D01*
X139510000Y-48500000D02*
X139510000Y-58740000D01*
%TO.C,R5*%
X48410000Y-38227064D02*
X48410000Y-36772936D01*
X46590000Y-38227064D02*
X46590000Y-36772936D01*
%TO.C,TP3*%
X39000000Y-14000000D02*
G75*
G03*
X39000000Y-14000000I-950000J0D01*
G01*
%TO.C,C7*%
X53174113Y-22260000D02*
X53174113Y-21053000D01*
X52294113Y-24743000D02*
X52294113Y-24340000D01*
X53574113Y-22260000D02*
X53574113Y-20872000D01*
X53815113Y-22260000D02*
X53815113Y-20799000D01*
X52334113Y-24800000D02*
X52334113Y-24340000D01*
X53134113Y-25524000D02*
X53134113Y-24340000D01*
X52254113Y-22260000D02*
X52254113Y-21917000D01*
X52774113Y-25271000D02*
X52774113Y-24340000D01*
X52894113Y-25365000D02*
X52894113Y-24340000D01*
X53694113Y-25768000D02*
X53694113Y-24340000D01*
X52574113Y-25085000D02*
X52574113Y-24340000D01*
X53214113Y-25568000D02*
X53214113Y-24340000D01*
X52534113Y-25043000D02*
X52534113Y-24340000D01*
X53094113Y-22260000D02*
X53094113Y-21100000D01*
X53454113Y-22260000D02*
X53454113Y-20918000D01*
X52534113Y-22260000D02*
X52534113Y-21557000D01*
X52094113Y-24398000D02*
X52094113Y-22202000D01*
X54095113Y-25856000D02*
X54095113Y-24340000D01*
X52934113Y-22260000D02*
X52934113Y-21205000D01*
X53414113Y-22260000D02*
X53414113Y-20935000D01*
X52654113Y-25164000D02*
X52654113Y-24340000D01*
X53014113Y-25449000D02*
X53014113Y-24340000D01*
X53054113Y-22260000D02*
X53054113Y-21125000D01*
X52814113Y-25304000D02*
X52814113Y-24340000D01*
X53094113Y-25500000D02*
X53094113Y-24340000D01*
X52854113Y-25335000D02*
X52854113Y-24340000D01*
X52614113Y-25126000D02*
X52614113Y-24340000D01*
X52894113Y-22260000D02*
X52894113Y-21235000D01*
X53895113Y-25820000D02*
X53895113Y-24340000D01*
X52974113Y-22260000D02*
X52974113Y-21178000D01*
X52454113Y-22260000D02*
X52454113Y-21647000D01*
X52614113Y-22260000D02*
X52614113Y-21474000D01*
X52774113Y-22260000D02*
X52774113Y-21329000D01*
X52414113Y-24905000D02*
X52414113Y-24340000D01*
X52734113Y-22260000D02*
X52734113Y-21363000D01*
X53614113Y-25742000D02*
X53614113Y-24340000D01*
X52414113Y-22260000D02*
X52414113Y-21695000D01*
X54055113Y-25850000D02*
X54055113Y-24340000D01*
X53855113Y-25811000D02*
X53855113Y-24340000D01*
X51934113Y-23977000D02*
X51934113Y-22623000D01*
X53174113Y-25547000D02*
X53174113Y-24340000D01*
X53294113Y-25610000D02*
X53294113Y-24340000D01*
X52054113Y-24311000D02*
X52054113Y-22289000D01*
X53574113Y-25728000D02*
X53574113Y-24340000D01*
X53214113Y-22260000D02*
X53214113Y-21032000D01*
X53935113Y-25828000D02*
X53935113Y-24340000D01*
X52814113Y-22260000D02*
X52814113Y-21296000D01*
X53254113Y-25590000D02*
X53254113Y-24340000D01*
X53414113Y-25665000D02*
X53414113Y-24340000D01*
X57009888Y-25025000D02*
X57009888Y-24525000D01*
X53534113Y-22260000D02*
X53534113Y-20886000D01*
X52934113Y-25395000D02*
X52934113Y-24340000D01*
X53014113Y-22260000D02*
X53014113Y-21151000D01*
X52694113Y-25201000D02*
X52694113Y-24340000D01*
X52134113Y-24478000D02*
X52134113Y-22122000D01*
X53334113Y-25629000D02*
X53334113Y-24340000D01*
X53254113Y-22260000D02*
X53254113Y-21010000D01*
X53374113Y-25648000D02*
X53374113Y-24340000D01*
X54015113Y-22260000D02*
X54015113Y-20757000D01*
X54015113Y-25843000D02*
X54015113Y-24340000D01*
X52854113Y-22260000D02*
X52854113Y-21265000D01*
X53654113Y-25755000D02*
X53654113Y-24340000D01*
X53054113Y-25475000D02*
X53054113Y-24340000D01*
X52374113Y-24854000D02*
X52374113Y-24340000D01*
X53895113Y-22260000D02*
X53895113Y-20780000D01*
X53775113Y-22260000D02*
X53775113Y-20809000D01*
X54415113Y-25880000D02*
X54415113Y-20720000D01*
X54135113Y-22260000D02*
X54135113Y-20739000D01*
X53734113Y-22260000D02*
X53734113Y-20820000D01*
X51894113Y-23818000D02*
X51894113Y-22782000D01*
X53775113Y-25791000D02*
X53775113Y-24340000D01*
X53855113Y-22260000D02*
X53855113Y-20789000D01*
X51974113Y-24105000D02*
X51974113Y-22495000D01*
X53534113Y-25714000D02*
X53534113Y-24340000D01*
X52174113Y-24551000D02*
X52174113Y-24340000D01*
X53374113Y-22260000D02*
X53374113Y-20952000D01*
X52574113Y-22260000D02*
X52574113Y-21515000D01*
X54135113Y-25861000D02*
X54135113Y-24340000D01*
X53734113Y-25780000D02*
X53734113Y-24340000D01*
X54335113Y-25878000D02*
X54335113Y-20722000D01*
X57259888Y-24775000D02*
X56759888Y-24775000D01*
X53494113Y-22260000D02*
X53494113Y-20902000D01*
X52454113Y-24953000D02*
X52454113Y-24340000D01*
X52014113Y-24215000D02*
X52014113Y-22385000D01*
X54215113Y-22260000D02*
X54215113Y-20731000D01*
X54455113Y-25880000D02*
X54455113Y-20720000D01*
X53134113Y-22260000D02*
X53134113Y-21076000D01*
X52494113Y-22260000D02*
X52494113Y-21601000D01*
X54055113Y-22260000D02*
X54055113Y-20750000D01*
X52294113Y-22260000D02*
X52294113Y-21857000D01*
X53975113Y-25836000D02*
X53975113Y-24340000D01*
X53614113Y-22260000D02*
X53614113Y-20858000D01*
X53975113Y-22260000D02*
X53975113Y-20764000D01*
X54215113Y-25869000D02*
X54215113Y-24340000D01*
X54255113Y-25873000D02*
X54255113Y-20727000D01*
X52214113Y-24619000D02*
X52214113Y-24340000D01*
X53935113Y-22260000D02*
X53935113Y-20772000D01*
X52694113Y-22260000D02*
X52694113Y-21399000D01*
X52334113Y-22260000D02*
X52334113Y-21800000D01*
X53454113Y-25682000D02*
X53454113Y-24340000D01*
X54095113Y-22260000D02*
X54095113Y-20744000D01*
X52374113Y-22260000D02*
X52374113Y-21746000D01*
X52974113Y-25422000D02*
X52974113Y-24340000D01*
X52654113Y-22260000D02*
X52654113Y-21436000D01*
X53815113Y-25801000D02*
X53815113Y-24340000D01*
X54295113Y-25876000D02*
X54295113Y-20724000D01*
X52494113Y-24999000D02*
X52494113Y-24340000D01*
X53494113Y-25698000D02*
X53494113Y-24340000D01*
X53694113Y-22260000D02*
X53694113Y-20832000D01*
X52174113Y-22260000D02*
X52174113Y-22049000D01*
X53334113Y-22260000D02*
X53334113Y-20971000D01*
X54175113Y-25865000D02*
X54175113Y-24340000D01*
X52254113Y-24683000D02*
X52254113Y-24340000D01*
X52214113Y-22260000D02*
X52214113Y-21981000D01*
X53294113Y-22260000D02*
X53294113Y-20990000D01*
X53654113Y-22260000D02*
X53654113Y-20845000D01*
X52734113Y-25237000D02*
X52734113Y-24340000D01*
X54175113Y-22260000D02*
X54175113Y-20735000D01*
X51854113Y-23584000D02*
X51854113Y-23016000D01*
X54375113Y-25879000D02*
X54375113Y-20721000D01*
X57075113Y-23300000D02*
G75*
G03*
X57075113Y-23300000I-2620000J0D01*
G01*
%TO.C,TP6*%
X26450000Y-14000000D02*
G75*
G03*
X26450000Y-14000000I-950000J0D01*
G01*
%TO.C,R4*%
X140090000Y-39772936D02*
X140090000Y-41227064D01*
X141910000Y-39772936D02*
X141910000Y-41227064D01*
%TO.C,U2*%
X61655000Y-31300000D02*
X61655000Y-29350000D01*
X56385000Y-31300000D02*
X56385000Y-29350000D01*
X56385000Y-31300000D02*
X56385000Y-34750000D01*
X61655000Y-31300000D02*
X61655000Y-33250000D01*
%TO.C,L1*%
X58700000Y-22000000D02*
X58700000Y-20900000D01*
X58700000Y-26100000D02*
X58700000Y-25000000D01*
X58700000Y-20900000D02*
X64300000Y-20900000D01*
X64300000Y-20900000D02*
X64300000Y-22000000D01*
X64300000Y-25000000D02*
X64300000Y-26100000D01*
X64300000Y-26100000D02*
X58700000Y-26100000D01*
%TD*%
M02*
