%TF.GenerationSoftware,KiCad,Pcbnew,(6.0.4)*%
%TF.CreationDate,2022-04-19T19:36:52+10:00*%
%TF.ProjectId,T1200_PSU,54313230-305f-4505-9355-2e6b69636164,rev?*%
%TF.SameCoordinates,Original*%
%TF.FileFunction,Copper,L2,Bot*%
%TF.FilePolarity,Positive*%
%FSLAX46Y46*%
G04 Gerber Fmt 4.6, Leading zero omitted, Abs format (unit mm)*
G04 Created by KiCad (PCBNEW (6.0.4)) date 2022-04-19 19:36:52*
%MOMM*%
%LPD*%
G01*
G04 APERTURE LIST*
G04 Aperture macros list*
%AMRoundRect*
0 Rectangle with rounded corners*
0 $1 Rounding radius*
0 $2 $3 $4 $5 $6 $7 $8 $9 X,Y pos of 4 corners*
0 Add a 4 corners polygon primitive as box body*
4,1,4,$2,$3,$4,$5,$6,$7,$8,$9,$2,$3,0*
0 Add four circle primitives for the rounded corners*
1,1,$1+$1,$2,$3*
1,1,$1+$1,$4,$5*
1,1,$1+$1,$6,$7*
1,1,$1+$1,$8,$9*
0 Add four rect primitives between the rounded corners*
20,1,$1+$1,$2,$3,$4,$5,0*
20,1,$1+$1,$4,$5,$6,$7,0*
20,1,$1+$1,$6,$7,$8,$9,0*
20,1,$1+$1,$8,$9,$2,$3,0*%
G04 Aperture macros list end*
%TA.AperFunction,ComponentPad*%
%ADD10R,1.600000X1.600000*%
%TD*%
%TA.AperFunction,ComponentPad*%
%ADD11C,1.600000*%
%TD*%
%TA.AperFunction,ComponentPad*%
%ADD12O,3.300000X2.000000*%
%TD*%
%TA.AperFunction,ComponentPad*%
%ADD13R,1.800000X1.800000*%
%TD*%
%TA.AperFunction,ComponentPad*%
%ADD14C,1.800000*%
%TD*%
%TA.AperFunction,ComponentPad*%
%ADD15R,1.200000X1.200000*%
%TD*%
%TA.AperFunction,ComponentPad*%
%ADD16C,1.200000*%
%TD*%
%TA.AperFunction,ComponentPad*%
%ADD17R,1.350000X1.350000*%
%TD*%
%TA.AperFunction,ComponentPad*%
%ADD18O,1.350000X1.350000*%
%TD*%
%TA.AperFunction,ComponentPad*%
%ADD19R,1.218000X1.218000*%
%TD*%
%TA.AperFunction,ComponentPad*%
%ADD20C,1.218000*%
%TD*%
%TA.AperFunction,ComponentPad*%
%ADD21R,3.500000X3.500000*%
%TD*%
%TA.AperFunction,ComponentPad*%
%ADD22RoundRect,0.750000X-0.750000X-1.000000X0.750000X-1.000000X0.750000X1.000000X-0.750000X1.000000X0*%
%TD*%
%TA.AperFunction,ComponentPad*%
%ADD23RoundRect,0.875000X-0.875000X-0.875000X0.875000X-0.875000X0.875000X0.875000X-0.875000X0.875000X0*%
%TD*%
%TA.AperFunction,ComponentPad*%
%ADD24R,1.700000X1.700000*%
%TD*%
%TA.AperFunction,ComponentPad*%
%ADD25O,1.700000X1.700000*%
%TD*%
%TA.AperFunction,ComponentPad*%
%ADD26R,1.050000X1.500000*%
%TD*%
%TA.AperFunction,ComponentPad*%
%ADD27O,1.050000X1.500000*%
%TD*%
%TA.AperFunction,ComponentPad*%
%ADD28R,2.000000X1.905000*%
%TD*%
%TA.AperFunction,ComponentPad*%
%ADD29O,2.000000X1.905000*%
%TD*%
%TA.AperFunction,ViaPad*%
%ADD30C,1.000000*%
%TD*%
%TA.AperFunction,ViaPad*%
%ADD31C,0.800000*%
%TD*%
%TA.AperFunction,ViaPad*%
%ADD32C,1.500000*%
%TD*%
%TA.AperFunction,Conductor*%
%ADD33C,2.000000*%
%TD*%
%TA.AperFunction,Conductor*%
%ADD34C,1.000000*%
%TD*%
%TA.AperFunction,Conductor*%
%ADD35C,0.500000*%
%TD*%
G04 APERTURE END LIST*
D10*
%TO.P,C5,1*%
%TO.N,GND*%
X60000000Y-37000000D03*
D11*
%TO.P,C5,2*%
%TO.N,-22V*%
X60000000Y-39500000D03*
%TD*%
D12*
%TO.P,SW1,1,A*%
%TO.N,unconnected-(SW1-Pad1)*%
X23000000Y-47500000D03*
%TO.P,SW1,2,B*%
%TO.N,Net-(PJ1-Pad1)*%
X23000000Y-52500000D03*
%TO.P,SW1,3,C*%
%TO.N,Net-(F1-Pad1)*%
X23000000Y-57500000D03*
%TD*%
D13*
%TO.P,D4,1,K*%
%TO.N,Net-(D4-Pad1)*%
X31500000Y-54500000D03*
D14*
%TO.P,D4,2,A*%
%TO.N,VCC*%
X28960000Y-54500000D03*
%TD*%
D15*
%TO.P,C1,1*%
%TO.N,Net-(C1-Pad1)*%
X33972600Y-60500000D03*
D16*
%TO.P,C1,2*%
%TO.N,GND*%
X31972600Y-60500000D03*
%TD*%
D17*
%TO.P,PJ4,1,Pin_1*%
%TO.N,Net-(J1-Pad1)*%
X26000000Y-67000000D03*
D18*
%TO.P,PJ4,2,Pin_2*%
%TO.N,Net-(J1-Pad2)*%
X28000000Y-67000000D03*
%TO.P,PJ4,3,Pin_3*%
%TO.N,GND*%
X30000000Y-67000000D03*
%TO.P,PJ4,4,Pin_4*%
X32000000Y-67000000D03*
%TO.P,PJ4,5,Pin_5*%
%TO.N,Net-(C1-Pad1)*%
X34000000Y-67000000D03*
%TO.P,PJ4,6,Pin_6*%
%TO.N,+5V*%
X36000000Y-67000000D03*
%TO.P,PJ4,7,Pin_7*%
%TO.N,GND*%
X38000000Y-67000000D03*
%TO.P,PJ4,8,Pin_8*%
%TO.N,+12V*%
X40000000Y-67000000D03*
%TO.P,PJ4,9,Pin_9*%
%TO.N,-9V*%
X42000000Y-67000000D03*
%TO.P,PJ4,10,Pin_10*%
%TO.N,GND*%
X44000000Y-67000000D03*
%TO.P,PJ4,11,Pin_11*%
%TO.N,unconnected-(PJ4-Pad11)*%
X46000000Y-67000000D03*
%TO.P,PJ4,12,Pin_12*%
%TO.N,-22V*%
X48000000Y-67000000D03*
%TD*%
D19*
%TO.P,PS1,1,+VIN_(VCC)*%
%TO.N,VCC*%
X121850000Y-38825000D03*
D20*
%TO.P,PS1,2,-VIN_(GND)*%
%TO.N,GND*%
X124390000Y-38825000D03*
%TO.P,PS1,5,-VOUT*%
X132010000Y-38825000D03*
%TO.P,PS1,7,+VOUT*%
%TO.N,+12V*%
X137090000Y-38825000D03*
%TD*%
D21*
%TO.P,PJ1,1*%
%TO.N,Net-(PJ1-Pad1)*%
X25000000Y-37542500D03*
D22*
%TO.P,PJ1,2*%
%TO.N,GND*%
X19000000Y-37542500D03*
D23*
%TO.P,PJ1,3*%
%TO.N,N/C*%
X22000000Y-42242500D03*
%TD*%
D24*
%TO.P,PJ6,1,Pin_1*%
%TO.N,+5V*%
X147725000Y-68000000D03*
D25*
%TO.P,PJ6,2,Pin_2*%
%TO.N,GND*%
X150265000Y-68000000D03*
%TD*%
D26*
%TO.P,U1,1,ADJ*%
%TO.N,Net-(R6-Pad2)*%
X65230000Y-47411250D03*
D27*
%TO.P,U1,2,VO*%
%TO.N,-9V*%
X66500000Y-47411250D03*
%TO.P,U1,3,VI*%
%TO.N,-22V*%
X67770000Y-47411250D03*
%TD*%
D28*
%TO.P,U3,1,VI*%
%TO.N,VCC*%
X42445000Y-56040000D03*
D29*
%TO.P,U3,2,GND*%
%TO.N,GND*%
X42445000Y-53500000D03*
%TO.P,U3,3,VO*%
%TO.N,+5V*%
X42445000Y-50960000D03*
%TD*%
D24*
%TO.P,PJ5,1,Pin_1*%
%TO.N,+5V_HDD*%
X136200000Y-68000000D03*
D25*
%TO.P,PJ5,2,Pin_2*%
%TO.N,+5V*%
X138740000Y-68000000D03*
%TO.P,PJ5,3,Pin_3*%
%TO.N,+12V*%
X141280000Y-68000000D03*
%TO.P,PJ5,4,Pin_4*%
%TO.N,GND*%
X143820000Y-68000000D03*
%TD*%
D24*
%TO.P,J1,1,Pin_1*%
%TO.N,Net-(J1-Pad1)*%
X42500000Y-14000000D03*
D25*
%TO.P,J1,2,Pin_2*%
%TO.N,Net-(J1-Pad2)*%
X45040000Y-14000000D03*
%TO.P,J1,3,Pin_3*%
%TO.N,GND*%
X47580000Y-14000000D03*
%TD*%
D15*
%TO.P,C3,1*%
%TO.N,VCC*%
X36000000Y-41472600D03*
D16*
%TO.P,C3,2*%
%TO.N,GND*%
X36000000Y-39472600D03*
%TD*%
D28*
%TO.P,U4,1,VI*%
%TO.N,VCC*%
X136240000Y-51080000D03*
D29*
%TO.P,U4,2,GND*%
%TO.N,GND*%
X136240000Y-53620000D03*
%TO.P,U4,3,VO*%
%TO.N,+5V_HDD*%
X136240000Y-56160000D03*
%TD*%
D10*
%TO.P,C7,1*%
%TO.N,+5V*%
X55705113Y-23300000D03*
D11*
%TO.P,C7,2*%
%TO.N,GND*%
X53205113Y-23300000D03*
%TD*%
D30*
%TO.N,+5V*%
X42500000Y-33500000D03*
D31*
%TO.N,-9V*%
X51848189Y-49151811D03*
%TO.N,+12V*%
X123000000Y-57699520D03*
X141280000Y-60720000D03*
X51300480Y-57699520D03*
%TO.N,-22V*%
X48946377Y-44553623D03*
D32*
%TO.N,VCC*%
X49500000Y-51000000D03*
%TD*%
D33*
%TO.N,GND*%
X143820000Y-68000000D02*
X143820000Y-56820000D01*
X138880000Y-53620000D02*
X136240000Y-53620000D01*
D34*
X140500000Y-47315000D02*
X140500000Y-53500000D01*
D33*
X140380000Y-53620000D02*
X138880000Y-53620000D01*
X42445000Y-53500000D02*
X44000000Y-53500000D01*
X47000000Y-53500000D02*
X47120000Y-53620000D01*
D34*
X132010000Y-38825000D02*
X140500000Y-47315000D01*
D33*
X45500000Y-53500000D02*
X42445000Y-53500000D01*
X143820000Y-56820000D02*
X150265000Y-63265000D01*
X143820000Y-56820000D02*
X140500000Y-53500000D01*
X140500000Y-53500000D02*
X140380000Y-53620000D01*
D34*
X124390000Y-38825000D02*
X132010000Y-38825000D01*
D33*
X150265000Y-63265000D02*
X150265000Y-68000000D01*
X47000000Y-53500000D02*
X45500000Y-53500000D01*
X47120000Y-53620000D02*
X136240000Y-53620000D01*
D34*
X139000000Y-53620000D02*
X138880000Y-53620000D01*
D33*
%TO.N,+5V*%
X52000000Y-33500000D02*
X42500000Y-33500000D01*
X55705113Y-23300000D02*
X55705113Y-25794887D01*
X132500000Y-56000000D02*
X49500000Y-56000000D01*
X37500000Y-57500000D02*
X37500000Y-54500000D01*
X45500000Y-60000000D02*
X40000000Y-60000000D01*
X138740000Y-62240000D02*
X132500000Y-56000000D01*
X49500000Y-56000000D02*
X45500000Y-60000000D01*
X54000000Y-27500000D02*
X54000000Y-31500000D01*
D34*
X36000000Y-59000000D02*
X37500000Y-57500000D01*
D33*
X55705113Y-25794887D02*
X54000000Y-27500000D01*
X138740000Y-68000000D02*
X138740000Y-62240000D01*
X40000000Y-60000000D02*
X37500000Y-57500000D01*
D34*
X36000000Y-67000000D02*
X36000000Y-59000000D01*
D33*
X37500000Y-54500000D02*
X41040000Y-50960000D01*
X42445000Y-50960000D02*
X42445000Y-33445000D01*
X41040000Y-50960000D02*
X42445000Y-50960000D01*
X54000000Y-31500000D02*
X52000000Y-33500000D01*
D34*
%TO.N,-9V*%
X66500000Y-48815272D02*
X66500000Y-47411250D01*
X51848189Y-49151811D02*
X66163461Y-49151811D01*
X66163461Y-49151811D02*
X66500000Y-48815272D01*
%TO.N,+12V*%
X40000000Y-64500000D02*
X42800480Y-61699520D01*
X50300480Y-57699520D02*
X51300480Y-57699520D01*
X43500000Y-61699520D02*
X46300480Y-61699520D01*
X141280000Y-68000000D02*
X141280000Y-60720000D01*
X50000000Y-58000000D02*
X50300480Y-57699520D01*
X40000000Y-67000000D02*
X40000000Y-64500000D01*
X65000000Y-57699520D02*
X123000000Y-57699520D01*
X51300480Y-57699520D02*
X65000000Y-57699520D01*
X42800480Y-61699520D02*
X43500000Y-61699520D01*
X46300480Y-61699520D02*
X50000000Y-58000000D01*
D33*
%TO.N,Net-(PJ1-Pad1)*%
X26860489Y-39402989D02*
X25000000Y-37542500D01*
X26720978Y-52500000D02*
X23000000Y-52500000D01*
X26860489Y-52639511D02*
X26720978Y-52500000D01*
X26860489Y-52639511D02*
X26860489Y-39402989D01*
D34*
%TO.N,-22V*%
X67770000Y-46724518D02*
X65599105Y-44553623D01*
D33*
X57946377Y-44553623D02*
X48946377Y-44553623D01*
X60000000Y-39500000D02*
X60000000Y-42500000D01*
D34*
X67770000Y-47411250D02*
X67770000Y-46724518D01*
X65599105Y-44553623D02*
X57946377Y-44553623D01*
D33*
X60000000Y-42500000D02*
X57946377Y-44553623D01*
D34*
%TO.N,VCC*%
X121850000Y-38825000D02*
X121850000Y-51010000D01*
D33*
X55000000Y-51000000D02*
X49500000Y-51000000D01*
X121920000Y-51080000D02*
X55080000Y-51080000D01*
X55080000Y-51080000D02*
X55000000Y-51000000D01*
X136240000Y-51080000D02*
X121920000Y-51080000D01*
D34*
X121850000Y-51010000D02*
X121920000Y-51080000D01*
D35*
%TO.N,Net-(J1-Pad2)*%
X28000000Y-62500000D02*
X34500000Y-56000000D01*
X34500000Y-56000000D02*
X34500000Y-54500000D01*
X40500000Y-25000000D02*
X45040000Y-20460000D01*
X34500000Y-54500000D02*
X40500000Y-48500000D01*
X45040000Y-20460000D02*
X45040000Y-14000000D01*
X28000000Y-67000000D02*
X28000000Y-62500000D01*
X40500000Y-48500000D02*
X40500000Y-25000000D01*
%TO.N,Net-(J1-Pad1)*%
X39800481Y-24710249D02*
X42500000Y-22010730D01*
X39800480Y-48210250D02*
X39800481Y-24710249D01*
X33800481Y-54210249D02*
X39800480Y-48210250D01*
X33800480Y-55710250D02*
X33800481Y-54210249D01*
X26000000Y-63510730D02*
X33800480Y-55710250D01*
X42500000Y-22010730D02*
X42500000Y-14000000D01*
X26000000Y-67000000D02*
X26000000Y-63510730D01*
%TD*%
%TA.AperFunction,Conductor*%
%TO.N,GND*%
G36*
X41347895Y-12528502D02*
G01*
X41394388Y-12582158D01*
X41404492Y-12652432D01*
X41374998Y-12717012D01*
X41355339Y-12735326D01*
X41326903Y-12756638D01*
X41286739Y-12786739D01*
X41199385Y-12903295D01*
X41148255Y-13039684D01*
X41141500Y-13101866D01*
X41141500Y-14898134D01*
X41148255Y-14960316D01*
X41199385Y-15096705D01*
X41286739Y-15213261D01*
X41403295Y-15300615D01*
X41539684Y-15351745D01*
X41601866Y-15358500D01*
X41615500Y-15358500D01*
X41683621Y-15378502D01*
X41730114Y-15432158D01*
X41741500Y-15484500D01*
X41741500Y-21644359D01*
X41721498Y-21712480D01*
X41704595Y-21733454D01*
X39311570Y-24126479D01*
X39297158Y-24138865D01*
X39285563Y-24147398D01*
X39285558Y-24147403D01*
X39279663Y-24151741D01*
X39274924Y-24157319D01*
X39274921Y-24157322D01*
X39245446Y-24192017D01*
X39238516Y-24199533D01*
X39232821Y-24205228D01*
X39230541Y-24208110D01*
X39215200Y-24227500D01*
X39212409Y-24230904D01*
X39169890Y-24280952D01*
X39165148Y-24286534D01*
X39161820Y-24293050D01*
X39158453Y-24298099D01*
X39155286Y-24303228D01*
X39150747Y-24308965D01*
X39119826Y-24375124D01*
X39117923Y-24379018D01*
X39084712Y-24444057D01*
X39082973Y-24451165D01*
X39080874Y-24456808D01*
X39078957Y-24462571D01*
X39075859Y-24469199D01*
X39062903Y-24531490D01*
X39060995Y-24540661D01*
X39060025Y-24544945D01*
X39042673Y-24615859D01*
X39041981Y-24627013D01*
X39041945Y-24627011D01*
X39041706Y-24631004D01*
X39041332Y-24635196D01*
X39039841Y-24642364D01*
X39040039Y-24649681D01*
X39041935Y-24719770D01*
X39041981Y-24723177D01*
X39041980Y-47843879D01*
X39021978Y-47912000D01*
X39005075Y-47932974D01*
X33311570Y-53626479D01*
X33297158Y-53638865D01*
X33285563Y-53647398D01*
X33285558Y-53647403D01*
X33279663Y-53651741D01*
X33274924Y-53657319D01*
X33274921Y-53657322D01*
X33245446Y-53692017D01*
X33238516Y-53699533D01*
X33232821Y-53705228D01*
X33230541Y-53708110D01*
X33215200Y-53727500D01*
X33212409Y-53730904D01*
X33175362Y-53774511D01*
X33165148Y-53786534D01*
X33161820Y-53793050D01*
X33158453Y-53798099D01*
X33155285Y-53803229D01*
X33150747Y-53808965D01*
X33147648Y-53815596D01*
X33143803Y-53821822D01*
X33142163Y-53820809D01*
X33101684Y-53866701D01*
X33033390Y-53886102D01*
X32965448Y-53865500D01*
X32919430Y-53811437D01*
X32908500Y-53760107D01*
X32908500Y-53551866D01*
X32901745Y-53489684D01*
X32850615Y-53353295D01*
X32763261Y-53236739D01*
X32646705Y-53149385D01*
X32510316Y-53098255D01*
X32448134Y-53091500D01*
X30551866Y-53091500D01*
X30489684Y-53098255D01*
X30353295Y-53149385D01*
X30236739Y-53236739D01*
X30149385Y-53353295D01*
X30146233Y-53361703D01*
X30146232Y-53361705D01*
X30125538Y-53416906D01*
X30082897Y-53473671D01*
X30016335Y-53498371D01*
X29946986Y-53483164D01*
X29924167Y-53466666D01*
X29923887Y-53466358D01*
X29905686Y-53451984D01*
X29746177Y-53326011D01*
X29746172Y-53326008D01*
X29742123Y-53322810D01*
X29737607Y-53320317D01*
X29737604Y-53320315D01*
X29543879Y-53213373D01*
X29543875Y-53213371D01*
X29539355Y-53210876D01*
X29534486Y-53209152D01*
X29534482Y-53209150D01*
X29325903Y-53135288D01*
X29325899Y-53135287D01*
X29321028Y-53133562D01*
X29315935Y-53132655D01*
X29315932Y-53132654D01*
X29098095Y-53093851D01*
X29098089Y-53093850D01*
X29093006Y-53092945D01*
X29020096Y-53092054D01*
X28866581Y-53090179D01*
X28866579Y-53090179D01*
X28861411Y-53090116D01*
X28632464Y-53125150D01*
X28558317Y-53149385D01*
X28485527Y-53173176D01*
X28414563Y-53175327D01*
X28353701Y-53138771D01*
X28322265Y-53075113D01*
X28324342Y-53022068D01*
X28324699Y-53020676D01*
X28326351Y-53015880D01*
X28344594Y-52910259D01*
X28344988Y-52908097D01*
X28365044Y-52802958D01*
X28365186Y-52797893D01*
X28365732Y-52792867D01*
X28365748Y-52792869D01*
X28366583Y-52784514D01*
X28366567Y-52784512D01*
X28366762Y-52782715D01*
X28366950Y-52780834D01*
X28366994Y-52780577D01*
X28367668Y-52776675D01*
X28368989Y-52747586D01*
X28368989Y-52663513D01*
X28369038Y-52659994D01*
X28371682Y-52565361D01*
X28371682Y-52565358D01*
X28371823Y-52560306D01*
X28370096Y-52547361D01*
X28368989Y-52530699D01*
X28368989Y-42120734D01*
X34891500Y-42120734D01*
X34898255Y-42182916D01*
X34949385Y-42319305D01*
X35036739Y-42435861D01*
X35153295Y-42523215D01*
X35289684Y-42574345D01*
X35351866Y-42581100D01*
X36648134Y-42581100D01*
X36710316Y-42574345D01*
X36846705Y-42523215D01*
X36963261Y-42435861D01*
X37050615Y-42319305D01*
X37101745Y-42182916D01*
X37108500Y-42120734D01*
X37108500Y-40824466D01*
X37101745Y-40762284D01*
X37050615Y-40625895D01*
X36963261Y-40509339D01*
X36846705Y-40421985D01*
X36710316Y-40370855D01*
X36648134Y-40364100D01*
X36584480Y-40364100D01*
X36516359Y-40344098D01*
X36495384Y-40327195D01*
X36012811Y-39844621D01*
X35998868Y-39837008D01*
X35997034Y-39837139D01*
X35990420Y-39841390D01*
X35504616Y-40327195D01*
X35442303Y-40361220D01*
X35415520Y-40364100D01*
X35351866Y-40364100D01*
X35289684Y-40370855D01*
X35153295Y-40421985D01*
X35036739Y-40509339D01*
X34949385Y-40625895D01*
X34898255Y-40762284D01*
X34891500Y-40824466D01*
X34891500Y-42120734D01*
X28368989Y-42120734D01*
X28368989Y-39449238D01*
X34888012Y-39449238D01*
X34900575Y-39640904D01*
X34902376Y-39652274D01*
X34949657Y-39838443D01*
X34953498Y-39849290D01*
X35033916Y-40023730D01*
X35039664Y-40033686D01*
X35045788Y-40042351D01*
X35056377Y-40050740D01*
X35069676Y-40043713D01*
X35627979Y-39485411D01*
X35634356Y-39473732D01*
X36364408Y-39473732D01*
X36364539Y-39475566D01*
X36368790Y-39482180D01*
X36930239Y-40043628D01*
X36942614Y-40050385D01*
X36949194Y-40045459D01*
X37013726Y-39930228D01*
X37018400Y-39919731D01*
X37080144Y-39737840D01*
X37082832Y-39726645D01*
X37110689Y-39534511D01*
X37111319Y-39527128D01*
X37112650Y-39476304D01*
X37112407Y-39468905D01*
X37094643Y-39275575D01*
X37092545Y-39264254D01*
X37040408Y-39079391D01*
X37036283Y-39068644D01*
X36952163Y-38898065D01*
X36944869Y-38892590D01*
X36932449Y-38899362D01*
X36372021Y-39459789D01*
X36364408Y-39473732D01*
X35634356Y-39473732D01*
X35635592Y-39471468D01*
X35635461Y-39469634D01*
X35631210Y-39463020D01*
X35068538Y-38900349D01*
X35056163Y-38893592D01*
X35050197Y-38898058D01*
X34974645Y-39041658D01*
X34970242Y-39052291D01*
X34913281Y-39235732D01*
X34910891Y-39246976D01*
X34888313Y-39437737D01*
X34888012Y-39449238D01*
X28368989Y-39449238D01*
X28368989Y-39427005D01*
X28369038Y-39423487D01*
X28371682Y-39328839D01*
X28371682Y-39328836D01*
X28371823Y-39323784D01*
X28361430Y-39245891D01*
X28360730Y-39239342D01*
X28354835Y-39166066D01*
X28354834Y-39166062D01*
X28354429Y-39161024D01*
X28346590Y-39129111D01*
X28344062Y-39115727D01*
X28340387Y-39088183D01*
X28339718Y-39083169D01*
X28317011Y-39007960D01*
X28315270Y-39001597D01*
X28297733Y-38930198D01*
X28296526Y-38925283D01*
X28283688Y-38895037D01*
X28279050Y-38882226D01*
X28271019Y-38855627D01*
X28269556Y-38850781D01*
X28267338Y-38846233D01*
X28267335Y-38846226D01*
X28235118Y-38780171D01*
X28232382Y-38774169D01*
X28203651Y-38706484D01*
X28201677Y-38701833D01*
X28184170Y-38674033D01*
X28177541Y-38662123D01*
X28163143Y-38632601D01*
X28117846Y-38568389D01*
X28114188Y-38562903D01*
X28094270Y-38531275D01*
X35422788Y-38531275D01*
X35426275Y-38539664D01*
X35987189Y-39100579D01*
X36001132Y-39108192D01*
X36002966Y-39108061D01*
X36009580Y-39103810D01*
X36570285Y-38543104D01*
X36577042Y-38530729D01*
X36571012Y-38522673D01*
X36510061Y-38484216D01*
X36499813Y-38478995D01*
X36321401Y-38407816D01*
X36310373Y-38404549D01*
X36121982Y-38367076D01*
X36110535Y-38365873D01*
X35918477Y-38363359D01*
X35906997Y-38364262D01*
X35717697Y-38396790D01*
X35706577Y-38399770D01*
X35526365Y-38466253D01*
X35515991Y-38471201D01*
X35432385Y-38520942D01*
X35422788Y-38531275D01*
X28094270Y-38531275D01*
X28075018Y-38500703D01*
X28075017Y-38500702D01*
X28072322Y-38496422D01*
X28068981Y-38492633D01*
X28068977Y-38492627D01*
X28050591Y-38471772D01*
X28042145Y-38461077D01*
X28025498Y-38437479D01*
X28023215Y-38434242D01*
X28008207Y-38417806D01*
X28004551Y-38413802D01*
X28004543Y-38413794D01*
X28003580Y-38412739D01*
X27963864Y-38373023D01*
X27958445Y-38367253D01*
X27915139Y-38318131D01*
X27915136Y-38318128D01*
X27911791Y-38314334D01*
X27879500Y-38287810D01*
X27870381Y-38279540D01*
X27295405Y-37704564D01*
X27261379Y-37642252D01*
X27258500Y-37615469D01*
X27258500Y-35744366D01*
X27251745Y-35682184D01*
X27200615Y-35545795D01*
X27113261Y-35429239D01*
X26996705Y-35341885D01*
X26860316Y-35290755D01*
X26798134Y-35284000D01*
X23201866Y-35284000D01*
X23139684Y-35290755D01*
X23003295Y-35341885D01*
X22886739Y-35429239D01*
X22799385Y-35545795D01*
X22748255Y-35682184D01*
X22741500Y-35744366D01*
X22741500Y-39340634D01*
X22748255Y-39402816D01*
X22799385Y-39539205D01*
X22886739Y-39655761D01*
X23003295Y-39743115D01*
X23011696Y-39746264D01*
X23013918Y-39747481D01*
X23064064Y-39797740D01*
X23079077Y-39867131D01*
X23054191Y-39933623D01*
X22997307Y-39976105D01*
X22953408Y-39984000D01*
X21032636Y-39984000D01*
X21030963Y-39984091D01*
X21030948Y-39984091D01*
X20980773Y-39986809D01*
X20975043Y-39987119D01*
X20970757Y-39987956D01*
X20766575Y-40027830D01*
X20744607Y-40032120D01*
X20525048Y-40115304D01*
X20322644Y-40234291D01*
X20143181Y-40385681D01*
X19991791Y-40565144D01*
X19872804Y-40767548D01*
X19789620Y-40987107D01*
X19744619Y-41217543D01*
X19741500Y-41275136D01*
X19741500Y-43209864D01*
X19741591Y-43211537D01*
X19741591Y-43211552D01*
X19743706Y-43250593D01*
X19744619Y-43267457D01*
X19789620Y-43497893D01*
X19872804Y-43717452D01*
X19926631Y-43809015D01*
X19979943Y-43899701D01*
X19991791Y-43919856D01*
X20143181Y-44099319D01*
X20322644Y-44250709D01*
X20525048Y-44369696D01*
X20744607Y-44452880D01*
X20975043Y-44497881D01*
X20979401Y-44498117D01*
X21030948Y-44500909D01*
X21030963Y-44500909D01*
X21032636Y-44501000D01*
X22967364Y-44501000D01*
X22969037Y-44500909D01*
X22969052Y-44500909D01*
X23020599Y-44498117D01*
X23024957Y-44497881D01*
X23255393Y-44452880D01*
X23474952Y-44369696D01*
X23677356Y-44250709D01*
X23856819Y-44099319D01*
X24008209Y-43919856D01*
X24020058Y-43899701D01*
X24073369Y-43809015D01*
X24127196Y-43717452D01*
X24210380Y-43497893D01*
X24255381Y-43267457D01*
X24256294Y-43250593D01*
X24258409Y-43211552D01*
X24258409Y-43211537D01*
X24258500Y-43209864D01*
X24258500Y-41275136D01*
X24255381Y-41217543D01*
X24210380Y-40987107D01*
X24127196Y-40767548D01*
X24008209Y-40565144D01*
X23856819Y-40385681D01*
X23677356Y-40234291D01*
X23474952Y-40115304D01*
X23288932Y-40044827D01*
X23232317Y-40001988D01*
X23207849Y-39935340D01*
X23223298Y-39866045D01*
X23273759Y-39816102D01*
X23333573Y-39801000D01*
X25072969Y-39801000D01*
X25141090Y-39821002D01*
X25162064Y-39837905D01*
X25315084Y-39990925D01*
X25349110Y-40053237D01*
X25351989Y-40080020D01*
X25351989Y-47066298D01*
X25331987Y-47134419D01*
X25278331Y-47180912D01*
X25208057Y-47191016D01*
X25143477Y-47161522D01*
X25104750Y-47100605D01*
X25069870Y-46977342D01*
X25069867Y-46977333D01*
X25068490Y-46972468D01*
X25066356Y-46967892D01*
X25066354Y-46967886D01*
X24968038Y-46757046D01*
X24968036Y-46757042D01*
X24965901Y-46752464D01*
X24829456Y-46551693D01*
X24662668Y-46375319D01*
X24628843Y-46349458D01*
X24473846Y-46230953D01*
X24473842Y-46230950D01*
X24469826Y-46227880D01*
X24376922Y-46178065D01*
X24260352Y-46115561D01*
X24255891Y-46113169D01*
X24026369Y-46034138D01*
X23916901Y-46015230D01*
X23791074Y-45993496D01*
X23791068Y-45993495D01*
X23787164Y-45992821D01*
X23783203Y-45992641D01*
X23783202Y-45992641D01*
X23759494Y-45991564D01*
X23759475Y-45991564D01*
X23758075Y-45991500D01*
X22288999Y-45991500D01*
X22286491Y-45991702D01*
X22286486Y-45991702D01*
X22113076Y-46005654D01*
X22113071Y-46005655D01*
X22108035Y-46006060D01*
X22103127Y-46007266D01*
X22103124Y-46007266D01*
X21880046Y-46062059D01*
X21872294Y-46063963D01*
X21867642Y-46065938D01*
X21867638Y-46065939D01*
X21760252Y-46111522D01*
X21648844Y-46158812D01*
X21624942Y-46173864D01*
X21447712Y-46285472D01*
X21447709Y-46285474D01*
X21443433Y-46288167D01*
X21439639Y-46291512D01*
X21265142Y-46445350D01*
X21265139Y-46445353D01*
X21261345Y-46448698D01*
X21258135Y-46452606D01*
X21258134Y-46452607D01*
X21123485Y-46616533D01*
X21107266Y-46636278D01*
X21081643Y-46680302D01*
X21023888Y-46779536D01*
X20985159Y-46846078D01*
X20983346Y-46850801D01*
X20945008Y-46950677D01*
X20898167Y-47072702D01*
X20897133Y-47077652D01*
X20897132Y-47077655D01*
X20875561Y-47180912D01*
X20848526Y-47310320D01*
X20837514Y-47552817D01*
X20838095Y-47557837D01*
X20838095Y-47557841D01*
X20854305Y-47697933D01*
X20865415Y-47793956D01*
X20866791Y-47798820D01*
X20866792Y-47798823D01*
X20904753Y-47932974D01*
X20931510Y-48027532D01*
X20933644Y-48032108D01*
X20933646Y-48032114D01*
X21022643Y-48222969D01*
X21034099Y-48247536D01*
X21170544Y-48448307D01*
X21337332Y-48624681D01*
X21341358Y-48627759D01*
X21341359Y-48627760D01*
X21526154Y-48769047D01*
X21526158Y-48769050D01*
X21530174Y-48772120D01*
X21534632Y-48774510D01*
X21534633Y-48774511D01*
X21653953Y-48838490D01*
X21744109Y-48886831D01*
X21973631Y-48965862D01*
X22072978Y-48983022D01*
X22208926Y-49006504D01*
X22208932Y-49006505D01*
X22212836Y-49007179D01*
X22216797Y-49007359D01*
X22216798Y-49007359D01*
X22240506Y-49008436D01*
X22240525Y-49008436D01*
X22241925Y-49008500D01*
X23711001Y-49008500D01*
X23713509Y-49008298D01*
X23713514Y-49008298D01*
X23886924Y-48994346D01*
X23886929Y-48994345D01*
X23891965Y-48993940D01*
X23896873Y-48992734D01*
X23896876Y-48992734D01*
X24122792Y-48937244D01*
X24127706Y-48936037D01*
X24132358Y-48934062D01*
X24132362Y-48934061D01*
X24270223Y-48875542D01*
X24351156Y-48841188D01*
X24457037Y-48774511D01*
X24552288Y-48714528D01*
X24552291Y-48714526D01*
X24556567Y-48711833D01*
X24655422Y-48624681D01*
X24734858Y-48554650D01*
X24734861Y-48554647D01*
X24738655Y-48551302D01*
X24832137Y-48437495D01*
X24889526Y-48367628D01*
X24889528Y-48367625D01*
X24892734Y-48363722D01*
X25014841Y-48153922D01*
X25041132Y-48085432D01*
X25100020Y-47932022D01*
X25100021Y-47932018D01*
X25101833Y-47927298D01*
X25102867Y-47922347D01*
X25104297Y-47917489D01*
X25105599Y-47917872D01*
X25136163Y-47860786D01*
X25198193Y-47826249D01*
X25269048Y-47830731D01*
X25326232Y-47872808D01*
X25351590Y-47939122D01*
X25351989Y-47949145D01*
X25351989Y-50865500D01*
X25331987Y-50933621D01*
X25278331Y-50980114D01*
X25225989Y-50991500D01*
X22288999Y-50991500D01*
X22286491Y-50991702D01*
X22286486Y-50991702D01*
X22113076Y-51005654D01*
X22113071Y-51005655D01*
X22108035Y-51006060D01*
X22103127Y-51007266D01*
X22103124Y-51007266D01*
X21877208Y-51062756D01*
X21872294Y-51063963D01*
X21867642Y-51065938D01*
X21867638Y-51065939D01*
X21803418Y-51093199D01*
X21648844Y-51158812D01*
X21644560Y-51161510D01*
X21447712Y-51285472D01*
X21447709Y-51285474D01*
X21443433Y-51288167D01*
X21439639Y-51291512D01*
X21265142Y-51445350D01*
X21265139Y-51445353D01*
X21261345Y-51448698D01*
X21258135Y-51452606D01*
X21258134Y-51452607D01*
X21192827Y-51532114D01*
X21107266Y-51636278D01*
X21104724Y-51640646D01*
X20998171Y-51823722D01*
X20985159Y-51846078D01*
X20983346Y-51850801D01*
X20931680Y-51985398D01*
X20898167Y-52072702D01*
X20897133Y-52077652D01*
X20897132Y-52077655D01*
X20850434Y-52301188D01*
X20848526Y-52310320D01*
X20837514Y-52552817D01*
X20838095Y-52557837D01*
X20838095Y-52557841D01*
X20864323Y-52784514D01*
X20865415Y-52793956D01*
X20866791Y-52798820D01*
X20866792Y-52798823D01*
X20897713Y-52908097D01*
X20931510Y-53027532D01*
X20933644Y-53032108D01*
X20933646Y-53032114D01*
X21031962Y-53242954D01*
X21034099Y-53247536D01*
X21170544Y-53448307D01*
X21337332Y-53624681D01*
X21341358Y-53627759D01*
X21341359Y-53627760D01*
X21526154Y-53769047D01*
X21526158Y-53769050D01*
X21530174Y-53772120D01*
X21534632Y-53774510D01*
X21534633Y-53774511D01*
X21622868Y-53821822D01*
X21744109Y-53886831D01*
X21973631Y-53965862D01*
X22072978Y-53983022D01*
X22208926Y-54006504D01*
X22208932Y-54006505D01*
X22212836Y-54007179D01*
X22216797Y-54007359D01*
X22216798Y-54007359D01*
X22240506Y-54008436D01*
X22240525Y-54008436D01*
X22241925Y-54008500D01*
X26194020Y-54008500D01*
X26239175Y-54016869D01*
X26306581Y-54042744D01*
X26308627Y-54043550D01*
X26407918Y-54083666D01*
X26412862Y-54084789D01*
X26417683Y-54086300D01*
X26417678Y-54086316D01*
X26423608Y-54088118D01*
X26423613Y-54088101D01*
X26428456Y-54089526D01*
X26433191Y-54091344D01*
X26499888Y-54105278D01*
X26538013Y-54113243D01*
X26540160Y-54113711D01*
X26559128Y-54118020D01*
X26644633Y-54137446D01*
X26649678Y-54137764D01*
X26654690Y-54138486D01*
X26654688Y-54138501D01*
X26660835Y-54139333D01*
X26660837Y-54139316D01*
X26665851Y-54139949D01*
X26670809Y-54140985D01*
X26675868Y-54141215D01*
X26675870Y-54141215D01*
X26714046Y-54142949D01*
X26777819Y-54145845D01*
X26779953Y-54145960D01*
X26869405Y-54151588D01*
X26881846Y-54152371D01*
X26886901Y-54152689D01*
X26891939Y-54152195D01*
X26896998Y-54152107D01*
X26896998Y-54152124D01*
X26903193Y-54151961D01*
X26903192Y-54151945D01*
X26908258Y-54151768D01*
X26913306Y-54151997D01*
X26918326Y-54151416D01*
X26918330Y-54151416D01*
X27019676Y-54139690D01*
X27021861Y-54139456D01*
X27069823Y-54134753D01*
X27128491Y-54129000D01*
X27133380Y-54127708D01*
X27138361Y-54126812D01*
X27138364Y-54126828D01*
X27144459Y-54125677D01*
X27144456Y-54125660D01*
X27149415Y-54124678D01*
X27154445Y-54124096D01*
X27220947Y-54105278D01*
X27257514Y-54094931D01*
X27259635Y-54094351D01*
X27358295Y-54068284D01*
X27358298Y-54068283D01*
X27363184Y-54066992D01*
X27367807Y-54064934D01*
X27372576Y-54063254D01*
X27372582Y-54063270D01*
X27378413Y-54061159D01*
X27378407Y-54061144D01*
X27383159Y-54059377D01*
X27388021Y-54058001D01*
X27407710Y-54048820D01*
X27477901Y-54038158D01*
X27542714Y-54067137D01*
X27581571Y-54126556D01*
X27582379Y-54196685D01*
X27571707Y-54235169D01*
X27547095Y-54465469D01*
X27547392Y-54470622D01*
X27547392Y-54470625D01*
X27556398Y-54626820D01*
X27560427Y-54696697D01*
X27561564Y-54701743D01*
X27561565Y-54701749D01*
X27591593Y-54834991D01*
X27611346Y-54922642D01*
X27613288Y-54927424D01*
X27613289Y-54927428D01*
X27696540Y-55132450D01*
X27698484Y-55137237D01*
X27819501Y-55334719D01*
X27971147Y-55509784D01*
X28149349Y-55657730D01*
X28349322Y-55774584D01*
X28565694Y-55857209D01*
X28570760Y-55858240D01*
X28570761Y-55858240D01*
X28623846Y-55869040D01*
X28792656Y-55903385D01*
X28922089Y-55908131D01*
X29018949Y-55911683D01*
X29018953Y-55911683D01*
X29024113Y-55911872D01*
X29029233Y-55911216D01*
X29029235Y-55911216D01*
X29103166Y-55901745D01*
X29253847Y-55882442D01*
X29258795Y-55880957D01*
X29258802Y-55880956D01*
X29470747Y-55817369D01*
X29475690Y-55815886D01*
X29537685Y-55785515D01*
X29679049Y-55716262D01*
X29679052Y-55716260D01*
X29683684Y-55713991D01*
X29872243Y-55579494D01*
X29917309Y-55534585D01*
X29979681Y-55500669D01*
X30050487Y-55505857D01*
X30107249Y-55548503D01*
X30124231Y-55579607D01*
X30149385Y-55646705D01*
X30236739Y-55763261D01*
X30353295Y-55850615D01*
X30489684Y-55901745D01*
X30551866Y-55908500D01*
X32225359Y-55908500D01*
X32293480Y-55928502D01*
X32339973Y-55982158D01*
X32350077Y-56052432D01*
X32320583Y-56117012D01*
X32314454Y-56123595D01*
X25511089Y-62926960D01*
X25496677Y-62939346D01*
X25485082Y-62947879D01*
X25485077Y-62947884D01*
X25479182Y-62952222D01*
X25474443Y-62957800D01*
X25474440Y-62957803D01*
X25444965Y-62992498D01*
X25438035Y-63000014D01*
X25432340Y-63005709D01*
X25430060Y-63008591D01*
X25414719Y-63027981D01*
X25411928Y-63031385D01*
X25373681Y-63076405D01*
X25364667Y-63087015D01*
X25361339Y-63093531D01*
X25357972Y-63098580D01*
X25354805Y-63103709D01*
X25350266Y-63109446D01*
X25319345Y-63175605D01*
X25317442Y-63179499D01*
X25284231Y-63244538D01*
X25282492Y-63251646D01*
X25280393Y-63257289D01*
X25278476Y-63263052D01*
X25275378Y-63269680D01*
X25273888Y-63276842D01*
X25273888Y-63276843D01*
X25260514Y-63341142D01*
X25259544Y-63345426D01*
X25242192Y-63416340D01*
X25241500Y-63427494D01*
X25241464Y-63427492D01*
X25241225Y-63431485D01*
X25240851Y-63435677D01*
X25239360Y-63442845D01*
X25240432Y-63482467D01*
X25241454Y-63520251D01*
X25241500Y-63523658D01*
X25241500Y-65725874D01*
X25221498Y-65793995D01*
X25167842Y-65840488D01*
X25159730Y-65843856D01*
X25118670Y-65859249D01*
X25078295Y-65874385D01*
X24961739Y-65961739D01*
X24874385Y-66078295D01*
X24823255Y-66214684D01*
X24816500Y-66276866D01*
X24816500Y-67723134D01*
X24823255Y-67785316D01*
X24874385Y-67921705D01*
X24961739Y-68038261D01*
X25078295Y-68125615D01*
X25214684Y-68176745D01*
X25276866Y-68183500D01*
X26723134Y-68183500D01*
X26785316Y-68176745D01*
X26921705Y-68125615D01*
X27038261Y-68038261D01*
X27075051Y-67989173D01*
X27095214Y-67962269D01*
X27152073Y-67919754D01*
X27222892Y-67914728D01*
X27266042Y-67933069D01*
X27366211Y-68000000D01*
X27432863Y-68044536D01*
X27438171Y-68046817D01*
X27438172Y-68046817D01*
X27627409Y-68128119D01*
X27627412Y-68128120D01*
X27632712Y-68130397D01*
X27638342Y-68131671D01*
X27745908Y-68156011D01*
X27844860Y-68178402D01*
X27850631Y-68178629D01*
X27850633Y-68178629D01*
X27923620Y-68181496D01*
X28062205Y-68186941D01*
X28277466Y-68155730D01*
X28282930Y-68153875D01*
X28282935Y-68153874D01*
X28477963Y-68087671D01*
X28477968Y-68087669D01*
X28483435Y-68085813D01*
X28489296Y-68082531D01*
X28581166Y-68031081D01*
X28673213Y-67979532D01*
X28840446Y-67840446D01*
X28900578Y-67768145D01*
X28959515Y-67728561D01*
X29030497Y-67727125D01*
X29093264Y-67766885D01*
X29100720Y-67775615D01*
X29248191Y-67919275D01*
X29257124Y-67926509D01*
X29428299Y-68040884D01*
X29438409Y-68046374D01*
X29627566Y-68127642D01*
X29638499Y-68131194D01*
X29728332Y-68151521D01*
X29742405Y-68150632D01*
X29746000Y-68141233D01*
X29746000Y-68140512D01*
X30254000Y-68140512D01*
X30257966Y-68154018D01*
X30271883Y-68156011D01*
X30282817Y-68153386D01*
X30477763Y-68087210D01*
X30488272Y-68082531D01*
X30667882Y-67981944D01*
X30677375Y-67975420D01*
X30835653Y-67843782D01*
X30843782Y-67835653D01*
X30900249Y-67767759D01*
X30959187Y-67728175D01*
X31030169Y-67726739D01*
X31092938Y-67766502D01*
X31100724Y-67775619D01*
X31248191Y-67919275D01*
X31257124Y-67926509D01*
X31428299Y-68040884D01*
X31438409Y-68046374D01*
X31627566Y-68127642D01*
X31638499Y-68131194D01*
X31728332Y-68151521D01*
X31742405Y-68150632D01*
X31746000Y-68141233D01*
X31746000Y-67272115D01*
X31741525Y-67256876D01*
X31740135Y-67255671D01*
X31732452Y-67254000D01*
X30272115Y-67254000D01*
X30256876Y-67258475D01*
X30255671Y-67259865D01*
X30254000Y-67267548D01*
X30254000Y-68140512D01*
X29746000Y-68140512D01*
X29746000Y-66727885D01*
X30254000Y-66727885D01*
X30258475Y-66743124D01*
X30259865Y-66744329D01*
X30267548Y-66746000D01*
X31727885Y-66746000D01*
X31743124Y-66741525D01*
X31744329Y-66740135D01*
X31746000Y-66732452D01*
X31746000Y-65861337D01*
X31742194Y-65848375D01*
X31727278Y-65846439D01*
X31698202Y-65851435D01*
X31687082Y-65854415D01*
X31493940Y-65925669D01*
X31483562Y-65930619D01*
X31306639Y-66035877D01*
X31297327Y-66042643D01*
X31142547Y-66178381D01*
X31134629Y-66186725D01*
X31099996Y-66230656D01*
X31042115Y-66271768D01*
X30971195Y-66275062D01*
X30909752Y-66239490D01*
X30900088Y-66228037D01*
X30886363Y-66209656D01*
X30878662Y-66201103D01*
X30727490Y-66061361D01*
X30718365Y-66054360D01*
X30544255Y-65944505D01*
X30534008Y-65939284D01*
X30342793Y-65862997D01*
X30331767Y-65859730D01*
X30271770Y-65847797D01*
X30258894Y-65848949D01*
X30254000Y-65864102D01*
X30254000Y-66727885D01*
X29746000Y-66727885D01*
X29746000Y-65861337D01*
X29742194Y-65848375D01*
X29727278Y-65846439D01*
X29698202Y-65851435D01*
X29687082Y-65854415D01*
X29493940Y-65925669D01*
X29483562Y-65930619D01*
X29306639Y-66035877D01*
X29297327Y-66042643D01*
X29142547Y-66178381D01*
X29134629Y-66186725D01*
X29100317Y-66230249D01*
X29042436Y-66271361D01*
X28971516Y-66274655D01*
X28910073Y-66239083D01*
X28900410Y-66227631D01*
X28886733Y-66209315D01*
X28886732Y-66209314D01*
X28883280Y-66204691D01*
X28863845Y-66186725D01*
X28798971Y-66126757D01*
X28762526Y-66065829D01*
X28758500Y-66034232D01*
X28758500Y-62866371D01*
X28778502Y-62798250D01*
X28795405Y-62777276D01*
X30131387Y-61441294D01*
X31395666Y-61441294D01*
X31405548Y-61453783D01*
X31436839Y-61474691D01*
X31446949Y-61480181D01*
X31623435Y-61556005D01*
X31634378Y-61559560D01*
X31821720Y-61601952D01*
X31833130Y-61603454D01*
X32025069Y-61610995D01*
X32036551Y-61610393D01*
X32226645Y-61582832D01*
X32237840Y-61580144D01*
X32419731Y-61518400D01*
X32430228Y-61513726D01*
X32540632Y-61451898D01*
X32550495Y-61441821D01*
X32547540Y-61434151D01*
X31985411Y-60872021D01*
X31971468Y-60864408D01*
X31969634Y-60864539D01*
X31963020Y-60868790D01*
X31401859Y-61429952D01*
X31395666Y-61441294D01*
X30131387Y-61441294D01*
X30725656Y-60847025D01*
X30787968Y-60812999D01*
X30858783Y-60818064D01*
X30915619Y-60860611D01*
X30929177Y-60883369D01*
X31006516Y-61051130D01*
X31012264Y-61061086D01*
X31018388Y-61069751D01*
X31028977Y-61078140D01*
X31042276Y-61071113D01*
X31972600Y-60140790D01*
X32542882Y-59570507D01*
X32549641Y-59558128D01*
X32543611Y-59550073D01*
X32482661Y-59511616D01*
X32472413Y-59506395D01*
X32359760Y-59461451D01*
X32303900Y-59417630D01*
X32280600Y-59350566D01*
X32297256Y-59281551D01*
X32317355Y-59255326D01*
X34988911Y-56583770D01*
X35003323Y-56571384D01*
X35014918Y-56562851D01*
X35014923Y-56562846D01*
X35020818Y-56558508D01*
X35025557Y-56552930D01*
X35025560Y-56552927D01*
X35055035Y-56518232D01*
X35061965Y-56510716D01*
X35067660Y-56505021D01*
X35085281Y-56482749D01*
X35088072Y-56479345D01*
X35130591Y-56429297D01*
X35130592Y-56429295D01*
X35135333Y-56423715D01*
X35138661Y-56417199D01*
X35142028Y-56412150D01*
X35145195Y-56407021D01*
X35149734Y-56401284D01*
X35180655Y-56335125D01*
X35182561Y-56331225D01*
X35196947Y-56303052D01*
X35215769Y-56266192D01*
X35217508Y-56259084D01*
X35219607Y-56253441D01*
X35221524Y-56247678D01*
X35224622Y-56241050D01*
X35239487Y-56169583D01*
X35240457Y-56165299D01*
X35250662Y-56123595D01*
X35257808Y-56094390D01*
X35258500Y-56083236D01*
X35258536Y-56083238D01*
X35258775Y-56079245D01*
X35259149Y-56075053D01*
X35260640Y-56067885D01*
X35258546Y-55990479D01*
X35258500Y-55987072D01*
X35258500Y-54866371D01*
X35278502Y-54798250D01*
X35295405Y-54777276D01*
X35776581Y-54296100D01*
X35838893Y-54262074D01*
X35909708Y-54267139D01*
X35966544Y-54309686D01*
X35991355Y-54376206D01*
X35991523Y-54389072D01*
X35991597Y-54389074D01*
X35991564Y-54390506D01*
X35991500Y-54391925D01*
X35991500Y-54448108D01*
X35991251Y-54456019D01*
X35986822Y-54526413D01*
X35989598Y-54554723D01*
X35990899Y-54567992D01*
X35991500Y-54580288D01*
X35991500Y-57475984D01*
X35991451Y-57479501D01*
X35990083Y-57528502D01*
X35989897Y-57535147D01*
X35968001Y-57602683D01*
X35953041Y-57620725D01*
X35330621Y-58243145D01*
X35320478Y-58252247D01*
X35290975Y-58275968D01*
X35287008Y-58280696D01*
X35258709Y-58314421D01*
X35255528Y-58318069D01*
X35253885Y-58319881D01*
X35251691Y-58322075D01*
X35224358Y-58355349D01*
X35223696Y-58356147D01*
X35163846Y-58427474D01*
X35161278Y-58432144D01*
X35157897Y-58436261D01*
X35139003Y-58471498D01*
X35114023Y-58518086D01*
X35113394Y-58519245D01*
X35071538Y-58595381D01*
X35071535Y-58595389D01*
X35068567Y-58600787D01*
X35066955Y-58605869D01*
X35064438Y-58610563D01*
X35037238Y-58699531D01*
X35036918Y-58700559D01*
X35008765Y-58789306D01*
X35008171Y-58794602D01*
X35006613Y-58799698D01*
X34997595Y-58888478D01*
X34997218Y-58892187D01*
X34997089Y-58893393D01*
X34991500Y-58943227D01*
X34991500Y-58946754D01*
X34991445Y-58947739D01*
X34990998Y-58953419D01*
X34986626Y-58996462D01*
X34987639Y-59007179D01*
X34990941Y-59042109D01*
X34991500Y-59053967D01*
X34991500Y-59332479D01*
X34971498Y-59400600D01*
X34917842Y-59447093D01*
X34847568Y-59457197D01*
X34819843Y-59447951D01*
X34819305Y-59449385D01*
X34682916Y-59398255D01*
X34620734Y-59391500D01*
X33324466Y-59391500D01*
X33262284Y-59398255D01*
X33125895Y-59449385D01*
X33009339Y-59536739D01*
X32921985Y-59653295D01*
X32870855Y-59789684D01*
X32864100Y-59851866D01*
X32864100Y-59915520D01*
X32844098Y-59983641D01*
X32827195Y-60004616D01*
X32344621Y-60487189D01*
X32337008Y-60501132D01*
X32337139Y-60502966D01*
X32341390Y-60509580D01*
X32827195Y-60995384D01*
X32861220Y-61057697D01*
X32864100Y-61084480D01*
X32864100Y-61148134D01*
X32870855Y-61210316D01*
X32921985Y-61346705D01*
X33009339Y-61463261D01*
X33125895Y-61550615D01*
X33262284Y-61601745D01*
X33324466Y-61608500D01*
X34620734Y-61608500D01*
X34682916Y-61601745D01*
X34819305Y-61550615D01*
X34820433Y-61553625D01*
X34874340Y-61541831D01*
X34940889Y-61566563D01*
X34983503Y-61623348D01*
X34991500Y-61667521D01*
X34991500Y-66016668D01*
X34971498Y-66084789D01*
X34917842Y-66131282D01*
X34847568Y-66141386D01*
X34779972Y-66109193D01*
X34727802Y-66060968D01*
X34727796Y-66060963D01*
X34723556Y-66057044D01*
X34539599Y-65940976D01*
X34337572Y-65860376D01*
X34124239Y-65817941D01*
X34118464Y-65817865D01*
X34118460Y-65817865D01*
X34009419Y-65816438D01*
X33906746Y-65815094D01*
X33901049Y-65816073D01*
X33901048Y-65816073D01*
X33698065Y-65850952D01*
X33698062Y-65850953D01*
X33692375Y-65851930D01*
X33488307Y-65927214D01*
X33301376Y-66038427D01*
X33137842Y-66181842D01*
X33134270Y-66186373D01*
X33099688Y-66230240D01*
X33041807Y-66271353D01*
X32970887Y-66274647D01*
X32909444Y-66239075D01*
X32899780Y-66227622D01*
X32886364Y-66209655D01*
X32878671Y-66201111D01*
X32727490Y-66061361D01*
X32718365Y-66054360D01*
X32544255Y-65944505D01*
X32534008Y-65939284D01*
X32342793Y-65862997D01*
X32331767Y-65859730D01*
X32271770Y-65847797D01*
X32258894Y-65848949D01*
X32254000Y-65864102D01*
X32254000Y-68140512D01*
X32257966Y-68154018D01*
X32271883Y-68156011D01*
X32282817Y-68153386D01*
X32477763Y-68087210D01*
X32488272Y-68082531D01*
X32667882Y-67981944D01*
X32677375Y-67975420D01*
X32835653Y-67843782D01*
X32843782Y-67835653D01*
X32899923Y-67768151D01*
X32958861Y-67728567D01*
X33029843Y-67727131D01*
X33092607Y-67766888D01*
X33092868Y-67767193D01*
X33096204Y-67771914D01*
X33100346Y-67775949D01*
X33101897Y-67777460D01*
X33252009Y-67923692D01*
X33256813Y-67926902D01*
X33276453Y-67940025D01*
X33432863Y-68044536D01*
X33438171Y-68046817D01*
X33438172Y-68046817D01*
X33627409Y-68128119D01*
X33627412Y-68128120D01*
X33632712Y-68130397D01*
X33638342Y-68131671D01*
X33745908Y-68156011D01*
X33844860Y-68178402D01*
X33850631Y-68178629D01*
X33850633Y-68178629D01*
X33923620Y-68181496D01*
X34062205Y-68186941D01*
X34277466Y-68155730D01*
X34282930Y-68153875D01*
X34282935Y-68153874D01*
X34477963Y-68087671D01*
X34477968Y-68087669D01*
X34483435Y-68085813D01*
X34489296Y-68082531D01*
X34581166Y-68031081D01*
X34673213Y-67979532D01*
X34840446Y-67840446D01*
X34900252Y-67768537D01*
X34959189Y-67728953D01*
X35030171Y-67727517D01*
X35092913Y-67767258D01*
X35096204Y-67771914D01*
X35100346Y-67775949D01*
X35100348Y-67775951D01*
X35166554Y-67840446D01*
X35252009Y-67923692D01*
X35256813Y-67926902D01*
X35276453Y-67940025D01*
X35432863Y-68044536D01*
X35438171Y-68046817D01*
X35438172Y-68046817D01*
X35627409Y-68128119D01*
X35627412Y-68128120D01*
X35632712Y-68130397D01*
X35638342Y-68131671D01*
X35745908Y-68156011D01*
X35844860Y-68178402D01*
X35850631Y-68178629D01*
X35850633Y-68178629D01*
X35923620Y-68181496D01*
X36062205Y-68186941D01*
X36277466Y-68155730D01*
X36282930Y-68153875D01*
X36282935Y-68153874D01*
X36477963Y-68087671D01*
X36477968Y-68087669D01*
X36483435Y-68085813D01*
X36489296Y-68082531D01*
X36581166Y-68031081D01*
X36673213Y-67979532D01*
X36840446Y-67840446D01*
X36900578Y-67768145D01*
X36959515Y-67728561D01*
X37030497Y-67727125D01*
X37093264Y-67766885D01*
X37100720Y-67775615D01*
X37248191Y-67919275D01*
X37257124Y-67926509D01*
X37428299Y-68040884D01*
X37438409Y-68046374D01*
X37627566Y-68127642D01*
X37638499Y-68131194D01*
X37728332Y-68151521D01*
X37742405Y-68150632D01*
X37746000Y-68141233D01*
X37746000Y-65861337D01*
X37742194Y-65848375D01*
X37727278Y-65846439D01*
X37698202Y-65851435D01*
X37687082Y-65854415D01*
X37493940Y-65925669D01*
X37483562Y-65930619D01*
X37306639Y-66035877D01*
X37297327Y-66042642D01*
X37217578Y-66112581D01*
X37153174Y-66142458D01*
X37082841Y-66132772D01*
X37028909Y-66086600D01*
X37008500Y-66017849D01*
X37008500Y-59469925D01*
X37028502Y-59401804D01*
X37045405Y-59380830D01*
X37057352Y-59368883D01*
X37119664Y-59334857D01*
X37190479Y-59339922D01*
X37235542Y-59368883D01*
X38916325Y-61049666D01*
X38918779Y-61052188D01*
X38983772Y-61120916D01*
X38987332Y-61124681D01*
X39022451Y-61151531D01*
X39049757Y-61172408D01*
X39054892Y-61176552D01*
X39085334Y-61202460D01*
X39114720Y-61227470D01*
X39119045Y-61230089D01*
X39119050Y-61230093D01*
X39142824Y-61244491D01*
X39154071Y-61252163D01*
X39180174Y-61272120D01*
X39248551Y-61308783D01*
X39249401Y-61309239D01*
X39255126Y-61312504D01*
X39322358Y-61353221D01*
X39352817Y-61365527D01*
X39365158Y-61371307D01*
X39394109Y-61386831D01*
X39398890Y-61388477D01*
X39398894Y-61388479D01*
X39468401Y-61412412D01*
X39474579Y-61414722D01*
X39512275Y-61429952D01*
X39547429Y-61444155D01*
X39552369Y-61445277D01*
X39552368Y-61445277D01*
X39579460Y-61451432D01*
X39592559Y-61455163D01*
X39623631Y-61465862D01*
X39701100Y-61479243D01*
X39707504Y-61480523D01*
X39784144Y-61497935D01*
X39816953Y-61499999D01*
X39830453Y-61501585D01*
X39862836Y-61507179D01*
X39866793Y-61507359D01*
X39866796Y-61507359D01*
X39890506Y-61508436D01*
X39890525Y-61508436D01*
X39891925Y-61508500D01*
X39948108Y-61508500D01*
X39956019Y-61508749D01*
X40026413Y-61513178D01*
X40067992Y-61509101D01*
X40080288Y-61508500D01*
X41261076Y-61508500D01*
X41329197Y-61528502D01*
X41375690Y-61582158D01*
X41385794Y-61652432D01*
X41356300Y-61717012D01*
X41350171Y-61723595D01*
X39330621Y-63743145D01*
X39320478Y-63752247D01*
X39290975Y-63775968D01*
X39287008Y-63780696D01*
X39258709Y-63814421D01*
X39255528Y-63818069D01*
X39253885Y-63819881D01*
X39251691Y-63822075D01*
X39224358Y-63855349D01*
X39223696Y-63856147D01*
X39163846Y-63927474D01*
X39161278Y-63932144D01*
X39157897Y-63936261D01*
X39136675Y-63975841D01*
X39114023Y-64018086D01*
X39113394Y-64019245D01*
X39071538Y-64095381D01*
X39071535Y-64095389D01*
X39068567Y-64100787D01*
X39066955Y-64105869D01*
X39064438Y-64110563D01*
X39037238Y-64199531D01*
X39036918Y-64200559D01*
X39008765Y-64289306D01*
X39008171Y-64294602D01*
X39006613Y-64299698D01*
X39005017Y-64315415D01*
X38997218Y-64392187D01*
X38997089Y-64393393D01*
X38991500Y-64443227D01*
X38991500Y-64446754D01*
X38991445Y-64447739D01*
X38990998Y-64453419D01*
X38986626Y-64496462D01*
X38987206Y-64502593D01*
X38990941Y-64542109D01*
X38991500Y-64553967D01*
X38991500Y-66017349D01*
X38971498Y-66085470D01*
X38917842Y-66131963D01*
X38847568Y-66142067D01*
X38779971Y-66109874D01*
X38727490Y-66061361D01*
X38718365Y-66054360D01*
X38544255Y-65944505D01*
X38534008Y-65939284D01*
X38342793Y-65862997D01*
X38331767Y-65859730D01*
X38271770Y-65847797D01*
X38258894Y-65848949D01*
X38254000Y-65864102D01*
X38254000Y-68140512D01*
X38257966Y-68154018D01*
X38271883Y-68156011D01*
X38282817Y-68153386D01*
X38477763Y-68087210D01*
X38488272Y-68082531D01*
X38667882Y-67981944D01*
X38677375Y-67975420D01*
X38835653Y-67843782D01*
X38843782Y-67835653D01*
X38899923Y-67768151D01*
X38958861Y-67728567D01*
X39029843Y-67727131D01*
X39092607Y-67766888D01*
X39092868Y-67767193D01*
X39096204Y-67771914D01*
X39100346Y-67775949D01*
X39101897Y-67777460D01*
X39252009Y-67923692D01*
X39256813Y-67926902D01*
X39276453Y-67940025D01*
X39432863Y-68044536D01*
X39438171Y-68046817D01*
X39438172Y-68046817D01*
X39627409Y-68128119D01*
X39627412Y-68128120D01*
X39632712Y-68130397D01*
X39638342Y-68131671D01*
X39745908Y-68156011D01*
X39844860Y-68178402D01*
X39850631Y-68178629D01*
X39850633Y-68178629D01*
X39923620Y-68181496D01*
X40062205Y-68186941D01*
X40277466Y-68155730D01*
X40282930Y-68153875D01*
X40282935Y-68153874D01*
X40477963Y-68087671D01*
X40477968Y-68087669D01*
X40483435Y-68085813D01*
X40489296Y-68082531D01*
X40581166Y-68031081D01*
X40673213Y-67979532D01*
X40840446Y-67840446D01*
X40900252Y-67768537D01*
X40959189Y-67728953D01*
X41030171Y-67727517D01*
X41092913Y-67767258D01*
X41096204Y-67771914D01*
X41100346Y-67775949D01*
X41100348Y-67775951D01*
X41166554Y-67840446D01*
X41252009Y-67923692D01*
X41256813Y-67926902D01*
X41276453Y-67940025D01*
X41432863Y-68044536D01*
X41438171Y-68046817D01*
X41438172Y-68046817D01*
X41627409Y-68128119D01*
X41627412Y-68128120D01*
X41632712Y-68130397D01*
X41638342Y-68131671D01*
X41745908Y-68156011D01*
X41844860Y-68178402D01*
X41850631Y-68178629D01*
X41850633Y-68178629D01*
X41923620Y-68181496D01*
X42062205Y-68186941D01*
X42277466Y-68155730D01*
X42282930Y-68153875D01*
X42282935Y-68153874D01*
X42477963Y-68087671D01*
X42477968Y-68087669D01*
X42483435Y-68085813D01*
X42489296Y-68082531D01*
X42581166Y-68031081D01*
X42673213Y-67979532D01*
X42840446Y-67840446D01*
X42900578Y-67768145D01*
X42959515Y-67728561D01*
X43030497Y-67727125D01*
X43093264Y-67766885D01*
X43100720Y-67775615D01*
X43248191Y-67919275D01*
X43257124Y-67926509D01*
X43428299Y-68040884D01*
X43438409Y-68046374D01*
X43627566Y-68127642D01*
X43638499Y-68131194D01*
X43728332Y-68151521D01*
X43742405Y-68150632D01*
X43746000Y-68141233D01*
X43746000Y-68140512D01*
X44254000Y-68140512D01*
X44257966Y-68154018D01*
X44271883Y-68156011D01*
X44282817Y-68153386D01*
X44477763Y-68087210D01*
X44488272Y-68082531D01*
X44667882Y-67981944D01*
X44677375Y-67975420D01*
X44835653Y-67843782D01*
X44843782Y-67835653D01*
X44899923Y-67768151D01*
X44958861Y-67728567D01*
X45029843Y-67727131D01*
X45092607Y-67766888D01*
X45092868Y-67767193D01*
X45096204Y-67771914D01*
X45100346Y-67775949D01*
X45101897Y-67777460D01*
X45252009Y-67923692D01*
X45256813Y-67926902D01*
X45276453Y-67940025D01*
X45432863Y-68044536D01*
X45438171Y-68046817D01*
X45438172Y-68046817D01*
X45627409Y-68128119D01*
X45627412Y-68128120D01*
X45632712Y-68130397D01*
X45638342Y-68131671D01*
X45745908Y-68156011D01*
X45844860Y-68178402D01*
X45850631Y-68178629D01*
X45850633Y-68178629D01*
X45923620Y-68181496D01*
X46062205Y-68186941D01*
X46277466Y-68155730D01*
X46282930Y-68153875D01*
X46282935Y-68153874D01*
X46477963Y-68087671D01*
X46477968Y-68087669D01*
X46483435Y-68085813D01*
X46489296Y-68082531D01*
X46581166Y-68031081D01*
X46673213Y-67979532D01*
X46840446Y-67840446D01*
X46900252Y-67768537D01*
X46959189Y-67728953D01*
X47030171Y-67727517D01*
X47092913Y-67767258D01*
X47096204Y-67771914D01*
X47100346Y-67775949D01*
X47100348Y-67775951D01*
X47166554Y-67840446D01*
X47252009Y-67923692D01*
X47256813Y-67926902D01*
X47276453Y-67940025D01*
X47432863Y-68044536D01*
X47438171Y-68046817D01*
X47438172Y-68046817D01*
X47627409Y-68128119D01*
X47627412Y-68128120D01*
X47632712Y-68130397D01*
X47638342Y-68131671D01*
X47745908Y-68156011D01*
X47844860Y-68178402D01*
X47850631Y-68178629D01*
X47850633Y-68178629D01*
X47923620Y-68181496D01*
X48062205Y-68186941D01*
X48277466Y-68155730D01*
X48282930Y-68153875D01*
X48282935Y-68153874D01*
X48477963Y-68087671D01*
X48477968Y-68087669D01*
X48483435Y-68085813D01*
X48489296Y-68082531D01*
X48581166Y-68031081D01*
X48673213Y-67979532D01*
X48840446Y-67840446D01*
X48979532Y-67673213D01*
X49085813Y-67483435D01*
X49087669Y-67477968D01*
X49087671Y-67477963D01*
X49153874Y-67282935D01*
X49153875Y-67282930D01*
X49155730Y-67277466D01*
X49186941Y-67062205D01*
X49188570Y-67000000D01*
X49168667Y-66783400D01*
X49161955Y-66759599D01*
X49111195Y-66579619D01*
X49109626Y-66574055D01*
X49013423Y-66378974D01*
X48935829Y-66275062D01*
X48886733Y-66209315D01*
X48886732Y-66209314D01*
X48883280Y-66204691D01*
X48871111Y-66193442D01*
X48727796Y-66060963D01*
X48727793Y-66060961D01*
X48723556Y-66057044D01*
X48539599Y-65940976D01*
X48337572Y-65860376D01*
X48124239Y-65817941D01*
X48118464Y-65817865D01*
X48118460Y-65817865D01*
X48009419Y-65816438D01*
X47906746Y-65815094D01*
X47901049Y-65816073D01*
X47901048Y-65816073D01*
X47698065Y-65850952D01*
X47698062Y-65850953D01*
X47692375Y-65851930D01*
X47488307Y-65927214D01*
X47301376Y-66038427D01*
X47137842Y-66181842D01*
X47134270Y-66186372D01*
X47134269Y-66186374D01*
X47100007Y-66229834D01*
X47042125Y-66270947D01*
X46971205Y-66274239D01*
X46909763Y-66238667D01*
X46900100Y-66227215D01*
X46886737Y-66209319D01*
X46886730Y-66209312D01*
X46883280Y-66204691D01*
X46871111Y-66193442D01*
X46727796Y-66060963D01*
X46727793Y-66060961D01*
X46723556Y-66057044D01*
X46539599Y-65940976D01*
X46337572Y-65860376D01*
X46124239Y-65817941D01*
X46118464Y-65817865D01*
X46118460Y-65817865D01*
X46009419Y-65816438D01*
X45906746Y-65815094D01*
X45901049Y-65816073D01*
X45901048Y-65816073D01*
X45698065Y-65850952D01*
X45698062Y-65850953D01*
X45692375Y-65851930D01*
X45488307Y-65927214D01*
X45301376Y-66038427D01*
X45137842Y-66181842D01*
X45134270Y-66186373D01*
X45099688Y-66230240D01*
X45041807Y-66271353D01*
X44970887Y-66274647D01*
X44909444Y-66239075D01*
X44899780Y-66227622D01*
X44886364Y-66209655D01*
X44878671Y-66201111D01*
X44727490Y-66061361D01*
X44718365Y-66054360D01*
X44544255Y-65944505D01*
X44534008Y-65939284D01*
X44342793Y-65862997D01*
X44331767Y-65859730D01*
X44271770Y-65847797D01*
X44258894Y-65848949D01*
X44254000Y-65864102D01*
X44254000Y-68140512D01*
X43746000Y-68140512D01*
X43746000Y-65861337D01*
X43742194Y-65848375D01*
X43727278Y-65846439D01*
X43698202Y-65851435D01*
X43687082Y-65854415D01*
X43493940Y-65925669D01*
X43483562Y-65930619D01*
X43306639Y-66035877D01*
X43297327Y-66042643D01*
X43142547Y-66178381D01*
X43134629Y-66186725D01*
X43100317Y-66230249D01*
X43042436Y-66271361D01*
X42971516Y-66274655D01*
X42910073Y-66239083D01*
X42900410Y-66227631D01*
X42886733Y-66209315D01*
X42886732Y-66209314D01*
X42883280Y-66204691D01*
X42871111Y-66193442D01*
X42727796Y-66060963D01*
X42727793Y-66060961D01*
X42723556Y-66057044D01*
X42539599Y-65940976D01*
X42337572Y-65860376D01*
X42124239Y-65817941D01*
X42118464Y-65817865D01*
X42118460Y-65817865D01*
X42009419Y-65816438D01*
X41906746Y-65815094D01*
X41901049Y-65816073D01*
X41901048Y-65816073D01*
X41698065Y-65850952D01*
X41698062Y-65850953D01*
X41692375Y-65851930D01*
X41488307Y-65927214D01*
X41301376Y-66038427D01*
X41217575Y-66111919D01*
X41153174Y-66141794D01*
X41082841Y-66132108D01*
X41028909Y-66085935D01*
X41008500Y-66017185D01*
X41008500Y-64969925D01*
X41028502Y-64901804D01*
X41045405Y-64880830D01*
X43181309Y-62744925D01*
X43243621Y-62710900D01*
X43270404Y-62708020D01*
X46238637Y-62708020D01*
X46252244Y-62708757D01*
X46283742Y-62712179D01*
X46283747Y-62712179D01*
X46289868Y-62712844D01*
X46316118Y-62710547D01*
X46339868Y-62708470D01*
X46344694Y-62708141D01*
X46347166Y-62708020D01*
X46350249Y-62708020D01*
X46362218Y-62706846D01*
X46392986Y-62703830D01*
X46394299Y-62703708D01*
X46438564Y-62699835D01*
X46486893Y-62695607D01*
X46492012Y-62694120D01*
X46497313Y-62693600D01*
X46586314Y-62666729D01*
X46587447Y-62666394D01*
X46670894Y-62642150D01*
X46670898Y-62642148D01*
X46676816Y-62640429D01*
X46681548Y-62637976D01*
X46686649Y-62636436D01*
X46692092Y-62633542D01*
X46768740Y-62592789D01*
X46769906Y-62592177D01*
X46846933Y-62552249D01*
X46852406Y-62549412D01*
X46856569Y-62546089D01*
X46861276Y-62543586D01*
X46933398Y-62484765D01*
X46934254Y-62484074D01*
X46973453Y-62452782D01*
X46975957Y-62450278D01*
X46976675Y-62449636D01*
X46981008Y-62445935D01*
X47014542Y-62418585D01*
X47043768Y-62383257D01*
X47051757Y-62374478D01*
X50672963Y-58753271D01*
X50672970Y-58753265D01*
X50681310Y-58744925D01*
X50743622Y-58710899D01*
X50770405Y-58708020D01*
X54838458Y-58708020D01*
X54906579Y-58728022D01*
X54953072Y-58781678D01*
X54963176Y-58851952D01*
X54933682Y-58916532D01*
X54911676Y-58936564D01*
X54613716Y-59149303D01*
X54266004Y-59443800D01*
X53943800Y-59766004D01*
X53649303Y-60113716D01*
X53384525Y-60484560D01*
X53366134Y-60515425D01*
X53158186Y-60864408D01*
X53151277Y-60876002D01*
X53150132Y-60878344D01*
X53150131Y-60878346D01*
X53029705Y-61124681D01*
X52951149Y-61285369D01*
X52785511Y-61709864D01*
X52655493Y-62146587D01*
X52561983Y-62592555D01*
X52505620Y-63044723D01*
X52487317Y-63487248D01*
X52486309Y-63493724D01*
X52486872Y-63498027D01*
X52486790Y-63500000D01*
X52487130Y-63500000D01*
X52489398Y-63517344D01*
X52490436Y-63525283D01*
X52491500Y-63541620D01*
X52491500Y-69865500D01*
X52471498Y-69933621D01*
X52417842Y-69980114D01*
X52365500Y-69991500D01*
X12634500Y-69991500D01*
X12566379Y-69971498D01*
X12519886Y-69917842D01*
X12508500Y-69865500D01*
X12508500Y-64905341D01*
X14487888Y-64905341D01*
X14487983Y-64908970D01*
X14487983Y-64908972D01*
X14488729Y-64937443D01*
X14488729Y-64937445D01*
X14495395Y-65192004D01*
X14496970Y-65252171D01*
X14545856Y-65595660D01*
X14633897Y-65931253D01*
X14759927Y-66254503D01*
X14761624Y-66257708D01*
X14898329Y-66515899D01*
X14922275Y-66561126D01*
X14924325Y-66564109D01*
X14924327Y-66564112D01*
X15116733Y-66844064D01*
X15116739Y-66844071D01*
X15118790Y-66847056D01*
X15346866Y-67108505D01*
X15349551Y-67110948D01*
X15559268Y-67301775D01*
X15603481Y-67342006D01*
X15885233Y-67544466D01*
X16188388Y-67713200D01*
X16508928Y-67845972D01*
X16512422Y-67846967D01*
X16512424Y-67846968D01*
X16839103Y-67940025D01*
X16839108Y-67940026D01*
X16842604Y-67941022D01*
X17039304Y-67973233D01*
X17181412Y-67996504D01*
X17181419Y-67996505D01*
X17184993Y-67997090D01*
X17358276Y-68005262D01*
X17527931Y-68013263D01*
X17527932Y-68013263D01*
X17531558Y-68013434D01*
X17540415Y-68012830D01*
X17874073Y-67990084D01*
X17874081Y-67990083D01*
X17877704Y-67989836D01*
X17881279Y-67989173D01*
X17881282Y-67989173D01*
X18215279Y-67927270D01*
X18215283Y-67927269D01*
X18218844Y-67926609D01*
X18550456Y-67824592D01*
X18868145Y-67685136D01*
X18880941Y-67677659D01*
X19164560Y-67511926D01*
X19164562Y-67511925D01*
X19167700Y-67510091D01*
X19196486Y-67488478D01*
X19442244Y-67303958D01*
X19442248Y-67303955D01*
X19445151Y-67301775D01*
X19696819Y-67062950D01*
X19919370Y-66796783D01*
X19924380Y-66789157D01*
X20029356Y-66629345D01*
X20109853Y-66506799D01*
X20225497Y-66276866D01*
X20264117Y-66200080D01*
X20264120Y-66200072D01*
X20265744Y-66196844D01*
X20269447Y-66186725D01*
X20383729Y-65874437D01*
X20383730Y-65874433D01*
X20384977Y-65871026D01*
X20385822Y-65867504D01*
X20385825Y-65867496D01*
X20465124Y-65537191D01*
X20465125Y-65537187D01*
X20465971Y-65533662D01*
X20466408Y-65530052D01*
X20507316Y-65192004D01*
X20507316Y-65191997D01*
X20507652Y-65189225D01*
X20513599Y-65000000D01*
X20508856Y-64917735D01*
X20493836Y-64657246D01*
X20493835Y-64657241D01*
X20493627Y-64653626D01*
X20474164Y-64542109D01*
X20434600Y-64315415D01*
X20434598Y-64315408D01*
X20433976Y-64311842D01*
X20432197Y-64305834D01*
X20372964Y-64105869D01*
X20335437Y-63979180D01*
X20317131Y-63936261D01*
X20200740Y-63663386D01*
X20200738Y-63663383D01*
X20199316Y-63660048D01*
X20149569Y-63572831D01*
X20029208Y-63361816D01*
X20027417Y-63358676D01*
X19822018Y-63079060D01*
X19787690Y-63042118D01*
X19622954Y-62864841D01*
X19585842Y-62824904D01*
X19322019Y-62599578D01*
X19034047Y-62406069D01*
X18725741Y-62246940D01*
X18401189Y-62124302D01*
X18397668Y-62123418D01*
X18397663Y-62123416D01*
X18223398Y-62079644D01*
X18064692Y-62039780D01*
X18042476Y-62036855D01*
X17724315Y-61994968D01*
X17724307Y-61994967D01*
X17720711Y-61994494D01*
X17576045Y-61992221D01*
X17377446Y-61989101D01*
X17377442Y-61989101D01*
X17373804Y-61989044D01*
X17370190Y-61989405D01*
X17370184Y-61989405D01*
X17126843Y-62013694D01*
X17028569Y-62023503D01*
X16689583Y-62097414D01*
X16686156Y-62098587D01*
X16686150Y-62098589D01*
X16504462Y-62160795D01*
X16361339Y-62209797D01*
X16048188Y-62359163D01*
X15754279Y-62543532D01*
X15751443Y-62545804D01*
X15751436Y-62545809D01*
X15564937Y-62695223D01*
X15483509Y-62760459D01*
X15239466Y-63007071D01*
X15237225Y-63009929D01*
X15053269Y-63244538D01*
X15025386Y-63280098D01*
X15023493Y-63283187D01*
X15023491Y-63283190D01*
X14977233Y-63358676D01*
X14844105Y-63575921D01*
X14842580Y-63579206D01*
X14842578Y-63579210D01*
X14749052Y-63780696D01*
X14698027Y-63890620D01*
X14667586Y-63982666D01*
X14595497Y-64200642D01*
X14589087Y-64220023D01*
X14588351Y-64223578D01*
X14588350Y-64223581D01*
X14519465Y-64556214D01*
X14518730Y-64559764D01*
X14518408Y-64563375D01*
X14490076Y-64880830D01*
X14487888Y-64905341D01*
X12508500Y-64905341D01*
X12508500Y-57552817D01*
X20837514Y-57552817D01*
X20838095Y-57557837D01*
X20838095Y-57557841D01*
X20853923Y-57694631D01*
X20865415Y-57793956D01*
X20866791Y-57798820D01*
X20866792Y-57798823D01*
X20912476Y-57960266D01*
X20931510Y-58027532D01*
X20933644Y-58032108D01*
X20933646Y-58032114D01*
X20990446Y-58153922D01*
X21034099Y-58247536D01*
X21036940Y-58251717D01*
X21036941Y-58251718D01*
X21056635Y-58280696D01*
X21170544Y-58448307D01*
X21337332Y-58624681D01*
X21341358Y-58627759D01*
X21341359Y-58627760D01*
X21526154Y-58769047D01*
X21526158Y-58769050D01*
X21530174Y-58772120D01*
X21534632Y-58774510D01*
X21534633Y-58774511D01*
X21551280Y-58783437D01*
X21744109Y-58886831D01*
X21973631Y-58965862D01*
X22072978Y-58983022D01*
X22208926Y-59006504D01*
X22208932Y-59006505D01*
X22212836Y-59007179D01*
X22216797Y-59007359D01*
X22216798Y-59007359D01*
X22240506Y-59008436D01*
X22240525Y-59008436D01*
X22241925Y-59008500D01*
X23711001Y-59008500D01*
X23713509Y-59008298D01*
X23713514Y-59008298D01*
X23886924Y-58994346D01*
X23886929Y-58994345D01*
X23891965Y-58993940D01*
X23896873Y-58992734D01*
X23896876Y-58992734D01*
X24122792Y-58937244D01*
X24127706Y-58936037D01*
X24132358Y-58934062D01*
X24132362Y-58934061D01*
X24268171Y-58876413D01*
X24351156Y-58841188D01*
X24435091Y-58788331D01*
X24552288Y-58714528D01*
X24552291Y-58714526D01*
X24556567Y-58711833D01*
X24655422Y-58624681D01*
X24734858Y-58554650D01*
X24734861Y-58554647D01*
X24738655Y-58551302D01*
X24764987Y-58519245D01*
X24889526Y-58367628D01*
X24889528Y-58367625D01*
X24892734Y-58363722D01*
X25014841Y-58153922D01*
X25101833Y-57927298D01*
X25108129Y-57897162D01*
X25150440Y-57694631D01*
X25150440Y-57694627D01*
X25151474Y-57689680D01*
X25162486Y-57447183D01*
X25151908Y-57355761D01*
X25135167Y-57211071D01*
X25135166Y-57211067D01*
X25134585Y-57206044D01*
X25095517Y-57067978D01*
X25069866Y-56977331D01*
X25068490Y-56972468D01*
X25066356Y-56967892D01*
X25066354Y-56967886D01*
X24968038Y-56757046D01*
X24968036Y-56757042D01*
X24965901Y-56752464D01*
X24829456Y-56551693D01*
X24662668Y-56375319D01*
X24658641Y-56372240D01*
X24473846Y-56230953D01*
X24473842Y-56230950D01*
X24469826Y-56227880D01*
X24255891Y-56113169D01*
X24026369Y-56034138D01*
X23927022Y-56016978D01*
X23791074Y-55993496D01*
X23791068Y-55993495D01*
X23787164Y-55992821D01*
X23783203Y-55992641D01*
X23783202Y-55992641D01*
X23759494Y-55991564D01*
X23759475Y-55991564D01*
X23758075Y-55991500D01*
X22288999Y-55991500D01*
X22286491Y-55991702D01*
X22286486Y-55991702D01*
X22113076Y-56005654D01*
X22113071Y-56005655D01*
X22108035Y-56006060D01*
X22103127Y-56007266D01*
X22103124Y-56007266D01*
X21897642Y-56057737D01*
X21872294Y-56063963D01*
X21867642Y-56065938D01*
X21867638Y-56065939D01*
X21731829Y-56123587D01*
X21648844Y-56158812D01*
X21644560Y-56161510D01*
X21447712Y-56285472D01*
X21447709Y-56285474D01*
X21443433Y-56288167D01*
X21439639Y-56291512D01*
X21265142Y-56445350D01*
X21265139Y-56445353D01*
X21261345Y-56448698D01*
X21258135Y-56452606D01*
X21258134Y-56452607D01*
X21171147Y-56558508D01*
X21107266Y-56636278D01*
X20985159Y-56846078D01*
X20983346Y-56850801D01*
X20909173Y-57044031D01*
X20898167Y-57072702D01*
X20897133Y-57077652D01*
X20897132Y-57077655D01*
X20863383Y-57239205D01*
X20848526Y-57310320D01*
X20837514Y-57552817D01*
X12508500Y-57552817D01*
X12508500Y-38602461D01*
X16992001Y-38602461D01*
X16992209Y-38607571D01*
X17003082Y-38741267D01*
X17004852Y-38751820D01*
X17057967Y-38958685D01*
X17061701Y-38969231D01*
X17150510Y-39163205D01*
X17156046Y-39172912D01*
X17277803Y-39348097D01*
X17284976Y-39356676D01*
X17435824Y-39507524D01*
X17444403Y-39514697D01*
X17619588Y-39636454D01*
X17629295Y-39641990D01*
X17823269Y-39730799D01*
X17833815Y-39734533D01*
X18040679Y-39787647D01*
X18051234Y-39789418D01*
X18184930Y-39800293D01*
X18190036Y-39800500D01*
X18727885Y-39800500D01*
X18743124Y-39796025D01*
X18744329Y-39794635D01*
X18746000Y-39786952D01*
X18746000Y-39782384D01*
X19254000Y-39782384D01*
X19258475Y-39797623D01*
X19259865Y-39798828D01*
X19267548Y-39800499D01*
X19809961Y-39800499D01*
X19815071Y-39800291D01*
X19948767Y-39789418D01*
X19959320Y-39787648D01*
X20166185Y-39734533D01*
X20176731Y-39730799D01*
X20370705Y-39641990D01*
X20380412Y-39636454D01*
X20555597Y-39514697D01*
X20564176Y-39507524D01*
X20715024Y-39356676D01*
X20722197Y-39348097D01*
X20843954Y-39172912D01*
X20849490Y-39163205D01*
X20938299Y-38969231D01*
X20942033Y-38958685D01*
X20995147Y-38751821D01*
X20996918Y-38741266D01*
X21007793Y-38607570D01*
X21008000Y-38602464D01*
X21008000Y-37814615D01*
X21003525Y-37799376D01*
X21002135Y-37798171D01*
X20994452Y-37796500D01*
X19272115Y-37796500D01*
X19256876Y-37800975D01*
X19255671Y-37802365D01*
X19254000Y-37810048D01*
X19254000Y-39782384D01*
X18746000Y-39782384D01*
X18746000Y-37814615D01*
X18741525Y-37799376D01*
X18740135Y-37798171D01*
X18732452Y-37796500D01*
X17010116Y-37796500D01*
X16994877Y-37800975D01*
X16993672Y-37802365D01*
X16992001Y-37810048D01*
X16992001Y-38602461D01*
X12508500Y-38602461D01*
X12508500Y-37270385D01*
X16992000Y-37270385D01*
X16996475Y-37285624D01*
X16997865Y-37286829D01*
X17005548Y-37288500D01*
X18727885Y-37288500D01*
X18743124Y-37284025D01*
X18744329Y-37282635D01*
X18746000Y-37274952D01*
X18746000Y-37270385D01*
X19254000Y-37270385D01*
X19258475Y-37285624D01*
X19259865Y-37286829D01*
X19267548Y-37288500D01*
X20989884Y-37288500D01*
X21005123Y-37284025D01*
X21006328Y-37282635D01*
X21007999Y-37274952D01*
X21007999Y-36482539D01*
X21007791Y-36477429D01*
X20996918Y-36343733D01*
X20995148Y-36333180D01*
X20942033Y-36126315D01*
X20938299Y-36115769D01*
X20849490Y-35921795D01*
X20843954Y-35912088D01*
X20722197Y-35736903D01*
X20715024Y-35728324D01*
X20564176Y-35577476D01*
X20555597Y-35570303D01*
X20380412Y-35448546D01*
X20370705Y-35443010D01*
X20176731Y-35354201D01*
X20166185Y-35350467D01*
X19959321Y-35297353D01*
X19948766Y-35295582D01*
X19815070Y-35284707D01*
X19809964Y-35284500D01*
X19272115Y-35284500D01*
X19256876Y-35288975D01*
X19255671Y-35290365D01*
X19254000Y-35298048D01*
X19254000Y-37270385D01*
X18746000Y-37270385D01*
X18746000Y-35302616D01*
X18741525Y-35287377D01*
X18740135Y-35286172D01*
X18732452Y-35284501D01*
X18190039Y-35284501D01*
X18184929Y-35284709D01*
X18051233Y-35295582D01*
X18040680Y-35297352D01*
X17833815Y-35350467D01*
X17823269Y-35354201D01*
X17629295Y-35443010D01*
X17619588Y-35448546D01*
X17444403Y-35570303D01*
X17435824Y-35577476D01*
X17284976Y-35728324D01*
X17277803Y-35736903D01*
X17156046Y-35912088D01*
X17150510Y-35921795D01*
X17061701Y-36115769D01*
X17057967Y-36126315D01*
X17004853Y-36333179D01*
X17003082Y-36343734D01*
X16992207Y-36477430D01*
X16992000Y-36482536D01*
X16992000Y-37270385D01*
X12508500Y-37270385D01*
X12508500Y-17405341D01*
X14487888Y-17405341D01*
X14487983Y-17408970D01*
X14487983Y-17408972D01*
X14488729Y-17437443D01*
X14488729Y-17437445D01*
X14495395Y-17692004D01*
X14496970Y-17752171D01*
X14545856Y-18095660D01*
X14633897Y-18431253D01*
X14759927Y-18754503D01*
X14761624Y-18757708D01*
X14895113Y-19009825D01*
X14922275Y-19061126D01*
X14924325Y-19064109D01*
X14924327Y-19064112D01*
X15116733Y-19344064D01*
X15116739Y-19344071D01*
X15118790Y-19347056D01*
X15346866Y-19608505D01*
X15349551Y-19610948D01*
X15559268Y-19801775D01*
X15603481Y-19842006D01*
X15885233Y-20044466D01*
X16188388Y-20213200D01*
X16508928Y-20345972D01*
X16512422Y-20346967D01*
X16512424Y-20346968D01*
X16839103Y-20440025D01*
X16839108Y-20440026D01*
X16842604Y-20441022D01*
X17039304Y-20473233D01*
X17181412Y-20496504D01*
X17181419Y-20496505D01*
X17184993Y-20497090D01*
X17358276Y-20505262D01*
X17527931Y-20513263D01*
X17527932Y-20513263D01*
X17531558Y-20513434D01*
X17540415Y-20512830D01*
X17874073Y-20490084D01*
X17874081Y-20490083D01*
X17877704Y-20489836D01*
X17881279Y-20489173D01*
X17881282Y-20489173D01*
X18215279Y-20427270D01*
X18215283Y-20427269D01*
X18218844Y-20426609D01*
X18550456Y-20324592D01*
X18868145Y-20185136D01*
X18935429Y-20145819D01*
X19164560Y-20011926D01*
X19164562Y-20011925D01*
X19167700Y-20010091D01*
X19170609Y-20007907D01*
X19442244Y-19803958D01*
X19442248Y-19803955D01*
X19445151Y-19801775D01*
X19696819Y-19562950D01*
X19919370Y-19296783D01*
X20109853Y-19006799D01*
X20241438Y-18745171D01*
X20264117Y-18700080D01*
X20264120Y-18700072D01*
X20265744Y-18696844D01*
X20266989Y-18693442D01*
X20383729Y-18374437D01*
X20383730Y-18374433D01*
X20384977Y-18371026D01*
X20385822Y-18367504D01*
X20385825Y-18367496D01*
X20465124Y-18037191D01*
X20465125Y-18037187D01*
X20465971Y-18033662D01*
X20466408Y-18030052D01*
X20507316Y-17692004D01*
X20507316Y-17691997D01*
X20507652Y-17689225D01*
X20513599Y-17500000D01*
X20509992Y-17437443D01*
X20493836Y-17157246D01*
X20493835Y-17157241D01*
X20493627Y-17153626D01*
X20433976Y-16811842D01*
X20335437Y-16479180D01*
X20334013Y-16475841D01*
X20200740Y-16163386D01*
X20200738Y-16163383D01*
X20199316Y-16160048D01*
X20149569Y-16072831D01*
X20029208Y-15861816D01*
X20027417Y-15858676D01*
X19822018Y-15579060D01*
X19585842Y-15324904D01*
X19322019Y-15099578D01*
X19034047Y-14906069D01*
X18725741Y-14746940D01*
X18401189Y-14624302D01*
X18397668Y-14623418D01*
X18397663Y-14623416D01*
X18236378Y-14582904D01*
X18064692Y-14539780D01*
X18042476Y-14536855D01*
X17724315Y-14494968D01*
X17724307Y-14494967D01*
X17720711Y-14494494D01*
X17576045Y-14492221D01*
X17377446Y-14489101D01*
X17377442Y-14489101D01*
X17373804Y-14489044D01*
X17370190Y-14489405D01*
X17370184Y-14489405D01*
X17126843Y-14513694D01*
X17028569Y-14523503D01*
X16689583Y-14597414D01*
X16686156Y-14598587D01*
X16686150Y-14598589D01*
X16471405Y-14672113D01*
X16361339Y-14709797D01*
X16048188Y-14859163D01*
X15754279Y-15043532D01*
X15751443Y-15045804D01*
X15751436Y-15045809D01*
X15599586Y-15167464D01*
X15483509Y-15260459D01*
X15239466Y-15507071D01*
X15237225Y-15509929D01*
X15180732Y-15581978D01*
X15025386Y-15780098D01*
X15023493Y-15783187D01*
X15023491Y-15783190D01*
X14977233Y-15858676D01*
X14844105Y-16075921D01*
X14842580Y-16079206D01*
X14842578Y-16079210D01*
X14803505Y-16163386D01*
X14698027Y-16390620D01*
X14589087Y-16720023D01*
X14518730Y-17059764D01*
X14487888Y-17405341D01*
X12508500Y-17405341D01*
X12508500Y-12634500D01*
X12528502Y-12566379D01*
X12582158Y-12519886D01*
X12634500Y-12508500D01*
X41279774Y-12508500D01*
X41347895Y-12528502D01*
G37*
%TD.AperFunction*%
%TA.AperFunction,Conductor*%
G36*
X52433621Y-12528502D02*
G01*
X52480114Y-12582158D01*
X52491500Y-12634500D01*
X52491500Y-12991377D01*
X52491498Y-12992147D01*
X52491024Y-13069721D01*
X52493491Y-13078352D01*
X52499150Y-13098153D01*
X52502728Y-13114915D01*
X52506920Y-13144187D01*
X52510634Y-13152355D01*
X52510634Y-13152356D01*
X52517548Y-13167562D01*
X52523996Y-13185086D01*
X52531051Y-13209771D01*
X52535843Y-13217365D01*
X52535844Y-13217368D01*
X52546830Y-13234780D01*
X52554969Y-13249863D01*
X52567208Y-13276782D01*
X52573069Y-13283584D01*
X52583970Y-13296235D01*
X52595073Y-13311239D01*
X52608776Y-13332958D01*
X52615501Y-13338897D01*
X52615504Y-13338901D01*
X52630938Y-13352532D01*
X52642982Y-13364724D01*
X52656427Y-13380327D01*
X52656430Y-13380329D01*
X52662287Y-13387127D01*
X52669816Y-13392007D01*
X52669817Y-13392008D01*
X52683835Y-13401094D01*
X52698709Y-13412385D01*
X52711217Y-13423431D01*
X52717951Y-13429378D01*
X52744711Y-13441942D01*
X52759691Y-13450263D01*
X52776983Y-13461471D01*
X52776988Y-13461473D01*
X52784515Y-13466352D01*
X52793108Y-13468922D01*
X52793113Y-13468924D01*
X52809120Y-13473711D01*
X52826564Y-13480372D01*
X52841676Y-13487467D01*
X52841678Y-13487468D01*
X52849800Y-13491281D01*
X52858667Y-13492662D01*
X52858668Y-13492662D01*
X52861353Y-13493080D01*
X52879017Y-13495830D01*
X52895732Y-13499613D01*
X52915466Y-13505515D01*
X52915472Y-13505516D01*
X52924066Y-13508086D01*
X52933037Y-13508141D01*
X52933038Y-13508141D01*
X52943097Y-13508202D01*
X52958506Y-13508296D01*
X52959289Y-13508329D01*
X52960386Y-13508500D01*
X52991377Y-13508500D01*
X52992147Y-13508502D01*
X53065785Y-13508952D01*
X53065786Y-13508952D01*
X53069721Y-13508976D01*
X53071065Y-13508592D01*
X53072410Y-13508500D01*
X62991377Y-13508500D01*
X62992148Y-13508502D01*
X63069721Y-13508976D01*
X63098152Y-13500850D01*
X63114915Y-13497272D01*
X63115753Y-13497152D01*
X63144187Y-13493080D01*
X63167564Y-13482451D01*
X63185087Y-13476004D01*
X63209771Y-13468949D01*
X63217365Y-13464157D01*
X63217368Y-13464156D01*
X63234780Y-13453170D01*
X63249865Y-13445030D01*
X63276782Y-13432792D01*
X63296235Y-13416030D01*
X63311239Y-13404927D01*
X63332958Y-13391224D01*
X63338897Y-13384499D01*
X63338901Y-13384496D01*
X63352532Y-13369062D01*
X63364724Y-13357018D01*
X63380327Y-13343573D01*
X63380329Y-13343570D01*
X63387127Y-13337713D01*
X63397849Y-13321172D01*
X63401094Y-13316165D01*
X63412385Y-13301291D01*
X63423431Y-13288783D01*
X63423432Y-13288782D01*
X63429378Y-13282049D01*
X63441943Y-13255287D01*
X63450263Y-13240309D01*
X63461471Y-13223017D01*
X63461473Y-13223012D01*
X63466352Y-13215485D01*
X63468922Y-13206892D01*
X63468924Y-13206887D01*
X63473711Y-13190880D01*
X63480372Y-13173436D01*
X63487467Y-13158324D01*
X63487468Y-13158322D01*
X63491281Y-13150200D01*
X63495830Y-13120983D01*
X63499613Y-13104268D01*
X63505515Y-13084534D01*
X63505516Y-13084528D01*
X63508086Y-13075934D01*
X63508153Y-13065064D01*
X63508296Y-13041503D01*
X63508329Y-13040711D01*
X63508500Y-13039614D01*
X63508500Y-13008623D01*
X63508502Y-13007853D01*
X63508952Y-12934215D01*
X63508952Y-12934214D01*
X63508976Y-12930279D01*
X63508592Y-12928935D01*
X63508500Y-12927590D01*
X63508500Y-12634500D01*
X63528502Y-12566379D01*
X63582158Y-12519886D01*
X63634500Y-12508500D01*
X155365500Y-12508500D01*
X155433621Y-12528502D01*
X155480114Y-12582158D01*
X155491500Y-12634500D01*
X155491500Y-69865500D01*
X155471498Y-69933621D01*
X155417842Y-69980114D01*
X155365500Y-69991500D01*
X63634500Y-69991500D01*
X63566379Y-69971498D01*
X63519886Y-69917842D01*
X63508500Y-69865500D01*
X63508500Y-64905341D01*
X125737888Y-64905341D01*
X125737983Y-64908970D01*
X125737983Y-64908972D01*
X125738729Y-64937443D01*
X125738729Y-64937445D01*
X125745395Y-65192004D01*
X125746970Y-65252171D01*
X125795856Y-65595660D01*
X125883897Y-65931253D01*
X126009927Y-66254503D01*
X126011624Y-66257708D01*
X126148329Y-66515899D01*
X126172275Y-66561126D01*
X126174325Y-66564109D01*
X126174327Y-66564112D01*
X126366733Y-66844064D01*
X126366739Y-66844071D01*
X126368790Y-66847056D01*
X126596866Y-67108505D01*
X126599551Y-67110948D01*
X126809268Y-67301775D01*
X126853481Y-67342006D01*
X127135233Y-67544466D01*
X127438388Y-67713200D01*
X127758928Y-67845972D01*
X127762422Y-67846967D01*
X127762424Y-67846968D01*
X128089103Y-67940025D01*
X128089108Y-67940026D01*
X128092604Y-67941022D01*
X128289304Y-67973233D01*
X128431412Y-67996504D01*
X128431419Y-67996505D01*
X128434993Y-67997090D01*
X128608276Y-68005262D01*
X128777931Y-68013263D01*
X128777932Y-68013263D01*
X128781558Y-68013434D01*
X128790415Y-68012830D01*
X129124073Y-67990084D01*
X129124081Y-67990083D01*
X129127704Y-67989836D01*
X129131279Y-67989173D01*
X129131282Y-67989173D01*
X129465279Y-67927270D01*
X129465283Y-67927269D01*
X129468844Y-67926609D01*
X129800456Y-67824592D01*
X130118145Y-67685136D01*
X130130941Y-67677659D01*
X130414560Y-67511926D01*
X130414562Y-67511925D01*
X130417700Y-67510091D01*
X130446486Y-67488478D01*
X130692244Y-67303958D01*
X130692248Y-67303955D01*
X130695151Y-67301775D01*
X130946819Y-67062950D01*
X131169370Y-66796783D01*
X131174380Y-66789157D01*
X131279356Y-66629345D01*
X131359853Y-66506799D01*
X131475497Y-66276866D01*
X131514117Y-66200080D01*
X131514120Y-66200072D01*
X131515744Y-66196844D01*
X131519447Y-66186725D01*
X131633729Y-65874437D01*
X131633730Y-65874433D01*
X131634977Y-65871026D01*
X131635822Y-65867504D01*
X131635825Y-65867496D01*
X131715124Y-65537191D01*
X131715125Y-65537187D01*
X131715971Y-65533662D01*
X131716408Y-65530052D01*
X131757316Y-65192004D01*
X131757316Y-65191997D01*
X131757652Y-65189225D01*
X131763599Y-65000000D01*
X131758856Y-64917735D01*
X131743836Y-64657246D01*
X131743835Y-64657241D01*
X131743627Y-64653626D01*
X131724164Y-64542109D01*
X131684600Y-64315415D01*
X131684598Y-64315408D01*
X131683976Y-64311842D01*
X131682197Y-64305834D01*
X131622964Y-64105869D01*
X131585437Y-63979180D01*
X131567131Y-63936261D01*
X131450740Y-63663386D01*
X131450738Y-63663383D01*
X131449316Y-63660048D01*
X131399569Y-63572831D01*
X131279208Y-63361816D01*
X131277417Y-63358676D01*
X131072018Y-63079060D01*
X131037690Y-63042118D01*
X130872954Y-62864841D01*
X130835842Y-62824904D01*
X130572019Y-62599578D01*
X130284047Y-62406069D01*
X129975741Y-62246940D01*
X129651189Y-62124302D01*
X129647668Y-62123418D01*
X129647663Y-62123416D01*
X129473398Y-62079644D01*
X129314692Y-62039780D01*
X129292476Y-62036855D01*
X128974315Y-61994968D01*
X128974307Y-61994967D01*
X128970711Y-61994494D01*
X128826045Y-61992221D01*
X128627446Y-61989101D01*
X128627442Y-61989101D01*
X128623804Y-61989044D01*
X128620190Y-61989405D01*
X128620184Y-61989405D01*
X128376843Y-62013694D01*
X128278569Y-62023503D01*
X127939583Y-62097414D01*
X127936156Y-62098587D01*
X127936150Y-62098589D01*
X127754462Y-62160795D01*
X127611339Y-62209797D01*
X127298188Y-62359163D01*
X127004279Y-62543532D01*
X127001443Y-62545804D01*
X127001436Y-62545809D01*
X126814937Y-62695223D01*
X126733509Y-62760459D01*
X126489466Y-63007071D01*
X126487225Y-63009929D01*
X126303269Y-63244538D01*
X126275386Y-63280098D01*
X126273493Y-63283187D01*
X126273491Y-63283190D01*
X126227233Y-63358676D01*
X126094105Y-63575921D01*
X126092580Y-63579206D01*
X126092578Y-63579210D01*
X125999052Y-63780696D01*
X125948027Y-63890620D01*
X125917586Y-63982666D01*
X125845497Y-64200642D01*
X125839087Y-64220023D01*
X125838351Y-64223578D01*
X125838350Y-64223581D01*
X125769465Y-64556214D01*
X125768730Y-64559764D01*
X125768408Y-64563375D01*
X125740076Y-64880830D01*
X125737888Y-64905341D01*
X63508500Y-64905341D01*
X63508500Y-63553250D01*
X63510246Y-63532345D01*
X63512770Y-63517344D01*
X63512770Y-63517341D01*
X63513576Y-63512552D01*
X63513729Y-63500000D01*
X63513045Y-63495222D01*
X63512899Y-63492476D01*
X63503182Y-63257551D01*
X63494380Y-63044723D01*
X63438017Y-62592555D01*
X63344507Y-62146587D01*
X63214489Y-61709864D01*
X63048851Y-61285369D01*
X62970295Y-61124681D01*
X62849869Y-60878346D01*
X62849868Y-60878344D01*
X62848723Y-60876002D01*
X62841815Y-60864408D01*
X62633866Y-60515425D01*
X62615475Y-60484560D01*
X62350697Y-60113716D01*
X62056200Y-59766004D01*
X61733996Y-59443800D01*
X61386284Y-59149303D01*
X61088325Y-58936564D01*
X61044509Y-58880703D01*
X61037849Y-58810019D01*
X61070461Y-58746956D01*
X61131990Y-58711535D01*
X61161542Y-58708020D01*
X123049769Y-58708020D01*
X123052825Y-58707720D01*
X123052832Y-58707720D01*
X123125014Y-58700642D01*
X123196833Y-58693600D01*
X123202734Y-58691818D01*
X123202736Y-58691818D01*
X123276053Y-58669682D01*
X123386169Y-58636436D01*
X123560796Y-58543586D01*
X123649184Y-58471498D01*
X123709287Y-58422480D01*
X123709290Y-58422477D01*
X123714062Y-58418585D01*
X123717991Y-58413836D01*
X123836201Y-58270945D01*
X123836203Y-58270941D01*
X123840130Y-58266195D01*
X123934198Y-58092221D01*
X123992682Y-57903288D01*
X124004173Y-57793956D01*
X124012711Y-57712724D01*
X124012711Y-57712722D01*
X124013355Y-57706595D01*
X124007833Y-57645919D01*
X124021578Y-57576267D01*
X124070799Y-57525102D01*
X124133314Y-57508500D01*
X131822969Y-57508500D01*
X131891090Y-57528502D01*
X131912064Y-57545405D01*
X137194595Y-62827936D01*
X137228621Y-62890248D01*
X137231500Y-62917031D01*
X137231500Y-66515899D01*
X137211498Y-66584020D01*
X137157842Y-66630513D01*
X137099206Y-66641616D01*
X137098134Y-66641500D01*
X135301866Y-66641500D01*
X135239684Y-66648255D01*
X135103295Y-66699385D01*
X134986739Y-66786739D01*
X134899385Y-66903295D01*
X134848255Y-67039684D01*
X134841500Y-67101866D01*
X134841500Y-68898134D01*
X134848255Y-68960316D01*
X134899385Y-69096705D01*
X134986739Y-69213261D01*
X135103295Y-69300615D01*
X135239684Y-69351745D01*
X135301866Y-69358500D01*
X137098134Y-69358500D01*
X137160316Y-69351745D01*
X137296705Y-69300615D01*
X137413261Y-69213261D01*
X137497695Y-69100601D01*
X137554553Y-69058087D01*
X137625372Y-69053061D01*
X137685854Y-69085429D01*
X137688698Y-69088655D01*
X137791064Y-69172739D01*
X137861663Y-69230729D01*
X137876278Y-69242734D01*
X137923454Y-69270191D01*
X138080448Y-69361564D01*
X138086078Y-69364841D01*
X138090801Y-69366654D01*
X138307978Y-69450020D01*
X138307982Y-69450021D01*
X138312702Y-69451833D01*
X138317652Y-69452867D01*
X138317655Y-69452868D01*
X138545369Y-69500440D01*
X138545373Y-69500440D01*
X138550320Y-69501474D01*
X138792817Y-69512486D01*
X138797837Y-69511905D01*
X138797841Y-69511905D01*
X139028929Y-69485167D01*
X139028933Y-69485166D01*
X139033956Y-69484585D01*
X139038820Y-69483209D01*
X139038823Y-69483208D01*
X139262669Y-69419866D01*
X139262668Y-69419866D01*
X139267532Y-69418490D01*
X139272108Y-69416356D01*
X139272114Y-69416354D01*
X139482954Y-69318038D01*
X139482958Y-69318036D01*
X139487536Y-69315901D01*
X139496839Y-69309579D01*
X139614908Y-69229338D01*
X139688307Y-69179456D01*
X139864681Y-69012668D01*
X140002805Y-68832009D01*
X140060068Y-68790042D01*
X140130932Y-68785697D01*
X140192895Y-68820353D01*
X140198137Y-68826041D01*
X140322865Y-68970031D01*
X140322869Y-68970035D01*
X140326250Y-68973938D01*
X140498126Y-69116632D01*
X140691000Y-69229338D01*
X140695825Y-69231180D01*
X140695826Y-69231181D01*
X140732737Y-69245276D01*
X140899692Y-69309030D01*
X140904760Y-69310061D01*
X140904763Y-69310062D01*
X140999862Y-69329410D01*
X141118597Y-69353567D01*
X141123772Y-69353757D01*
X141123774Y-69353757D01*
X141336673Y-69361564D01*
X141336677Y-69361564D01*
X141341837Y-69361753D01*
X141346957Y-69361097D01*
X141346959Y-69361097D01*
X141558288Y-69334025D01*
X141558289Y-69334025D01*
X141563416Y-69333368D01*
X141568366Y-69331883D01*
X141772429Y-69270661D01*
X141772434Y-69270659D01*
X141777384Y-69269174D01*
X141977994Y-69170896D01*
X142159860Y-69041173D01*
X142318096Y-68883489D01*
X142448453Y-68702077D01*
X142449640Y-68702930D01*
X142496960Y-68659362D01*
X142566897Y-68647145D01*
X142632338Y-68674678D01*
X142660166Y-68706511D01*
X142717694Y-68800388D01*
X142723777Y-68808699D01*
X142863213Y-68969667D01*
X142870580Y-68976883D01*
X143034434Y-69112916D01*
X143042881Y-69118831D01*
X143226756Y-69226279D01*
X143236042Y-69230729D01*
X143435001Y-69306703D01*
X143444899Y-69309579D01*
X143548250Y-69330606D01*
X143562299Y-69329410D01*
X143566000Y-69319065D01*
X143566000Y-69318517D01*
X144074000Y-69318517D01*
X144078064Y-69332359D01*
X144091478Y-69334393D01*
X144098184Y-69333534D01*
X144108262Y-69331392D01*
X144312255Y-69270191D01*
X144321842Y-69266433D01*
X144513095Y-69172739D01*
X144521945Y-69167464D01*
X144695328Y-69043792D01*
X144703200Y-69037139D01*
X144842690Y-68898134D01*
X146366500Y-68898134D01*
X146373255Y-68960316D01*
X146424385Y-69096705D01*
X146511739Y-69213261D01*
X146628295Y-69300615D01*
X146764684Y-69351745D01*
X146826866Y-69358500D01*
X148623134Y-69358500D01*
X148685316Y-69351745D01*
X148821705Y-69300615D01*
X148938261Y-69213261D01*
X149025615Y-69096705D01*
X149040092Y-69058087D01*
X149069798Y-68978848D01*
X149112440Y-68922084D01*
X149179001Y-68897384D01*
X149248350Y-68912592D01*
X149283017Y-68940580D01*
X149308218Y-68969673D01*
X149315580Y-68976883D01*
X149479434Y-69112916D01*
X149487881Y-69118831D01*
X149671756Y-69226279D01*
X149681042Y-69230729D01*
X149880001Y-69306703D01*
X149889899Y-69309579D01*
X149993250Y-69330606D01*
X150007299Y-69329410D01*
X150011000Y-69319065D01*
X150011000Y-69318517D01*
X150519000Y-69318517D01*
X150523064Y-69332359D01*
X150536478Y-69334393D01*
X150543184Y-69333534D01*
X150553262Y-69331392D01*
X150757255Y-69270191D01*
X150766842Y-69266433D01*
X150958095Y-69172739D01*
X150966945Y-69167464D01*
X151140328Y-69043792D01*
X151148200Y-69037139D01*
X151299052Y-68886812D01*
X151305730Y-68878965D01*
X151430003Y-68706020D01*
X151435313Y-68697183D01*
X151529670Y-68506267D01*
X151533469Y-68496672D01*
X151595377Y-68292910D01*
X151597555Y-68282837D01*
X151598986Y-68271962D01*
X151596775Y-68257778D01*
X151583617Y-68254000D01*
X150537115Y-68254000D01*
X150521876Y-68258475D01*
X150520671Y-68259865D01*
X150519000Y-68267548D01*
X150519000Y-69318517D01*
X150011000Y-69318517D01*
X150011000Y-67727885D01*
X150519000Y-67727885D01*
X150523475Y-67743124D01*
X150524865Y-67744329D01*
X150532548Y-67746000D01*
X151583344Y-67746000D01*
X151596875Y-67742027D01*
X151598180Y-67732947D01*
X151556214Y-67565875D01*
X151552894Y-67556124D01*
X151467972Y-67360814D01*
X151463105Y-67351739D01*
X151347426Y-67172926D01*
X151341136Y-67164757D01*
X151197806Y-67007240D01*
X151190273Y-67000215D01*
X151023139Y-66868222D01*
X151014552Y-66862517D01*
X150828117Y-66759599D01*
X150818705Y-66755369D01*
X150617959Y-66684280D01*
X150607988Y-66681646D01*
X150536837Y-66668972D01*
X150523540Y-66670432D01*
X150519000Y-66684989D01*
X150519000Y-67727885D01*
X150011000Y-67727885D01*
X150011000Y-66683102D01*
X150007082Y-66669758D01*
X149992806Y-66667771D01*
X149954324Y-66673660D01*
X149944288Y-66676051D01*
X149741868Y-66742212D01*
X149732359Y-66746209D01*
X149543463Y-66844542D01*
X149534738Y-66850036D01*
X149364433Y-66977905D01*
X149356726Y-66984748D01*
X149279478Y-67065584D01*
X149217954Y-67101014D01*
X149147042Y-67097557D01*
X149089255Y-67056311D01*
X149070402Y-67022763D01*
X149028767Y-66911703D01*
X149025615Y-66903295D01*
X148938261Y-66786739D01*
X148821705Y-66699385D01*
X148685316Y-66648255D01*
X148623134Y-66641500D01*
X146826866Y-66641500D01*
X146764684Y-66648255D01*
X146628295Y-66699385D01*
X146511739Y-66786739D01*
X146424385Y-66903295D01*
X146373255Y-67039684D01*
X146366500Y-67101866D01*
X146366500Y-68898134D01*
X144842690Y-68898134D01*
X144854052Y-68886812D01*
X144860730Y-68878965D01*
X144985003Y-68706020D01*
X144990313Y-68697183D01*
X145084670Y-68506267D01*
X145088469Y-68496672D01*
X145150377Y-68292910D01*
X145152555Y-68282837D01*
X145153986Y-68271962D01*
X145151775Y-68257778D01*
X145138617Y-68254000D01*
X144092115Y-68254000D01*
X144076876Y-68258475D01*
X144075671Y-68259865D01*
X144074000Y-68267548D01*
X144074000Y-69318517D01*
X143566000Y-69318517D01*
X143566000Y-67727885D01*
X144074000Y-67727885D01*
X144078475Y-67743124D01*
X144079865Y-67744329D01*
X144087548Y-67746000D01*
X145138344Y-67746000D01*
X145151875Y-67742027D01*
X145153180Y-67732947D01*
X145111214Y-67565875D01*
X145107894Y-67556124D01*
X145022972Y-67360814D01*
X145018105Y-67351739D01*
X144902426Y-67172926D01*
X144896136Y-67164757D01*
X144752806Y-67007240D01*
X144745273Y-67000215D01*
X144578139Y-66868222D01*
X144569552Y-66862517D01*
X144383117Y-66759599D01*
X144373705Y-66755369D01*
X144172959Y-66684280D01*
X144162988Y-66681646D01*
X144091837Y-66668972D01*
X144078540Y-66670432D01*
X144074000Y-66684989D01*
X144074000Y-67727885D01*
X143566000Y-67727885D01*
X143566000Y-66683102D01*
X143562082Y-66669758D01*
X143547806Y-66667771D01*
X143509324Y-66673660D01*
X143499288Y-66676051D01*
X143296868Y-66742212D01*
X143287359Y-66746209D01*
X143098463Y-66844542D01*
X143089738Y-66850036D01*
X142919433Y-66977905D01*
X142911726Y-66984748D01*
X142764590Y-67138717D01*
X142758109Y-67146722D01*
X142653498Y-67300074D01*
X142598587Y-67345076D01*
X142528062Y-67353247D01*
X142464315Y-67321993D01*
X142443618Y-67297509D01*
X142371436Y-67185933D01*
X142360014Y-67168277D01*
X142356532Y-67164450D01*
X142321306Y-67125737D01*
X142290254Y-67061891D01*
X142288500Y-67040938D01*
X142288500Y-60670231D01*
X142287814Y-60663227D01*
X142274681Y-60529301D01*
X142274080Y-60523167D01*
X142216916Y-60333831D01*
X142124066Y-60159204D01*
X142053709Y-60072938D01*
X142002960Y-60010713D01*
X142002957Y-60010710D01*
X141999065Y-60005938D01*
X141992724Y-60000692D01*
X141851425Y-59883799D01*
X141851421Y-59883797D01*
X141846675Y-59879870D01*
X141672701Y-59785802D01*
X141483768Y-59727318D01*
X141477643Y-59726674D01*
X141477642Y-59726674D01*
X141293204Y-59707289D01*
X141293202Y-59707289D01*
X141287075Y-59706645D01*
X141204576Y-59714153D01*
X141096251Y-59724011D01*
X141096248Y-59724012D01*
X141090112Y-59724570D01*
X141084206Y-59726308D01*
X141084202Y-59726309D01*
X140979076Y-59757249D01*
X140900381Y-59780410D01*
X140894923Y-59783263D01*
X140894919Y-59783265D01*
X140804147Y-59830720D01*
X140725110Y-59872040D01*
X140570975Y-59995968D01*
X140443846Y-60147474D01*
X140440879Y-60152872D01*
X140440875Y-60152877D01*
X140437397Y-60159204D01*
X140348567Y-60320787D01*
X140346706Y-60326654D01*
X140346705Y-60326656D01*
X140299934Y-60474096D01*
X140288765Y-60509306D01*
X140271500Y-60663227D01*
X140271500Y-61396819D01*
X140251498Y-61464940D01*
X140197842Y-61511433D01*
X140127568Y-61521537D01*
X140062988Y-61492043D01*
X140042540Y-61469450D01*
X139997359Y-61405403D01*
X139993699Y-61399914D01*
X139954529Y-61337714D01*
X139954528Y-61337713D01*
X139951833Y-61333433D01*
X139948492Y-61329644D01*
X139948488Y-61329638D01*
X139930102Y-61308783D01*
X139921656Y-61298088D01*
X139914387Y-61287784D01*
X139902726Y-61271253D01*
X139883091Y-61249750D01*
X139843375Y-61210034D01*
X139837956Y-61204264D01*
X139794650Y-61155142D01*
X139794647Y-61155139D01*
X139791302Y-61151345D01*
X139759011Y-61124821D01*
X139749892Y-61116551D01*
X136453458Y-57820117D01*
X136419432Y-57757805D01*
X136424497Y-57686990D01*
X136467044Y-57630154D01*
X136521930Y-57606734D01*
X136526937Y-57606322D01*
X136531952Y-57605062D01*
X136531954Y-57605062D01*
X136754932Y-57549053D01*
X136754933Y-57549053D01*
X136759944Y-57547794D01*
X136917008Y-57479501D01*
X136975526Y-57454057D01*
X136975529Y-57454055D01*
X136980263Y-57451997D01*
X137129021Y-57355761D01*
X137177637Y-57324310D01*
X137177640Y-57324308D01*
X137181977Y-57321502D01*
X137359670Y-57159814D01*
X137451110Y-57044031D01*
X137505367Y-56975330D01*
X137505370Y-56975325D01*
X137508568Y-56971276D01*
X137561628Y-56875159D01*
X137622177Y-56765474D01*
X137622179Y-56765470D01*
X137624674Y-56760950D01*
X137667277Y-56640646D01*
X137703144Y-56539360D01*
X137703145Y-56539356D01*
X137704870Y-56534485D01*
X137709656Y-56507617D01*
X137746095Y-56303052D01*
X137746096Y-56303046D01*
X137747001Y-56297963D01*
X137749557Y-56088785D01*
X137749873Y-56062907D01*
X137749873Y-56062905D01*
X137749936Y-56057737D01*
X137713596Y-55820256D01*
X137660475Y-55657730D01*
X137640566Y-55596817D01*
X137640563Y-55596811D01*
X137638958Y-55591899D01*
X137632560Y-55579607D01*
X137530416Y-55383393D01*
X137528025Y-55378800D01*
X137383777Y-55186680D01*
X137210088Y-55020699D01*
X137172649Y-54995160D01*
X137127648Y-54940249D01*
X137119477Y-54869725D01*
X137150731Y-54805978D01*
X137175210Y-54785284D01*
X137177326Y-54783915D01*
X137185498Y-54777622D01*
X137355480Y-54622950D01*
X137362506Y-54615417D01*
X137504945Y-54435056D01*
X137510650Y-54426469D01*
X137621714Y-54225278D01*
X137625944Y-54215866D01*
X137702659Y-53999232D01*
X137705293Y-53989261D01*
X137722647Y-53891837D01*
X137721187Y-53878540D01*
X137706630Y-53874000D01*
X134771904Y-53874000D01*
X134758560Y-53877918D01*
X134756573Y-53892194D01*
X134766110Y-53954515D01*
X134768499Y-53964543D01*
X134839898Y-54182988D01*
X134843895Y-54192497D01*
X134950011Y-54396344D01*
X134955505Y-54405069D01*
X135093493Y-54588852D01*
X135100336Y-54596559D01*
X135266491Y-54755339D01*
X135274498Y-54761823D01*
X135307356Y-54784237D01*
X135352359Y-54839148D01*
X135360532Y-54909672D01*
X135329278Y-54973420D01*
X135304796Y-54994116D01*
X135303181Y-54995161D01*
X135298023Y-54998498D01*
X135120330Y-55160186D01*
X135096141Y-55190815D01*
X134974633Y-55344670D01*
X134974630Y-55344675D01*
X134971432Y-55348724D01*
X134968939Y-55353240D01*
X134968937Y-55353243D01*
X134880699Y-55513086D01*
X134855326Y-55559050D01*
X134853602Y-55563919D01*
X134853600Y-55563923D01*
X134781105Y-55768642D01*
X134775130Y-55785515D01*
X134774223Y-55790608D01*
X134774222Y-55790611D01*
X134763619Y-55850137D01*
X134731981Y-55913695D01*
X134671004Y-55950058D01*
X134600047Y-55947681D01*
X134550477Y-55917136D01*
X133583675Y-54950334D01*
X133581221Y-54947812D01*
X133516138Y-54878988D01*
X133516135Y-54878986D01*
X133512668Y-54875319D01*
X133450239Y-54827589D01*
X133445108Y-54823448D01*
X133389133Y-54775809D01*
X133389132Y-54775808D01*
X133385280Y-54772530D01*
X133380955Y-54769911D01*
X133380950Y-54769907D01*
X133357176Y-54755509D01*
X133345929Y-54747837D01*
X133319826Y-54727880D01*
X133250592Y-54690757D01*
X133244868Y-54687493D01*
X133177642Y-54646779D01*
X133147181Y-54634472D01*
X133134841Y-54628692D01*
X133131350Y-54626820D01*
X133105891Y-54613169D01*
X133101110Y-54611523D01*
X133101106Y-54611521D01*
X133031599Y-54587588D01*
X133025421Y-54585278D01*
X132957266Y-54557742D01*
X132957267Y-54557742D01*
X132952571Y-54555845D01*
X132920539Y-54548568D01*
X132907441Y-54544837D01*
X132876369Y-54534138D01*
X132798900Y-54520757D01*
X132792496Y-54519477D01*
X132715856Y-54502065D01*
X132683047Y-54500001D01*
X132669547Y-54498415D01*
X132637164Y-54492821D01*
X132633207Y-54492641D01*
X132633204Y-54492641D01*
X132609494Y-54491564D01*
X132609475Y-54491564D01*
X132608075Y-54491500D01*
X132551892Y-54491500D01*
X132543980Y-54491251D01*
X132538386Y-54490899D01*
X132473587Y-54486822D01*
X132434545Y-54490650D01*
X132432008Y-54490899D01*
X132419712Y-54491500D01*
X49524002Y-54491500D01*
X49520483Y-54491451D01*
X49425850Y-54488807D01*
X49425847Y-54488807D01*
X49420795Y-54488666D01*
X49342902Y-54499059D01*
X49336361Y-54499758D01*
X49311617Y-54501749D01*
X49263077Y-54505654D01*
X49263073Y-54505655D01*
X49258035Y-54506060D01*
X49226122Y-54513899D01*
X49212742Y-54516426D01*
X49180180Y-54520771D01*
X49175339Y-54522232D01*
X49175337Y-54522233D01*
X49104971Y-54543478D01*
X49098610Y-54545219D01*
X49022294Y-54563963D01*
X49017634Y-54565941D01*
X48992049Y-54576801D01*
X48979239Y-54581438D01*
X48947792Y-54590933D01*
X48943244Y-54593151D01*
X48943237Y-54593154D01*
X48877182Y-54625371D01*
X48871180Y-54628107D01*
X48827192Y-54646779D01*
X48798844Y-54658812D01*
X48774532Y-54674123D01*
X48771044Y-54676319D01*
X48759140Y-54682945D01*
X48729612Y-54697346D01*
X48725475Y-54700265D01*
X48725474Y-54700265D01*
X48665403Y-54742641D01*
X48659914Y-54746301D01*
X48610178Y-54777622D01*
X48593433Y-54788167D01*
X48589644Y-54791508D01*
X48589638Y-54791512D01*
X48568783Y-54809898D01*
X48558088Y-54818344D01*
X48531253Y-54837274D01*
X48509750Y-54856909D01*
X48470034Y-54896625D01*
X48464264Y-54902044D01*
X48415142Y-54945350D01*
X48415139Y-54945353D01*
X48411345Y-54948698D01*
X48408135Y-54952606D01*
X48408134Y-54952607D01*
X48384821Y-54980989D01*
X48376551Y-54990108D01*
X44912064Y-58454595D01*
X44849752Y-58488621D01*
X44822969Y-58491500D01*
X40677031Y-58491500D01*
X40608910Y-58471498D01*
X40587936Y-58454595D01*
X39173975Y-57040634D01*
X40936500Y-57040634D01*
X40943255Y-57102816D01*
X40994385Y-57239205D01*
X41081739Y-57355761D01*
X41198295Y-57443115D01*
X41334684Y-57494245D01*
X41396866Y-57501000D01*
X43493134Y-57501000D01*
X43555316Y-57494245D01*
X43691705Y-57443115D01*
X43808261Y-57355761D01*
X43895615Y-57239205D01*
X43946745Y-57102816D01*
X43953500Y-57040634D01*
X43953500Y-55039366D01*
X43946745Y-54977184D01*
X43895615Y-54840795D01*
X43808261Y-54724239D01*
X43691705Y-54636885D01*
X43671317Y-54629242D01*
X43614553Y-54586599D01*
X43589854Y-54520038D01*
X43605062Y-54450689D01*
X43616666Y-54433168D01*
X43709945Y-54315056D01*
X43715650Y-54306469D01*
X43826714Y-54105278D01*
X43830944Y-54095866D01*
X43907659Y-53879232D01*
X43910293Y-53869261D01*
X43927647Y-53771837D01*
X43926187Y-53758540D01*
X43911630Y-53754000D01*
X40976904Y-53754000D01*
X40963560Y-53757918D01*
X40961573Y-53772194D01*
X40971110Y-53834515D01*
X40973499Y-53844543D01*
X41044898Y-54062988D01*
X41048895Y-54072497D01*
X41155011Y-54276344D01*
X41160500Y-54285061D01*
X41273902Y-54436099D01*
X41298807Y-54502584D01*
X41283814Y-54571980D01*
X41233684Y-54622253D01*
X41217375Y-54629732D01*
X41198295Y-54636885D01*
X41081739Y-54724239D01*
X40994385Y-54840795D01*
X40943255Y-54977184D01*
X40936500Y-55039366D01*
X40936500Y-57040634D01*
X39173975Y-57040634D01*
X39045405Y-56912064D01*
X39011379Y-56849752D01*
X39008500Y-56822969D01*
X39008500Y-55177031D01*
X39028502Y-55108910D01*
X39045405Y-55087936D01*
X40855107Y-53278234D01*
X40917419Y-53244208D01*
X40959176Y-53246050D01*
X40959176Y-53246000D01*
X43913096Y-53246000D01*
X43926440Y-53242082D01*
X43928427Y-53227806D01*
X43918890Y-53165485D01*
X43916501Y-53155457D01*
X43845102Y-52937012D01*
X43841105Y-52927503D01*
X43734989Y-52723656D01*
X43729495Y-52714931D01*
X43591507Y-52531148D01*
X43584664Y-52523441D01*
X43418509Y-52364661D01*
X43410506Y-52358180D01*
X43394087Y-52346979D01*
X43349086Y-52292066D01*
X43340916Y-52221541D01*
X43372172Y-52157795D01*
X43386143Y-52144695D01*
X43389121Y-52142301D01*
X43393307Y-52139456D01*
X43398062Y-52134960D01*
X43458659Y-52077655D01*
X43460739Y-52075688D01*
X43463984Y-52072725D01*
X43529863Y-52014646D01*
X43529869Y-52014640D01*
X43533655Y-52011302D01*
X43545428Y-51996969D01*
X43556211Y-51985406D01*
X43569681Y-51972668D01*
X43626055Y-51898934D01*
X43628786Y-51895487D01*
X43669371Y-51846078D01*
X43687734Y-51823722D01*
X43697062Y-51807694D01*
X43705854Y-51794561D01*
X43717120Y-51779826D01*
X43760995Y-51697999D01*
X43763135Y-51694170D01*
X43807291Y-51618304D01*
X43807293Y-51618300D01*
X43809841Y-51613922D01*
X43811655Y-51609197D01*
X43811661Y-51609184D01*
X43816484Y-51596618D01*
X43823071Y-51582229D01*
X43829441Y-51570349D01*
X43829442Y-51570346D01*
X43831831Y-51565891D01*
X43833476Y-51561113D01*
X43833481Y-51561102D01*
X43862064Y-51478090D01*
X43863568Y-51473957D01*
X43895018Y-51392028D01*
X43895020Y-51392020D01*
X43896833Y-51387298D01*
X43900623Y-51369159D01*
X43904823Y-51353908D01*
X43909215Y-51341152D01*
X43910862Y-51336369D01*
X43926676Y-51244813D01*
X43927489Y-51240554D01*
X43945440Y-51154632D01*
X43945441Y-51154626D01*
X43946474Y-51149680D01*
X43947315Y-51131161D01*
X43949023Y-51115437D01*
X43951504Y-51101071D01*
X43952179Y-51097164D01*
X43953500Y-51068075D01*
X43953500Y-50997812D01*
X43953630Y-50992096D01*
X43957256Y-50912237D01*
X43957486Y-50907183D01*
X43955557Y-50890509D01*
X43954731Y-50874489D01*
X43954873Y-50862906D01*
X43954873Y-50862904D01*
X43954936Y-50857737D01*
X43954154Y-50852624D01*
X43953807Y-50847671D01*
X43953500Y-50838878D01*
X43953500Y-44606440D01*
X47433891Y-44606440D01*
X47461792Y-44847579D01*
X47527887Y-45081155D01*
X47530021Y-45085731D01*
X47530023Y-45085737D01*
X47628339Y-45296577D01*
X47630476Y-45301159D01*
X47766921Y-45501930D01*
X47933709Y-45678304D01*
X47937735Y-45681382D01*
X47937736Y-45681383D01*
X48122531Y-45822670D01*
X48122535Y-45822673D01*
X48126551Y-45825743D01*
X48131009Y-45828133D01*
X48131010Y-45828134D01*
X48222712Y-45877304D01*
X48340486Y-45940454D01*
X48570008Y-46019485D01*
X48654842Y-46034138D01*
X48805303Y-46060127D01*
X48805309Y-46060128D01*
X48809213Y-46060802D01*
X48813174Y-46060982D01*
X48813175Y-46060982D01*
X48836883Y-46062059D01*
X48836902Y-46062059D01*
X48838302Y-46062123D01*
X57922361Y-46062123D01*
X57925879Y-46062172D01*
X58020527Y-46064816D01*
X58020530Y-46064816D01*
X58025582Y-46064957D01*
X58103475Y-46054564D01*
X58110016Y-46053865D01*
X58138850Y-46051545D01*
X58183300Y-46047969D01*
X58183304Y-46047968D01*
X58188342Y-46047563D01*
X58220255Y-46039724D01*
X58233635Y-46037197D01*
X58266197Y-46032852D01*
X58271038Y-46031391D01*
X58271040Y-46031390D01*
X58341406Y-46010145D01*
X58347769Y-46008404D01*
X58382119Y-45999967D01*
X58424083Y-45989660D01*
X58454329Y-45976822D01*
X58467140Y-45972184D01*
X58493739Y-45964153D01*
X58498585Y-45962690D01*
X58503133Y-45960472D01*
X58503140Y-45960469D01*
X58569195Y-45928252D01*
X58575197Y-45925516D01*
X58619881Y-45906548D01*
X58647533Y-45894811D01*
X58675333Y-45877304D01*
X58687237Y-45870678D01*
X58716765Y-45856277D01*
X58780977Y-45810980D01*
X58786463Y-45807322D01*
X58848663Y-45768152D01*
X58848664Y-45768151D01*
X58852944Y-45765456D01*
X58856733Y-45762115D01*
X58856739Y-45762111D01*
X58877594Y-45743725D01*
X58888289Y-45735279D01*
X58891240Y-45733197D01*
X58915124Y-45716349D01*
X58936627Y-45696714D01*
X58976343Y-45656998D01*
X58982113Y-45651579D01*
X59031233Y-45608274D01*
X59035032Y-45604925D01*
X59038245Y-45601013D01*
X59038649Y-45600595D01*
X59100359Y-45565488D01*
X59129285Y-45562123D01*
X65129180Y-45562123D01*
X65197301Y-45582125D01*
X65218275Y-45599028D01*
X65556902Y-45937655D01*
X65590928Y-45999967D01*
X65585863Y-46070782D01*
X65543316Y-46127618D01*
X65476796Y-46152429D01*
X65467807Y-46152750D01*
X64656866Y-46152750D01*
X64594684Y-46159505D01*
X64458295Y-46210635D01*
X64341739Y-46297989D01*
X64254385Y-46414545D01*
X64203255Y-46550934D01*
X64196500Y-46613116D01*
X64196500Y-48017311D01*
X64176498Y-48085432D01*
X64122842Y-48131925D01*
X64070500Y-48143311D01*
X51798420Y-48143311D01*
X51795364Y-48143611D01*
X51795357Y-48143611D01*
X51736849Y-48149348D01*
X51651356Y-48157731D01*
X51645455Y-48159513D01*
X51645453Y-48159513D01*
X51572136Y-48181649D01*
X51462020Y-48214895D01*
X51287393Y-48307745D01*
X51206755Y-48373512D01*
X51138902Y-48428851D01*
X51138899Y-48428854D01*
X51134127Y-48432746D01*
X51130200Y-48437493D01*
X51130198Y-48437495D01*
X51011988Y-48580386D01*
X51011986Y-48580390D01*
X51008059Y-48585136D01*
X50913991Y-48759110D01*
X50855507Y-48948043D01*
X50854863Y-48954168D01*
X50854863Y-48954169D01*
X50837866Y-49115892D01*
X50834834Y-49144736D01*
X50841153Y-49214170D01*
X50848650Y-49296544D01*
X50852759Y-49341699D01*
X50853262Y-49343408D01*
X50846521Y-49412559D01*
X50802524Y-49468280D01*
X50729639Y-49491500D01*
X49438999Y-49491500D01*
X49436491Y-49491702D01*
X49436486Y-49491702D01*
X49263076Y-49505654D01*
X49263071Y-49505655D01*
X49258035Y-49506060D01*
X49253127Y-49507266D01*
X49253124Y-49507266D01*
X49185146Y-49523963D01*
X49022294Y-49563963D01*
X49017642Y-49565938D01*
X49017638Y-49565939D01*
X48892635Y-49619000D01*
X48798844Y-49658812D01*
X48794560Y-49661510D01*
X48597712Y-49785472D01*
X48597709Y-49785474D01*
X48593433Y-49788167D01*
X48589639Y-49791512D01*
X48415142Y-49945350D01*
X48415139Y-49945353D01*
X48411345Y-49948698D01*
X48408135Y-49952606D01*
X48408134Y-49952607D01*
X48304014Y-50079366D01*
X48257266Y-50136278D01*
X48135159Y-50346078D01*
X48048167Y-50572702D01*
X47998526Y-50810320D01*
X47987514Y-51052817D01*
X47988095Y-51057837D01*
X47988095Y-51057841D01*
X47999295Y-51154632D01*
X48015415Y-51293956D01*
X48016791Y-51298820D01*
X48016792Y-51298823D01*
X48034499Y-51361398D01*
X48081510Y-51527532D01*
X48083644Y-51532108D01*
X48083646Y-51532114D01*
X48181962Y-51742954D01*
X48184099Y-51747536D01*
X48320544Y-51948307D01*
X48487332Y-52124681D01*
X48491358Y-52127759D01*
X48491359Y-52127760D01*
X48676154Y-52269047D01*
X48676158Y-52269050D01*
X48680174Y-52272120D01*
X48684632Y-52274510D01*
X48684633Y-52274511D01*
X48742183Y-52305369D01*
X48894109Y-52386831D01*
X49123631Y-52465862D01*
X49222978Y-52483022D01*
X49358926Y-52506504D01*
X49358932Y-52506505D01*
X49362836Y-52507179D01*
X49366797Y-52507359D01*
X49366798Y-52507359D01*
X49390506Y-52508436D01*
X49390525Y-52508436D01*
X49391925Y-52508500D01*
X54564190Y-52508500D01*
X54611387Y-52517674D01*
X54627429Y-52524155D01*
X54658210Y-52531148D01*
X54659460Y-52531432D01*
X54672559Y-52535163D01*
X54703631Y-52545862D01*
X54781100Y-52559243D01*
X54787504Y-52560523D01*
X54864144Y-52577935D01*
X54896953Y-52579999D01*
X54910453Y-52581585D01*
X54942836Y-52587179D01*
X54946793Y-52587359D01*
X54946796Y-52587359D01*
X54970506Y-52588436D01*
X54970525Y-52588436D01*
X54971925Y-52588500D01*
X55028107Y-52588500D01*
X55036018Y-52588749D01*
X55106412Y-52593178D01*
X55147991Y-52589101D01*
X55160287Y-52588500D01*
X134885928Y-52588500D01*
X134954049Y-52608502D01*
X135000542Y-52662158D01*
X135010646Y-52732432D01*
X134984809Y-52792593D01*
X134975056Y-52804942D01*
X134969350Y-52813531D01*
X134858286Y-53014722D01*
X134854056Y-53024134D01*
X134777341Y-53240768D01*
X134774707Y-53250739D01*
X134757353Y-53348163D01*
X134758813Y-53361460D01*
X134773370Y-53366000D01*
X137708096Y-53366000D01*
X137721440Y-53362082D01*
X137723427Y-53347806D01*
X137713890Y-53285485D01*
X137711501Y-53275457D01*
X137640102Y-53057012D01*
X137636105Y-53047503D01*
X137529989Y-52843656D01*
X137524500Y-52834939D01*
X137411098Y-52683901D01*
X137386193Y-52617416D01*
X137401186Y-52548020D01*
X137451316Y-52497747D01*
X137467625Y-52490268D01*
X137486705Y-52483115D01*
X137603261Y-52395761D01*
X137690615Y-52279205D01*
X137741745Y-52142816D01*
X137748500Y-52080634D01*
X137748500Y-51117812D01*
X137748630Y-51112096D01*
X137749488Y-51093199D01*
X137752486Y-51027183D01*
X137749335Y-50999949D01*
X137748500Y-50985468D01*
X137748500Y-50079366D01*
X137741745Y-50017184D01*
X137690615Y-49880795D01*
X137603261Y-49764239D01*
X137486705Y-49676885D01*
X137350316Y-49625755D01*
X137288134Y-49619000D01*
X136649589Y-49619000D01*
X136619423Y-49615190D01*
X136616369Y-49614138D01*
X136611373Y-49613275D01*
X136381074Y-49573496D01*
X136381068Y-49573495D01*
X136377164Y-49572821D01*
X136373203Y-49572641D01*
X136373202Y-49572641D01*
X136349494Y-49571564D01*
X136349475Y-49571564D01*
X136348075Y-49571500D01*
X122984500Y-49571500D01*
X122916379Y-49551498D01*
X122869886Y-49497842D01*
X122858500Y-49445500D01*
X122858500Y-39790883D01*
X122863815Y-39772783D01*
X123806577Y-39772783D01*
X123816459Y-39785272D01*
X123849926Y-39807634D01*
X123860036Y-39813124D01*
X124038042Y-39889601D01*
X124048985Y-39893156D01*
X124237941Y-39935913D01*
X124249351Y-39937415D01*
X124442942Y-39945021D01*
X124454424Y-39944419D01*
X124646162Y-39916619D01*
X124657345Y-39913934D01*
X124840799Y-39851660D01*
X124851314Y-39846978D01*
X124964642Y-39783511D01*
X124974506Y-39773433D01*
X124974256Y-39772783D01*
X131426577Y-39772783D01*
X131436459Y-39785272D01*
X131469926Y-39807634D01*
X131480036Y-39813124D01*
X131658042Y-39889601D01*
X131668985Y-39893156D01*
X131857941Y-39935913D01*
X131869351Y-39937415D01*
X132062942Y-39945021D01*
X132074424Y-39944419D01*
X132266162Y-39916619D01*
X132277345Y-39913934D01*
X132460799Y-39851660D01*
X132471314Y-39846978D01*
X132584642Y-39783511D01*
X132594506Y-39773433D01*
X132591551Y-39765762D01*
X132022811Y-39197021D01*
X132008868Y-39189408D01*
X132007034Y-39189539D01*
X132000420Y-39193790D01*
X131432770Y-39761441D01*
X131426577Y-39772783D01*
X124974256Y-39772783D01*
X124971551Y-39765762D01*
X124402811Y-39197021D01*
X124388868Y-39189408D01*
X124387034Y-39189539D01*
X124380420Y-39193790D01*
X123812770Y-39761441D01*
X123806577Y-39772783D01*
X122863815Y-39772783D01*
X122878502Y-39722762D01*
X122883674Y-39715318D01*
X122904229Y-39687891D01*
X122909615Y-39680705D01*
X122960745Y-39544316D01*
X122967500Y-39482134D01*
X122967500Y-38801401D01*
X123268977Y-38801401D01*
X123281648Y-38994718D01*
X123283449Y-39006088D01*
X123331137Y-39193860D01*
X123334978Y-39204706D01*
X123416087Y-39380644D01*
X123421843Y-39390613D01*
X123429329Y-39401206D01*
X123439920Y-39409597D01*
X123453219Y-39402570D01*
X124017979Y-38837811D01*
X124024356Y-38826132D01*
X124754408Y-38826132D01*
X124754539Y-38827966D01*
X124758790Y-38834580D01*
X125326851Y-39402640D01*
X125339226Y-39409397D01*
X125345806Y-39404471D01*
X125411978Y-39286314D01*
X125416660Y-39275799D01*
X125478934Y-39092345D01*
X125481619Y-39081162D01*
X125509715Y-38887383D01*
X125510345Y-38880002D01*
X125511688Y-38828704D01*
X125511445Y-38821305D01*
X125509616Y-38801401D01*
X130888977Y-38801401D01*
X130901648Y-38994718D01*
X130903449Y-39006088D01*
X130951137Y-39193860D01*
X130954978Y-39204706D01*
X131036087Y-39380644D01*
X131041843Y-39390613D01*
X131049329Y-39401206D01*
X131059920Y-39409597D01*
X131073219Y-39402570D01*
X131637979Y-38837811D01*
X131644356Y-38826132D01*
X132374408Y-38826132D01*
X132374539Y-38827966D01*
X132378790Y-38834580D01*
X132946851Y-39402640D01*
X132959226Y-39409397D01*
X132965806Y-39404471D01*
X133031978Y-39286314D01*
X133036660Y-39275799D01*
X133098934Y-39092345D01*
X133101619Y-39081162D01*
X133129715Y-38887383D01*
X133130345Y-38880002D01*
X133131688Y-38828704D01*
X133131445Y-38821305D01*
X133129085Y-38795622D01*
X135968098Y-38795622D01*
X135981530Y-39000564D01*
X135982952Y-39006162D01*
X135982952Y-39006164D01*
X136025301Y-39172912D01*
X136032086Y-39199627D01*
X136034503Y-39204869D01*
X136034503Y-39204870D01*
X136095516Y-39337217D01*
X136118071Y-39386143D01*
X136236606Y-39553867D01*
X136240740Y-39557894D01*
X136374186Y-39687891D01*
X136383722Y-39697181D01*
X136388518Y-39700386D01*
X136388521Y-39700388D01*
X136512924Y-39783511D01*
X136554491Y-39811285D01*
X136559794Y-39813563D01*
X136559797Y-39813565D01*
X136684476Y-39867131D01*
X136743194Y-39892358D01*
X136838545Y-39913934D01*
X136937876Y-39936411D01*
X136937879Y-39936411D01*
X136943512Y-39937686D01*
X136949283Y-39937913D01*
X136949285Y-39937913D01*
X137012647Y-39940402D01*
X137148736Y-39945749D01*
X137268384Y-39928401D01*
X137346271Y-39917108D01*
X137346275Y-39917107D01*
X137351993Y-39916278D01*
X137357465Y-39914420D01*
X137357467Y-39914420D01*
X137541011Y-39852115D01*
X137541013Y-39852114D01*
X137546475Y-39850260D01*
X137725670Y-39749906D01*
X137753639Y-39726645D01*
X137879139Y-39622268D01*
X137883577Y-39618577D01*
X138014906Y-39460670D01*
X138115260Y-39281475D01*
X138143929Y-39197021D01*
X138179420Y-39092467D01*
X138179420Y-39092465D01*
X138181278Y-39086993D01*
X138182124Y-39081162D01*
X138204725Y-38925283D01*
X138210749Y-38883736D01*
X138212287Y-38825000D01*
X138194228Y-38628463D01*
X138194023Y-38626233D01*
X138194022Y-38626230D01*
X138193494Y-38620479D01*
X138189854Y-38607570D01*
X138139313Y-38428367D01*
X138139312Y-38428365D01*
X138137745Y-38422808D01*
X138133622Y-38414446D01*
X138049462Y-38243788D01*
X138046907Y-38238607D01*
X138042472Y-38232667D01*
X137927475Y-38078667D01*
X137927474Y-38078666D01*
X137924022Y-38074043D01*
X137919786Y-38070127D01*
X137777446Y-37938550D01*
X137777444Y-37938548D01*
X137773205Y-37934630D01*
X137695333Y-37885496D01*
X137604388Y-37828114D01*
X137599508Y-37825035D01*
X137594148Y-37822897D01*
X137594145Y-37822895D01*
X137414111Y-37751069D01*
X137408747Y-37748929D01*
X137403087Y-37747803D01*
X137403083Y-37747802D01*
X137212978Y-37709988D01*
X137212976Y-37709988D01*
X137207311Y-37708861D01*
X137201536Y-37708785D01*
X137201532Y-37708785D01*
X137099029Y-37707444D01*
X137001946Y-37706173D01*
X136996249Y-37707152D01*
X136996248Y-37707152D01*
X136959875Y-37713402D01*
X136799531Y-37740954D01*
X136606843Y-37812040D01*
X136601882Y-37814992D01*
X136601881Y-37814992D01*
X136435304Y-37914095D01*
X136435301Y-37914097D01*
X136430336Y-37917051D01*
X136425996Y-37920857D01*
X136425992Y-37920860D01*
X136337432Y-37998526D01*
X136275922Y-38052469D01*
X136272347Y-38057004D01*
X136272346Y-38057005D01*
X136258914Y-38074043D01*
X136148771Y-38213759D01*
X136146082Y-38218870D01*
X136146080Y-38218873D01*
X136132570Y-38244551D01*
X136053142Y-38395519D01*
X135992238Y-38591663D01*
X135968098Y-38795622D01*
X133129085Y-38795622D01*
X133113530Y-38626328D01*
X133111432Y-38615007D01*
X133058847Y-38428553D01*
X133054722Y-38417806D01*
X132969281Y-38244551D01*
X132961298Y-38238559D01*
X132948882Y-38245329D01*
X132382021Y-38812189D01*
X132374408Y-38826132D01*
X131644356Y-38826132D01*
X131645592Y-38823868D01*
X131645461Y-38822034D01*
X131641210Y-38815420D01*
X131071874Y-38246085D01*
X131059499Y-38239328D01*
X131053533Y-38243794D01*
X130976295Y-38390601D01*
X130971894Y-38401225D01*
X130914442Y-38586251D01*
X130912050Y-38597505D01*
X130889278Y-38789900D01*
X130888977Y-38801401D01*
X125509616Y-38801401D01*
X125493530Y-38626328D01*
X125491432Y-38615007D01*
X125438847Y-38428553D01*
X125434722Y-38417806D01*
X125349281Y-38244551D01*
X125341298Y-38238559D01*
X125328882Y-38245329D01*
X124762021Y-38812189D01*
X124754408Y-38826132D01*
X124024356Y-38826132D01*
X124025592Y-38823868D01*
X124025461Y-38822034D01*
X124021210Y-38815420D01*
X123451874Y-38246085D01*
X123439499Y-38239328D01*
X123433533Y-38243794D01*
X123356295Y-38390601D01*
X123351894Y-38401225D01*
X123294442Y-38586251D01*
X123292050Y-38597505D01*
X123269278Y-38789900D01*
X123268977Y-38801401D01*
X122967500Y-38801401D01*
X122967500Y-38167866D01*
X122960745Y-38105684D01*
X122909615Y-37969295D01*
X122840525Y-37877108D01*
X123806221Y-37877108D01*
X123809707Y-37885496D01*
X124377189Y-38452979D01*
X124391132Y-38460592D01*
X124392966Y-38460461D01*
X124399580Y-38456210D01*
X124966810Y-37888979D01*
X124973292Y-37877108D01*
X131426221Y-37877108D01*
X131429707Y-37885496D01*
X131997189Y-38452979D01*
X132011132Y-38460592D01*
X132012966Y-38460461D01*
X132019580Y-38456210D01*
X132586810Y-37888979D01*
X132593567Y-37876604D01*
X132587537Y-37868548D01*
X132524164Y-37828563D01*
X132513916Y-37823342D01*
X132333968Y-37751550D01*
X132322940Y-37748283D01*
X132132925Y-37710487D01*
X132121479Y-37709284D01*
X131927768Y-37706749D01*
X131916288Y-37707652D01*
X131725351Y-37740461D01*
X131714243Y-37743438D01*
X131532478Y-37810494D01*
X131522096Y-37815446D01*
X131435819Y-37866775D01*
X131426221Y-37877108D01*
X124973292Y-37877108D01*
X124973567Y-37876604D01*
X124967537Y-37868548D01*
X124904164Y-37828563D01*
X124893916Y-37823342D01*
X124713968Y-37751550D01*
X124702940Y-37748283D01*
X124512925Y-37710487D01*
X124501479Y-37709284D01*
X124307768Y-37706749D01*
X124296288Y-37707652D01*
X124105351Y-37740461D01*
X124094243Y-37743438D01*
X123912478Y-37810494D01*
X123902096Y-37815446D01*
X123815819Y-37866775D01*
X123806221Y-37877108D01*
X122840525Y-37877108D01*
X122822261Y-37852739D01*
X122705705Y-37765385D01*
X122569316Y-37714255D01*
X122507134Y-37707500D01*
X121192866Y-37707500D01*
X121130684Y-37714255D01*
X120994295Y-37765385D01*
X120877739Y-37852739D01*
X120790385Y-37969295D01*
X120739255Y-38105684D01*
X120732500Y-38167866D01*
X120732500Y-39482134D01*
X120739255Y-39544316D01*
X120790385Y-39680705D01*
X120795771Y-39687891D01*
X120816326Y-39715318D01*
X120841174Y-39781824D01*
X120841500Y-39790883D01*
X120841500Y-49445500D01*
X120821498Y-49513621D01*
X120767842Y-49560114D01*
X120715500Y-49571500D01*
X67448497Y-49571500D01*
X67380376Y-49551498D01*
X67333883Y-49497842D01*
X67323779Y-49427568D01*
X67342355Y-49379146D01*
X67342103Y-49379011D01*
X67343169Y-49377022D01*
X67345011Y-49373587D01*
X67345014Y-49373583D01*
X67385977Y-49297186D01*
X67386606Y-49296027D01*
X67428462Y-49219891D01*
X67428465Y-49219883D01*
X67431433Y-49214485D01*
X67433045Y-49209403D01*
X67435562Y-49204709D01*
X67462762Y-49115741D01*
X67463108Y-49114630D01*
X67489373Y-49031835D01*
X67491235Y-49025966D01*
X67491829Y-49020670D01*
X67493387Y-49015574D01*
X67502790Y-48923015D01*
X67502911Y-48921879D01*
X67508500Y-48872045D01*
X67508500Y-48868518D01*
X67508555Y-48867533D01*
X67509002Y-48861853D01*
X67513374Y-48818810D01*
X67511602Y-48800066D01*
X67525104Y-48730366D01*
X67574146Y-48679029D01*
X67650214Y-48662898D01*
X67756622Y-48674082D01*
X67756623Y-48674082D01*
X67762750Y-48674726D01*
X67846014Y-48667148D01*
X67958457Y-48656915D01*
X67958460Y-48656914D01*
X67964596Y-48656356D01*
X67970502Y-48654618D01*
X67970506Y-48654617D01*
X68153120Y-48600870D01*
X68153119Y-48600870D01*
X68159029Y-48599131D01*
X68164486Y-48596278D01*
X68164489Y-48596277D01*
X68257996Y-48547393D01*
X68338645Y-48505231D01*
X68496601Y-48378231D01*
X68626881Y-48222969D01*
X68629845Y-48217577D01*
X68629848Y-48217573D01*
X68721556Y-48050756D01*
X68724523Y-48045359D01*
X68785807Y-47852166D01*
X68788212Y-47830731D01*
X68803107Y-47697933D01*
X68803500Y-47694433D01*
X68803500Y-47135246D01*
X68788723Y-46984537D01*
X68783878Y-46968488D01*
X68778500Y-46932072D01*
X68778500Y-46786360D01*
X68779237Y-46772753D01*
X68782659Y-46741255D01*
X68782659Y-46741250D01*
X68783324Y-46735129D01*
X68778950Y-46685127D01*
X68778621Y-46680302D01*
X68778500Y-46677831D01*
X68778500Y-46674749D01*
X68775156Y-46640646D01*
X68774309Y-46632007D01*
X68774187Y-46630692D01*
X68771364Y-46598431D01*
X68766087Y-46538105D01*
X68764600Y-46532986D01*
X68764080Y-46527685D01*
X68737209Y-46438684D01*
X68736874Y-46437551D01*
X68712630Y-46354104D01*
X68712628Y-46354100D01*
X68710909Y-46348182D01*
X68708456Y-46343450D01*
X68706916Y-46338349D01*
X68704022Y-46332906D01*
X68663269Y-46256258D01*
X68662657Y-46255092D01*
X68622729Y-46178065D01*
X68619892Y-46172592D01*
X68616569Y-46168429D01*
X68614066Y-46163722D01*
X68610062Y-46158812D01*
X68584620Y-46127618D01*
X68555245Y-46091600D01*
X68554554Y-46090744D01*
X68523262Y-46051545D01*
X68520758Y-46049041D01*
X68520116Y-46048323D01*
X68516415Y-46043990D01*
X68489065Y-46010456D01*
X68483261Y-46005654D01*
X68453738Y-45981231D01*
X68444958Y-45973241D01*
X66355960Y-43884244D01*
X66346858Y-43874101D01*
X66327002Y-43849405D01*
X66323137Y-43844598D01*
X66284683Y-43812331D01*
X66281036Y-43809151D01*
X66279224Y-43807508D01*
X66277030Y-43805314D01*
X66243756Y-43777981D01*
X66242958Y-43777319D01*
X66171631Y-43717469D01*
X66166961Y-43714901D01*
X66162844Y-43711520D01*
X66081019Y-43667646D01*
X66079860Y-43667017D01*
X66003724Y-43625161D01*
X66003716Y-43625158D01*
X65998318Y-43622190D01*
X65993236Y-43620578D01*
X65988542Y-43618061D01*
X65899574Y-43590861D01*
X65898546Y-43590541D01*
X65809799Y-43562388D01*
X65804503Y-43561794D01*
X65799407Y-43560236D01*
X65706848Y-43550833D01*
X65705712Y-43550712D01*
X65672097Y-43546942D01*
X65659375Y-43545515D01*
X65659371Y-43545515D01*
X65655878Y-43545123D01*
X65652351Y-43545123D01*
X65651366Y-43545068D01*
X65645686Y-43544621D01*
X65616280Y-43541634D01*
X65608768Y-43540871D01*
X65608766Y-43540871D01*
X65602643Y-43540249D01*
X65560364Y-43544246D01*
X65556996Y-43544564D01*
X65545138Y-43545123D01*
X61354809Y-43545123D01*
X61286688Y-43525121D01*
X61240195Y-43471465D01*
X61230091Y-43401191D01*
X61254712Y-43342595D01*
X61269048Y-43323844D01*
X61272120Y-43319826D01*
X61309247Y-43250584D01*
X61312510Y-43244863D01*
X61350602Y-43181966D01*
X61350603Y-43181965D01*
X61353220Y-43177643D01*
X61365534Y-43147166D01*
X61371303Y-43134850D01*
X61386831Y-43105891D01*
X61412423Y-43031567D01*
X61414718Y-43025429D01*
X61442258Y-42957267D01*
X61442259Y-42957263D01*
X61444155Y-42952571D01*
X61451432Y-42920539D01*
X61455163Y-42907441D01*
X61465862Y-42876369D01*
X61479243Y-42798900D01*
X61480526Y-42792482D01*
X61496815Y-42720786D01*
X61496815Y-42720785D01*
X61497935Y-42715856D01*
X61499999Y-42683047D01*
X61501585Y-42669547D01*
X61507179Y-42637164D01*
X61508500Y-42608075D01*
X61508500Y-42551893D01*
X61508749Y-42543981D01*
X61512860Y-42478642D01*
X61513178Y-42473588D01*
X61509101Y-42432009D01*
X61508500Y-42419713D01*
X61508500Y-39438999D01*
X61506184Y-39410215D01*
X61494346Y-39263076D01*
X61494345Y-39263071D01*
X61493940Y-39258035D01*
X61471351Y-39166066D01*
X61437244Y-39027208D01*
X61436037Y-39022294D01*
X61429191Y-39006164D01*
X61361300Y-38846226D01*
X61341188Y-38798844D01*
X61232548Y-38626328D01*
X61214528Y-38597712D01*
X61214526Y-38597709D01*
X61211833Y-38593433D01*
X61071488Y-38434242D01*
X61054036Y-38414446D01*
X61023991Y-38350120D01*
X61033492Y-38279762D01*
X61072985Y-38230295D01*
X61155723Y-38168286D01*
X61168285Y-38155724D01*
X61244786Y-38053649D01*
X61253324Y-38038054D01*
X61298478Y-37917606D01*
X61302105Y-37902351D01*
X61307631Y-37851486D01*
X61308000Y-37844672D01*
X61308000Y-37272115D01*
X61303525Y-37256876D01*
X61302135Y-37255671D01*
X61294452Y-37254000D01*
X58710116Y-37254000D01*
X58694877Y-37258475D01*
X58693672Y-37259865D01*
X58692001Y-37267548D01*
X58692001Y-37844669D01*
X58692371Y-37851490D01*
X58697895Y-37902352D01*
X58701521Y-37917604D01*
X58746676Y-38038054D01*
X58755214Y-38053649D01*
X58831715Y-38155724D01*
X58844276Y-38168285D01*
X58930181Y-38232667D01*
X58972696Y-38289526D01*
X58977722Y-38360344D01*
X58941189Y-38425042D01*
X58875319Y-38487332D01*
X58872241Y-38491358D01*
X58872240Y-38491359D01*
X58730953Y-38676154D01*
X58730950Y-38676158D01*
X58727880Y-38680174D01*
X58725490Y-38684632D01*
X58725489Y-38684633D01*
X58713773Y-38706484D01*
X58613169Y-38894109D01*
X58534138Y-39123631D01*
X58520134Y-39204706D01*
X58495367Y-39348097D01*
X58492821Y-39362836D01*
X58492641Y-39366797D01*
X58492641Y-39366798D01*
X58491763Y-39386143D01*
X58491500Y-39391925D01*
X58491500Y-41822969D01*
X58471498Y-41891090D01*
X58454595Y-41912064D01*
X57358441Y-43008218D01*
X57296129Y-43042244D01*
X57269346Y-43045123D01*
X48885376Y-43045123D01*
X48882868Y-43045325D01*
X48882863Y-43045325D01*
X48709453Y-43059277D01*
X48709448Y-43059278D01*
X48704412Y-43059683D01*
X48699504Y-43060889D01*
X48699501Y-43060889D01*
X48516285Y-43105891D01*
X48468671Y-43117586D01*
X48464019Y-43119561D01*
X48464015Y-43119562D01*
X48413850Y-43140856D01*
X48245221Y-43212435D01*
X48168731Y-43260604D01*
X48044089Y-43339095D01*
X48044086Y-43339097D01*
X48039810Y-43341790D01*
X48036016Y-43345135D01*
X47861519Y-43498973D01*
X47861516Y-43498976D01*
X47857722Y-43502321D01*
X47854512Y-43506229D01*
X47854511Y-43506230D01*
X47756821Y-43625161D01*
X47703643Y-43689901D01*
X47652790Y-43777275D01*
X47596436Y-43874101D01*
X47581536Y-43899701D01*
X47579723Y-43904424D01*
X47504911Y-44099319D01*
X47494544Y-44126325D01*
X47493510Y-44131275D01*
X47493509Y-44131278D01*
X47469279Y-44247264D01*
X47444903Y-44363943D01*
X47433891Y-44606440D01*
X43953500Y-44606440D01*
X43953500Y-36727885D01*
X58692000Y-36727885D01*
X58696475Y-36743124D01*
X58697865Y-36744329D01*
X58705548Y-36746000D01*
X59727885Y-36746000D01*
X59743124Y-36741525D01*
X59744329Y-36740135D01*
X59746000Y-36732452D01*
X59746000Y-36727885D01*
X60254000Y-36727885D01*
X60258475Y-36743124D01*
X60259865Y-36744329D01*
X60267548Y-36746000D01*
X61289884Y-36746000D01*
X61305123Y-36741525D01*
X61306328Y-36740135D01*
X61307999Y-36732452D01*
X61307999Y-36155331D01*
X61307629Y-36148510D01*
X61302105Y-36097648D01*
X61298479Y-36082396D01*
X61253324Y-35961946D01*
X61244786Y-35946351D01*
X61168285Y-35844276D01*
X61155724Y-35831715D01*
X61053649Y-35755214D01*
X61038054Y-35746676D01*
X60917606Y-35701522D01*
X60902351Y-35697895D01*
X60851486Y-35692369D01*
X60844672Y-35692000D01*
X60272115Y-35692000D01*
X60256876Y-35696475D01*
X60255671Y-35697865D01*
X60254000Y-35705548D01*
X60254000Y-36727885D01*
X59746000Y-36727885D01*
X59746000Y-35710116D01*
X59741525Y-35694877D01*
X59740135Y-35693672D01*
X59732452Y-35692001D01*
X59155331Y-35692001D01*
X59148510Y-35692371D01*
X59097648Y-35697895D01*
X59082396Y-35701521D01*
X58961946Y-35746676D01*
X58946351Y-35755214D01*
X58844276Y-35831715D01*
X58831715Y-35844276D01*
X58755214Y-35946351D01*
X58746676Y-35961946D01*
X58701522Y-36082394D01*
X58697895Y-36097649D01*
X58692369Y-36148514D01*
X58692000Y-36155328D01*
X58692000Y-36727885D01*
X43953500Y-36727885D01*
X43953500Y-35134500D01*
X43973502Y-35066379D01*
X44027158Y-35019886D01*
X44079500Y-35008500D01*
X51975984Y-35008500D01*
X51979502Y-35008549D01*
X52074150Y-35011193D01*
X52074153Y-35011193D01*
X52079205Y-35011334D01*
X52157098Y-35000941D01*
X52163639Y-35000242D01*
X52192332Y-34997933D01*
X52236923Y-34994346D01*
X52236927Y-34994345D01*
X52241965Y-34993940D01*
X52273878Y-34986101D01*
X52287258Y-34983574D01*
X52319820Y-34979229D01*
X52324661Y-34977768D01*
X52324663Y-34977767D01*
X52395029Y-34956522D01*
X52401392Y-34954781D01*
X52477706Y-34936037D01*
X52507952Y-34923199D01*
X52520763Y-34918561D01*
X52547362Y-34910530D01*
X52552208Y-34909067D01*
X52556756Y-34906849D01*
X52556763Y-34906846D01*
X52622818Y-34874629D01*
X52628820Y-34871893D01*
X52673504Y-34852925D01*
X52701156Y-34841188D01*
X52728956Y-34823681D01*
X52740860Y-34817055D01*
X52770388Y-34802654D01*
X52834600Y-34757357D01*
X52840086Y-34753699D01*
X52902286Y-34714529D01*
X52902287Y-34714528D01*
X52906567Y-34711833D01*
X52910356Y-34708492D01*
X52910362Y-34708488D01*
X52931217Y-34690102D01*
X52941912Y-34681656D01*
X52944863Y-34679574D01*
X52968747Y-34662726D01*
X52990250Y-34643091D01*
X53029966Y-34603375D01*
X53035736Y-34597956D01*
X53084858Y-34554650D01*
X53084861Y-34554647D01*
X53088655Y-34551302D01*
X53115179Y-34519011D01*
X53123449Y-34509892D01*
X55049666Y-32583675D01*
X55052188Y-32581221D01*
X55121012Y-32516138D01*
X55121014Y-32516135D01*
X55124681Y-32512668D01*
X55172411Y-32450239D01*
X55176552Y-32445108D01*
X55224191Y-32389133D01*
X55224192Y-32389132D01*
X55227470Y-32385280D01*
X55230089Y-32380955D01*
X55230093Y-32380950D01*
X55244491Y-32357176D01*
X55252163Y-32345929D01*
X55272120Y-32319826D01*
X55309243Y-32250592D01*
X55312507Y-32244868D01*
X55353221Y-32177642D01*
X55365528Y-32147181D01*
X55371308Y-32134841D01*
X55384440Y-32110350D01*
X55386831Y-32105891D01*
X55412412Y-32031599D01*
X55414722Y-32025421D01*
X55442258Y-31957266D01*
X55444155Y-31952571D01*
X55451432Y-31920539D01*
X55455163Y-31907441D01*
X55465862Y-31876369D01*
X55479243Y-31798900D01*
X55480526Y-31792482D01*
X55496815Y-31720786D01*
X55496815Y-31720785D01*
X55497935Y-31715856D01*
X55499999Y-31683047D01*
X55501585Y-31669547D01*
X55507179Y-31637164D01*
X55508500Y-31608075D01*
X55508500Y-31551893D01*
X55508749Y-31543981D01*
X55512860Y-31478642D01*
X55513178Y-31473588D01*
X55509101Y-31432009D01*
X55508500Y-31419713D01*
X55508500Y-28177031D01*
X55528502Y-28108910D01*
X55545405Y-28087936D01*
X56754779Y-26878562D01*
X56757301Y-26876108D01*
X56826125Y-26811025D01*
X56826127Y-26811022D01*
X56829794Y-26807555D01*
X56877524Y-26745126D01*
X56881665Y-26739995D01*
X56929304Y-26684020D01*
X56929305Y-26684019D01*
X56932583Y-26680167D01*
X56935202Y-26675842D01*
X56935206Y-26675837D01*
X56949604Y-26652063D01*
X56957276Y-26640816D01*
X56977233Y-26614713D01*
X57014356Y-26545479D01*
X57017620Y-26539755D01*
X57055715Y-26476853D01*
X57058334Y-26472529D01*
X57070641Y-26442068D01*
X57076421Y-26429728D01*
X57089553Y-26405237D01*
X57091944Y-26400778D01*
X57117525Y-26326486D01*
X57119835Y-26320308D01*
X57147371Y-26252153D01*
X57149268Y-26247458D01*
X57156545Y-26215426D01*
X57160276Y-26202328D01*
X57170975Y-26171256D01*
X57184356Y-26093787D01*
X57185639Y-26087369D01*
X57201928Y-26015673D01*
X57201928Y-26015672D01*
X57203048Y-26010743D01*
X57205112Y-25977934D01*
X57206698Y-25964434D01*
X57212292Y-25932051D01*
X57213613Y-25902962D01*
X57213613Y-25846779D01*
X57213862Y-25838867D01*
X57217973Y-25773528D01*
X57218291Y-25768474D01*
X57214214Y-25726895D01*
X57213613Y-25714599D01*
X57213613Y-23238999D01*
X57200618Y-23077481D01*
X57199459Y-23063076D01*
X57199458Y-23063071D01*
X57199053Y-23058035D01*
X57168979Y-22935592D01*
X57142357Y-22827208D01*
X57141150Y-22822294D01*
X57046301Y-22598844D01*
X57043605Y-22594564D01*
X57043602Y-22594557D01*
X57032994Y-22577713D01*
X57013613Y-22510569D01*
X57013613Y-22451866D01*
X57006858Y-22389684D01*
X56955728Y-22253295D01*
X56868374Y-22136739D01*
X56751818Y-22049385D01*
X56615429Y-21998255D01*
X56553247Y-21991500D01*
X56489835Y-21991500D01*
X56426454Y-21974398D01*
X56424700Y-21973377D01*
X56359035Y-21935159D01*
X56354309Y-21933345D01*
X56354305Y-21933343D01*
X56137135Y-21849980D01*
X56137131Y-21849979D01*
X56132411Y-21848167D01*
X56127461Y-21847133D01*
X56127458Y-21847132D01*
X55899744Y-21799560D01*
X55899740Y-21799560D01*
X55894793Y-21798526D01*
X55652296Y-21787514D01*
X55647276Y-21788095D01*
X55647272Y-21788095D01*
X55416184Y-21814833D01*
X55416180Y-21814834D01*
X55411157Y-21815415D01*
X55406293Y-21816791D01*
X55406290Y-21816792D01*
X55299071Y-21847132D01*
X55177581Y-21881510D01*
X55173005Y-21883644D01*
X55172999Y-21883646D01*
X54967021Y-21979695D01*
X54913771Y-21991500D01*
X54856979Y-21991500D01*
X54794797Y-21998255D01*
X54658408Y-22049385D01*
X54541852Y-22136739D01*
X54454498Y-22253295D01*
X54403368Y-22389684D01*
X54396613Y-22451866D01*
X54396613Y-22455185D01*
X54372960Y-22522110D01*
X54326957Y-22557804D01*
X54327972Y-22559734D01*
X54317113Y-22565442D01*
X54316868Y-22565632D01*
X54316710Y-22565653D01*
X54278679Y-22585644D01*
X52490036Y-24374287D01*
X52483606Y-24386062D01*
X52492902Y-24398077D01*
X52544107Y-24433931D01*
X52553602Y-24439414D01*
X52751060Y-24531490D01*
X52761352Y-24535236D01*
X52971801Y-24591625D01*
X52982594Y-24593528D01*
X53199638Y-24612517D01*
X53210588Y-24612517D01*
X53427632Y-24593528D01*
X53438425Y-24591625D01*
X53648874Y-24535236D01*
X53659166Y-24531490D01*
X53856624Y-24439414D01*
X53866120Y-24433931D01*
X53998342Y-24341348D01*
X54065616Y-24318660D01*
X54134477Y-24335945D01*
X54183061Y-24387715D01*
X54196613Y-24444561D01*
X54196613Y-25117856D01*
X54176611Y-25185977D01*
X54159708Y-25206951D01*
X52950334Y-26416325D01*
X52947812Y-26418779D01*
X52890973Y-26472529D01*
X52875319Y-26487332D01*
X52872252Y-26491344D01*
X52827592Y-26549757D01*
X52823448Y-26554892D01*
X52772530Y-26614720D01*
X52769911Y-26619045D01*
X52769907Y-26619050D01*
X52755509Y-26642824D01*
X52747837Y-26654071D01*
X52727880Y-26680174D01*
X52725490Y-26684632D01*
X52725489Y-26684633D01*
X52690761Y-26749401D01*
X52687496Y-26755126D01*
X52646779Y-26822358D01*
X52644884Y-26827049D01*
X52634473Y-26852817D01*
X52628693Y-26865158D01*
X52613169Y-26894109D01*
X52611523Y-26898890D01*
X52611521Y-26898894D01*
X52587588Y-26968401D01*
X52585278Y-26974579D01*
X52555845Y-27047429D01*
X52554723Y-27052368D01*
X52548568Y-27079460D01*
X52544837Y-27092559D01*
X52534138Y-27123631D01*
X52520757Y-27201100D01*
X52519477Y-27207504D01*
X52502065Y-27284144D01*
X52500001Y-27316953D01*
X52498415Y-27330453D01*
X52492821Y-27362836D01*
X52491500Y-27391925D01*
X52491500Y-27448108D01*
X52491251Y-27456019D01*
X52486822Y-27526413D01*
X52487316Y-27531448D01*
X52490899Y-27567992D01*
X52491500Y-27580288D01*
X52491500Y-30822969D01*
X52471498Y-30891090D01*
X52454595Y-30912064D01*
X51412064Y-31954595D01*
X51349752Y-31988621D01*
X51322969Y-31991500D01*
X42877338Y-31991500D01*
X42851572Y-31988837D01*
X42801451Y-31978366D01*
X42634680Y-31943526D01*
X42629631Y-31943297D01*
X42629625Y-31943296D01*
X42519035Y-31938274D01*
X42392183Y-31932514D01*
X42387163Y-31933095D01*
X42387159Y-31933095D01*
X42156071Y-31959833D01*
X42156067Y-31959834D01*
X42151044Y-31960415D01*
X42146180Y-31961791D01*
X42146177Y-31961792D01*
X42050602Y-31988837D01*
X41917468Y-32026510D01*
X41912892Y-32028644D01*
X41912886Y-32028646D01*
X41702046Y-32126962D01*
X41702042Y-32126964D01*
X41697464Y-32129099D01*
X41496693Y-32265544D01*
X41471074Y-32289771D01*
X41407836Y-32322043D01*
X41337189Y-32315004D01*
X41281563Y-32270887D01*
X41258500Y-32198223D01*
X41258500Y-25366371D01*
X41278502Y-25298250D01*
X41295405Y-25277276D01*
X43267206Y-23305475D01*
X51892596Y-23305475D01*
X51911585Y-23522519D01*
X51913488Y-23533312D01*
X51969877Y-23743761D01*
X51973623Y-23754053D01*
X52065699Y-23951511D01*
X52071182Y-23961006D01*
X52107622Y-24013048D01*
X52118101Y-24021424D01*
X52131547Y-24014356D01*
X52833091Y-23312812D01*
X52840705Y-23298868D01*
X52840574Y-23297035D01*
X52836323Y-23290420D01*
X52130826Y-22584923D01*
X52119051Y-22578493D01*
X52107036Y-22587789D01*
X52071182Y-22638994D01*
X52065699Y-22648489D01*
X51973623Y-22845947D01*
X51969877Y-22856239D01*
X51913488Y-23066688D01*
X51911585Y-23077481D01*
X51892596Y-23294525D01*
X51892596Y-23305475D01*
X43267206Y-23305475D01*
X44359693Y-22212988D01*
X52483689Y-22212988D01*
X52490757Y-22226434D01*
X53192301Y-22927978D01*
X53206245Y-22935592D01*
X53208078Y-22935461D01*
X53214693Y-22931210D01*
X53920190Y-22225713D01*
X53926620Y-22213938D01*
X53917324Y-22201923D01*
X53866119Y-22166069D01*
X53856624Y-22160586D01*
X53659166Y-22068510D01*
X53648874Y-22064764D01*
X53438425Y-22008375D01*
X53427632Y-22006472D01*
X53210588Y-21987483D01*
X53199638Y-21987483D01*
X52982594Y-22006472D01*
X52971801Y-22008375D01*
X52761352Y-22064764D01*
X52751060Y-22068510D01*
X52553602Y-22160586D01*
X52544107Y-22166069D01*
X52492065Y-22202509D01*
X52483689Y-22212988D01*
X44359693Y-22212988D01*
X45528911Y-21043770D01*
X45543323Y-21031384D01*
X45554918Y-21022851D01*
X45554923Y-21022846D01*
X45560818Y-21018508D01*
X45565557Y-21012930D01*
X45565560Y-21012927D01*
X45595035Y-20978232D01*
X45601965Y-20970716D01*
X45607661Y-20965020D01*
X45609924Y-20962159D01*
X45609929Y-20962154D01*
X45625285Y-20942744D01*
X45628074Y-20939342D01*
X45670596Y-20889291D01*
X45670597Y-20889290D01*
X45675333Y-20883715D01*
X45678661Y-20877198D01*
X45682027Y-20872150D01*
X45685190Y-20867028D01*
X45689735Y-20861284D01*
X45720664Y-20795105D01*
X45722563Y-20791221D01*
X45755769Y-20726192D01*
X45757510Y-20719077D01*
X45759613Y-20713422D01*
X45761522Y-20707683D01*
X45764622Y-20701050D01*
X45779491Y-20629565D01*
X45780461Y-20625282D01*
X45796473Y-20559844D01*
X45797808Y-20554390D01*
X45798500Y-20543236D01*
X45798535Y-20543238D01*
X45798775Y-20539266D01*
X45799152Y-20535045D01*
X45800641Y-20527885D01*
X45798546Y-20450458D01*
X45798500Y-20447050D01*
X45798500Y-15192632D01*
X45818502Y-15124511D01*
X45851331Y-15090054D01*
X45919860Y-15041173D01*
X46078096Y-14883489D01*
X46208453Y-14702077D01*
X46209640Y-14702930D01*
X46256960Y-14659362D01*
X46326897Y-14647145D01*
X46392338Y-14674678D01*
X46420166Y-14706511D01*
X46477694Y-14800388D01*
X46483777Y-14808699D01*
X46623213Y-14969667D01*
X46630580Y-14976883D01*
X46794434Y-15112916D01*
X46802881Y-15118831D01*
X46986756Y-15226279D01*
X46996042Y-15230729D01*
X47195001Y-15306703D01*
X47204899Y-15309579D01*
X47308250Y-15330606D01*
X47322299Y-15329410D01*
X47326000Y-15319065D01*
X47326000Y-15318517D01*
X47834000Y-15318517D01*
X47838064Y-15332359D01*
X47851478Y-15334393D01*
X47858184Y-15333534D01*
X47868262Y-15331392D01*
X48072255Y-15270191D01*
X48081842Y-15266433D01*
X48273095Y-15172739D01*
X48281945Y-15167464D01*
X48455328Y-15043792D01*
X48463200Y-15037139D01*
X48614052Y-14886812D01*
X48620730Y-14878965D01*
X48745003Y-14706020D01*
X48750313Y-14697183D01*
X48844670Y-14506267D01*
X48848469Y-14496672D01*
X48910377Y-14292910D01*
X48912555Y-14282837D01*
X48913986Y-14271962D01*
X48911775Y-14257778D01*
X48898617Y-14254000D01*
X47852115Y-14254000D01*
X47836876Y-14258475D01*
X47835671Y-14259865D01*
X47834000Y-14267548D01*
X47834000Y-15318517D01*
X47326000Y-15318517D01*
X47326000Y-13872000D01*
X47346002Y-13803879D01*
X47399658Y-13757386D01*
X47452000Y-13746000D01*
X48898344Y-13746000D01*
X48911875Y-13742027D01*
X48913180Y-13732947D01*
X48871214Y-13565875D01*
X48867894Y-13556124D01*
X48782972Y-13360814D01*
X48778105Y-13351739D01*
X48662426Y-13172926D01*
X48656136Y-13164757D01*
X48512806Y-13007240D01*
X48505273Y-13000215D01*
X48338139Y-12868222D01*
X48329552Y-12862517D01*
X48143117Y-12759599D01*
X48133701Y-12755367D01*
X48127788Y-12753273D01*
X48070251Y-12711679D01*
X48044335Y-12645582D01*
X48058269Y-12575966D01*
X48107627Y-12524934D01*
X48169847Y-12508500D01*
X52365500Y-12508500D01*
X52433621Y-12528502D01*
G37*
%TD.AperFunction*%
%TD*%
M02*
