%TF.GenerationSoftware,KiCad,Pcbnew,(6.0.4)*%
%TF.CreationDate,2022-04-19T19:36:52+10:00*%
%TF.ProjectId,T1200_PSU,54313230-305f-4505-9355-2e6b69636164,rev?*%
%TF.SameCoordinates,Original*%
%TF.FileFunction,Soldermask,Bot*%
%TF.FilePolarity,Negative*%
%FSLAX46Y46*%
G04 Gerber Fmt 4.6, Leading zero omitted, Abs format (unit mm)*
G04 Created by KiCad (PCBNEW (6.0.4)) date 2022-04-19 19:36:52*
%MOMM*%
%LPD*%
G01*
G04 APERTURE LIST*
G04 Aperture macros list*
%AMRoundRect*
0 Rectangle with rounded corners*
0 $1 Rounding radius*
0 $2 $3 $4 $5 $6 $7 $8 $9 X,Y pos of 4 corners*
0 Add a 4 corners polygon primitive as box body*
4,1,4,$2,$3,$4,$5,$6,$7,$8,$9,$2,$3,0*
0 Add four circle primitives for the rounded corners*
1,1,$1+$1,$2,$3*
1,1,$1+$1,$4,$5*
1,1,$1+$1,$6,$7*
1,1,$1+$1,$8,$9*
0 Add four rect primitives between the rounded corners*
20,1,$1+$1,$2,$3,$4,$5,0*
20,1,$1+$1,$4,$5,$6,$7,0*
20,1,$1+$1,$6,$7,$8,$9,0*
20,1,$1+$1,$8,$9,$2,$3,0*%
G04 Aperture macros list end*
%ADD10R,1.600000X1.600000*%
%ADD11C,1.600000*%
%ADD12O,3.300000X2.000000*%
%ADD13R,1.800000X1.800000*%
%ADD14C,1.800000*%
%ADD15R,1.200000X1.200000*%
%ADD16C,1.200000*%
%ADD17R,1.350000X1.350000*%
%ADD18O,1.350000X1.350000*%
%ADD19R,1.218000X1.218000*%
%ADD20C,1.218000*%
%ADD21R,3.500000X3.500000*%
%ADD22RoundRect,0.750000X-0.750000X-1.000000X0.750000X-1.000000X0.750000X1.000000X-0.750000X1.000000X0*%
%ADD23RoundRect,0.875000X-0.875000X-0.875000X0.875000X-0.875000X0.875000X0.875000X-0.875000X0.875000X0*%
%ADD24R,1.700000X1.700000*%
%ADD25O,1.700000X1.700000*%
%ADD26R,1.050000X1.500000*%
%ADD27O,1.050000X1.500000*%
%ADD28R,2.000000X1.905000*%
%ADD29O,2.000000X1.905000*%
G04 APERTURE END LIST*
D10*
%TO.C,C5*%
X60000000Y-37000000D03*
D11*
X60000000Y-39500000D03*
%TD*%
D12*
%TO.C,SW1*%
X23000000Y-47500000D03*
X23000000Y-52500000D03*
X23000000Y-57500000D03*
%TD*%
D13*
%TO.C,D4*%
X31500000Y-54500000D03*
D14*
X28960000Y-54500000D03*
%TD*%
D15*
%TO.C,C1*%
X33972600Y-60500000D03*
D16*
X31972600Y-60500000D03*
%TD*%
D17*
%TO.C,PJ4*%
X26000000Y-67000000D03*
D18*
X28000000Y-67000000D03*
X30000000Y-67000000D03*
X32000000Y-67000000D03*
X34000000Y-67000000D03*
X36000000Y-67000000D03*
X38000000Y-67000000D03*
X40000000Y-67000000D03*
X42000000Y-67000000D03*
X44000000Y-67000000D03*
X46000000Y-67000000D03*
X48000000Y-67000000D03*
%TD*%
D19*
%TO.C,PS1*%
X121850000Y-38825000D03*
D20*
X124390000Y-38825000D03*
X132010000Y-38825000D03*
X137090000Y-38825000D03*
%TD*%
D21*
%TO.C,PJ1*%
X25000000Y-37542500D03*
D22*
X19000000Y-37542500D03*
D23*
X22000000Y-42242500D03*
%TD*%
D24*
%TO.C,PJ6*%
X147725000Y-68000000D03*
D25*
X150265000Y-68000000D03*
%TD*%
D26*
%TO.C,U1*%
X65230000Y-47411250D03*
D27*
X66500000Y-47411250D03*
X67770000Y-47411250D03*
%TD*%
D28*
%TO.C,U3*%
X42445000Y-56040000D03*
D29*
X42445000Y-53500000D03*
X42445000Y-50960000D03*
%TD*%
D24*
%TO.C,PJ5*%
X136200000Y-68000000D03*
D25*
X138740000Y-68000000D03*
X141280000Y-68000000D03*
X143820000Y-68000000D03*
%TD*%
D24*
%TO.C,J1*%
X42500000Y-14000000D03*
D25*
X45040000Y-14000000D03*
X47580000Y-14000000D03*
%TD*%
D15*
%TO.C,C3*%
X36000000Y-41472600D03*
D16*
X36000000Y-39472600D03*
%TD*%
D28*
%TO.C,U4*%
X136240000Y-51080000D03*
D29*
X136240000Y-53620000D03*
X136240000Y-56160000D03*
%TD*%
D10*
%TO.C,C7*%
X55705113Y-23300000D03*
D11*
X53205113Y-23300000D03*
%TD*%
G36*
X133942121Y-60020002D02*
G01*
X133988614Y-60073658D01*
X134000000Y-60126000D01*
X134000000Y-70374000D01*
X133979998Y-70442121D01*
X133926342Y-70488614D01*
X133874000Y-70500000D01*
X123626000Y-70500000D01*
X123557879Y-70479998D01*
X123511386Y-70426342D01*
X123500000Y-70374000D01*
X123500000Y-65003958D01*
X126250249Y-65003958D01*
X126269464Y-65309370D01*
X126270457Y-65317233D01*
X126327798Y-65617824D01*
X126329769Y-65625501D01*
X126424333Y-65916538D01*
X126427248Y-65923901D01*
X126557546Y-66200798D01*
X126561357Y-66207731D01*
X126725336Y-66466119D01*
X126729981Y-66472512D01*
X126925054Y-66708317D01*
X126930465Y-66714079D01*
X127153553Y-66923572D01*
X127159644Y-66928611D01*
X127407225Y-67108489D01*
X127413905Y-67112729D01*
X127682081Y-67260160D01*
X127689238Y-67263527D01*
X127973776Y-67376183D01*
X127981296Y-67378627D01*
X128277708Y-67454732D01*
X128285479Y-67456215D01*
X128589093Y-67494570D01*
X128596983Y-67495067D01*
X128903017Y-67495067D01*
X128910907Y-67494570D01*
X129214521Y-67456215D01*
X129222292Y-67454732D01*
X129518704Y-67378627D01*
X129526224Y-67376183D01*
X129810762Y-67263527D01*
X129817919Y-67260160D01*
X130086095Y-67112729D01*
X130092775Y-67108489D01*
X130340356Y-66928611D01*
X130346447Y-66923572D01*
X130569535Y-66714079D01*
X130574946Y-66708317D01*
X130770019Y-66472512D01*
X130774664Y-66466119D01*
X130938643Y-66207731D01*
X130942454Y-66200798D01*
X131072752Y-65923901D01*
X131075667Y-65916538D01*
X131170231Y-65625501D01*
X131172202Y-65617824D01*
X131229543Y-65317233D01*
X131230536Y-65309370D01*
X131249751Y-65003958D01*
X131249751Y-64996042D01*
X131230536Y-64690630D01*
X131229543Y-64682767D01*
X131172202Y-64382176D01*
X131170231Y-64374499D01*
X131075667Y-64083462D01*
X131072752Y-64076099D01*
X130942454Y-63799202D01*
X130938643Y-63792269D01*
X130774664Y-63533881D01*
X130770019Y-63527488D01*
X130574946Y-63291683D01*
X130569535Y-63285921D01*
X130346447Y-63076428D01*
X130340356Y-63071389D01*
X130092775Y-62891511D01*
X130086095Y-62887271D01*
X129817919Y-62739840D01*
X129810762Y-62736473D01*
X129526224Y-62623817D01*
X129518704Y-62621373D01*
X129222292Y-62545268D01*
X129214521Y-62543785D01*
X128910907Y-62505430D01*
X128903017Y-62504933D01*
X128596983Y-62504933D01*
X128589093Y-62505430D01*
X128285479Y-62543785D01*
X128277708Y-62545268D01*
X127981296Y-62621373D01*
X127973776Y-62623817D01*
X127689238Y-62736473D01*
X127682081Y-62739840D01*
X127413905Y-62887271D01*
X127407225Y-62891511D01*
X127159644Y-63071389D01*
X127153553Y-63076428D01*
X126930465Y-63285921D01*
X126925054Y-63291683D01*
X126729981Y-63527488D01*
X126725336Y-63533881D01*
X126561357Y-63792269D01*
X126557546Y-63799202D01*
X126427248Y-64076099D01*
X126424333Y-64083462D01*
X126329769Y-64374499D01*
X126327798Y-64382176D01*
X126270457Y-64682767D01*
X126269464Y-64690630D01*
X126250249Y-64996042D01*
X126250249Y-65003958D01*
X123500000Y-65003958D01*
X123500000Y-60126000D01*
X123520002Y-60057879D01*
X123573658Y-60011386D01*
X123626000Y-60000000D01*
X133874000Y-60000000D01*
X133942121Y-60020002D01*
G37*
G36*
X22442121Y-60020002D02*
G01*
X22488614Y-60073658D01*
X22500000Y-60126000D01*
X22500000Y-70374000D01*
X22479998Y-70442121D01*
X22426342Y-70488614D01*
X22374000Y-70500000D01*
X12126000Y-70500000D01*
X12057879Y-70479998D01*
X12011386Y-70426342D01*
X12000000Y-70374000D01*
X12000000Y-65003958D01*
X15000249Y-65003958D01*
X15019464Y-65309370D01*
X15020457Y-65317233D01*
X15077798Y-65617824D01*
X15079769Y-65625501D01*
X15174333Y-65916538D01*
X15177248Y-65923901D01*
X15307546Y-66200798D01*
X15311357Y-66207731D01*
X15475336Y-66466119D01*
X15479981Y-66472512D01*
X15675054Y-66708317D01*
X15680465Y-66714079D01*
X15903553Y-66923572D01*
X15909644Y-66928611D01*
X16157225Y-67108489D01*
X16163905Y-67112729D01*
X16432081Y-67260160D01*
X16439238Y-67263527D01*
X16723776Y-67376183D01*
X16731296Y-67378627D01*
X17027708Y-67454732D01*
X17035479Y-67456215D01*
X17339093Y-67494570D01*
X17346983Y-67495067D01*
X17653017Y-67495067D01*
X17660907Y-67494570D01*
X17964521Y-67456215D01*
X17972292Y-67454732D01*
X18268704Y-67378627D01*
X18276224Y-67376183D01*
X18560762Y-67263527D01*
X18567919Y-67260160D01*
X18836095Y-67112729D01*
X18842775Y-67108489D01*
X19090356Y-66928611D01*
X19096447Y-66923572D01*
X19319535Y-66714079D01*
X19324946Y-66708317D01*
X19520019Y-66472512D01*
X19524664Y-66466119D01*
X19688643Y-66207731D01*
X19692454Y-66200798D01*
X19822752Y-65923901D01*
X19825667Y-65916538D01*
X19920231Y-65625501D01*
X19922202Y-65617824D01*
X19979543Y-65317233D01*
X19980536Y-65309370D01*
X19999751Y-65003958D01*
X19999751Y-64996042D01*
X19980536Y-64690630D01*
X19979543Y-64682767D01*
X19922202Y-64382176D01*
X19920231Y-64374499D01*
X19825667Y-64083462D01*
X19822752Y-64076099D01*
X19692454Y-63799202D01*
X19688643Y-63792269D01*
X19524664Y-63533881D01*
X19520019Y-63527488D01*
X19324946Y-63291683D01*
X19319535Y-63285921D01*
X19096447Y-63076428D01*
X19090356Y-63071389D01*
X18842775Y-62891511D01*
X18836095Y-62887271D01*
X18567919Y-62739840D01*
X18560762Y-62736473D01*
X18276224Y-62623817D01*
X18268704Y-62621373D01*
X17972292Y-62545268D01*
X17964521Y-62543785D01*
X17660907Y-62505430D01*
X17653017Y-62504933D01*
X17346983Y-62504933D01*
X17339093Y-62505430D01*
X17035479Y-62543785D01*
X17027708Y-62545268D01*
X16731296Y-62621373D01*
X16723776Y-62623817D01*
X16439238Y-62736473D01*
X16432081Y-62739840D01*
X16163905Y-62887271D01*
X16157225Y-62891511D01*
X15909644Y-63071389D01*
X15903553Y-63076428D01*
X15680465Y-63285921D01*
X15675054Y-63291683D01*
X15479981Y-63527488D01*
X15475336Y-63533881D01*
X15311357Y-63792269D01*
X15307546Y-63799202D01*
X15177248Y-64076099D01*
X15174333Y-64083462D01*
X15079769Y-64374499D01*
X15077798Y-64382176D01*
X15020457Y-64682767D01*
X15019464Y-64690630D01*
X15000249Y-64996042D01*
X15000249Y-65003958D01*
X12000000Y-65003958D01*
X12000000Y-60126000D01*
X12020002Y-60057879D01*
X12073658Y-60011386D01*
X12126000Y-60000000D01*
X22374000Y-60000000D01*
X22442121Y-60020002D01*
G37*
G36*
X22442121Y-12020002D02*
G01*
X22488614Y-12073658D01*
X22500000Y-12126000D01*
X22500000Y-22374000D01*
X22479998Y-22442121D01*
X22426342Y-22488614D01*
X22374000Y-22500000D01*
X12126000Y-22500000D01*
X12057879Y-22479998D01*
X12011386Y-22426342D01*
X12000000Y-22374000D01*
X12000000Y-17503958D01*
X15000249Y-17503958D01*
X15019464Y-17809370D01*
X15020457Y-17817233D01*
X15077798Y-18117824D01*
X15079769Y-18125501D01*
X15174333Y-18416538D01*
X15177248Y-18423901D01*
X15307546Y-18700798D01*
X15311357Y-18707731D01*
X15475336Y-18966119D01*
X15479981Y-18972512D01*
X15675054Y-19208317D01*
X15680465Y-19214079D01*
X15903553Y-19423572D01*
X15909644Y-19428611D01*
X16157225Y-19608489D01*
X16163905Y-19612729D01*
X16432081Y-19760160D01*
X16439238Y-19763527D01*
X16723776Y-19876183D01*
X16731296Y-19878627D01*
X17027708Y-19954732D01*
X17035479Y-19956215D01*
X17339093Y-19994570D01*
X17346983Y-19995067D01*
X17653017Y-19995067D01*
X17660907Y-19994570D01*
X17964521Y-19956215D01*
X17972292Y-19954732D01*
X18268704Y-19878627D01*
X18276224Y-19876183D01*
X18560762Y-19763527D01*
X18567919Y-19760160D01*
X18836095Y-19612729D01*
X18842775Y-19608489D01*
X19090356Y-19428611D01*
X19096447Y-19423572D01*
X19319535Y-19214079D01*
X19324946Y-19208317D01*
X19520019Y-18972512D01*
X19524664Y-18966119D01*
X19688643Y-18707731D01*
X19692454Y-18700798D01*
X19822752Y-18423901D01*
X19825667Y-18416538D01*
X19920231Y-18125501D01*
X19922202Y-18117824D01*
X19979543Y-17817233D01*
X19980536Y-17809370D01*
X19999751Y-17503958D01*
X19999751Y-17496042D01*
X19980536Y-17190630D01*
X19979543Y-17182767D01*
X19922202Y-16882176D01*
X19920231Y-16874499D01*
X19825667Y-16583462D01*
X19822752Y-16576099D01*
X19692454Y-16299202D01*
X19688643Y-16292269D01*
X19524664Y-16033881D01*
X19520019Y-16027488D01*
X19324946Y-15791683D01*
X19319535Y-15785921D01*
X19096447Y-15576428D01*
X19090356Y-15571389D01*
X18842775Y-15391511D01*
X18836095Y-15387271D01*
X18567919Y-15239840D01*
X18560762Y-15236473D01*
X18276224Y-15123817D01*
X18268704Y-15121373D01*
X17972292Y-15045268D01*
X17964521Y-15043785D01*
X17660907Y-15005430D01*
X17653017Y-15004933D01*
X17346983Y-15004933D01*
X17339093Y-15005430D01*
X17035479Y-15043785D01*
X17027708Y-15045268D01*
X16731296Y-15121373D01*
X16723776Y-15123817D01*
X16439238Y-15236473D01*
X16432081Y-15239840D01*
X16163905Y-15387271D01*
X16157225Y-15391511D01*
X15909644Y-15571389D01*
X15903553Y-15576428D01*
X15680465Y-15785921D01*
X15675054Y-15791683D01*
X15479981Y-16027488D01*
X15475336Y-16033881D01*
X15311357Y-16292269D01*
X15307546Y-16299202D01*
X15177248Y-16576099D01*
X15174333Y-16583462D01*
X15079769Y-16874499D01*
X15077798Y-16882176D01*
X15020457Y-17182767D01*
X15019464Y-17190630D01*
X15000249Y-17496042D01*
X15000249Y-17503958D01*
X12000000Y-17503958D01*
X12000000Y-12126000D01*
X12020002Y-12057879D01*
X12073658Y-12011386D01*
X12126000Y-12000000D01*
X22374000Y-12000000D01*
X22442121Y-12020002D01*
G37*
M02*
